<?xml version="1.0" encoding="utf-8"?>
<!-- Generator: Adobe Illustrator 27.5.0, SVG Export Plug-In . SVG Version: 6.00 Build 0)  -->
<svg version="1.1" xmlns="http://www.w3.org/2000/svg" xmlns:xlink="http://www.w3.org/1999/xlink" x="0px" y="0px"
	 viewBox="0 0 500 500" style="enable-background:new 0 0 500 500;" xml:space="preserve">
<g id="Background_Simple">
	<g>
		<path style="fill:#92E3A9;" d="M473.384,201.16c10.824,113.883-26.571,148.141-138.5,193.185
			c-111.93,45.044-191.535,109.664-266.833-30.066C13.782,263.575,81.458,135.608,193.387,90.564
			C305.317,45.519,459.592,56.058,473.384,201.16z"/>
		<path style="opacity:0.7;fill:#FFFFFF;" d="M473.384,201.16c10.824,113.883-26.571,148.141-138.5,193.185
			c-111.93,45.044-191.535,109.664-266.833-30.066C13.782,263.575,81.458,135.608,193.387,90.564
			C305.317,45.519,459.592,56.058,473.384,201.16z"/>
	</g>
</g>
<g id="Dots">
	<g>
		<path style="fill:#FFFFFF;" d="M265.991,394.63c0,3.803-3.083,6.886-6.886,6.886c-3.803,0-6.886-3.083-6.886-6.886
			c0-3.803,3.083-6.886,6.886-6.886C262.909,387.744,265.991,390.827,265.991,394.63z"/>
		<path style="fill:#FFFFFF;" d="M397.171,270.644c0,3.803-3.083,6.886-6.886,6.886c-3.803,0-6.886-3.083-6.886-6.886
			c0-3.803,3.083-6.886,6.886-6.886C394.089,263.759,397.171,266.842,397.171,270.644z"/>
		<path style="fill:#FFFFFF;" d="M461.698,192.977c0,3.803-3.083,6.886-6.886,6.886c-3.803,0-6.886-3.083-6.886-6.886
			s3.083-6.886,6.886-6.886C458.616,186.092,461.698,189.174,461.698,192.977z"/>
		<path style="fill:#FFFFFF;" d="M386.847,200.137c0,3.803-3.083,6.886-6.886,6.886c-3.803,0-6.886-3.083-6.886-6.886
			s3.083-6.886,6.886-6.886C383.764,193.251,386.847,196.334,386.847,200.137z"/>
		<path style="fill:#FFFFFF;" d="M328.71,106.775c0,3.803-3.083,6.886-6.886,6.886c-3.803,0-6.886-3.083-6.886-6.886
			c0-3.803,3.083-6.886,6.886-6.886C325.627,99.889,328.71,102.972,328.71,106.775z"/>
		<path style="fill:#FFFFFF;" d="M282.228,70.295c0,3.803-3.083,6.886-6.886,6.886c-3.803,0-6.886-3.083-6.886-6.886
			c0-3.803,3.083-6.886,6.886-6.886C279.145,63.409,282.228,66.492,282.228,70.295z"/>
		<path style="fill:#FFFFFF;" d="M153.763,160.776c0,3.803-3.083,6.886-6.886,6.886s-6.886-3.083-6.886-6.886
			c0-3.803,3.083-6.886,6.886-6.886S153.763,156.973,153.763,160.776z"/>
		<path style="fill:#FFFFFF;" d="M142.105,250.611c0,3.803-3.083,6.886-6.886,6.886c-3.803,0-6.886-3.083-6.886-6.886
			c0-3.803,3.083-6.886,6.886-6.886C139.022,243.726,142.105,246.809,142.105,250.611z"/>
		<path style="fill:#FFFFFF;" d="M156.071,304.366c0,3.803-3.083,6.886-6.886,6.886c-3.803,0-6.886-3.083-6.886-6.886
			c0-3.803,3.083-6.886,6.886-6.886C152.988,297.48,156.071,300.563,156.071,304.366z"/>
		<circle style="fill:#FFFFFF;" cx="106.601" cy="370.149" r="6.886"/>
		<polygon style="fill:none;stroke:#FFFFFF;stroke-linecap:round;stroke-linejoin:round;stroke-miterlimit:10;" points="
			149.185,304.366 106.601,370.149 259.106,394.63 390.286,270.644 379.961,200.137 454.813,192.977 321.824,106.775 
			146.877,160.776 135.219,250.611 		"/>
		
			<line style="fill:none;stroke:#FFFFFF;stroke-linecap:round;stroke-linejoin:round;stroke-miterlimit:10;" x1="275.342" y1="70.295" x2="321.824" y2="106.775"/>
		
			<line style="fill:none;stroke:#FFFFFF;stroke-linecap:round;stroke-linejoin:round;stroke-miterlimit:10;" x1="259.106" y1="394.63" x2="247.297" y2="322.066"/>
		
			<line style="fill:none;stroke:#FFFFFF;stroke-linecap:round;stroke-linejoin:round;stroke-miterlimit:10;" x1="146.877" y1="160.776" x2="187.033" y2="197.104"/>
	</g>
</g>
<g id="Shadow">
	<ellipse style="fill:#92E3A9;" cx="364.276" cy="460.954" rx="51.789" ry="8.378"/>
</g>
<g id="Globe">
	<g>
		<g>
			<defs>
				
					<ellipse id="XMLID_33_" transform="matrix(0.7071 -0.7071 0.7071 0.7071 -87.0828 253.179)" cx="262.073" cy="231.708" rx="108.197" ry="108.197"/>
			</defs>
			<use xlink:href="#XMLID_33_"  style="overflow:visible;fill:#515B60;"/>
			<clipPath id="XMLID_00000178920466992173955580000002029208187939948442_">
				<use xlink:href="#XMLID_33_"  style="overflow:visible;"/>
			</clipPath>
			
				<use xlink:href="#XMLID_33_"  style="overflow:visible;fill:none;stroke:#263238;stroke-linecap:round;stroke-linejoin:round;stroke-miterlimit:10;"/>
		</g>
		<path style="fill:#92E3A9;stroke:#263238;stroke-linecap:round;stroke-linejoin:round;stroke-miterlimit:10;" d="M206.952,167.931
			c-1.254-0.944-7.241,1.096-7.259-0.679c-0.013-1.184,4.033-4.497,4.787-5.977c1.115-2.19,0.537-5.246,1.576-7.306
			c0.568-1.126,2.116-3.744,3.389-4.819c6.089-5.136,15.367-10.713,23.1-11.098c2.783-0.139,6.596,4.639,7.222,8.365
			c0.371,2.21-0.003,8.778-1.953,11.079c-2.943,3.473-9.403,3.51-12.839,6.212c-3.993,3.141-5.934,10.548-10.534,13.018
			c-1.278,0.686-3.716-0.659-4.542-1.362C208.37,174.063,208.393,169.016,206.952,167.931z"/>
		<path style="fill:#92E3A9;stroke:#263238;stroke-linecap:round;stroke-linejoin:round;stroke-miterlimit:10;" d="M332.398,279.288
			c-0.486-0.118-1.621-0.178-2.158,0.133c-1.786,1.034-4.399,4.928-5.323,6.849c-1.055,2.192-2.329,6.938-2.225,8.991
			c0.058,1.148,0.719,3.433,1.667,3.549c0.719,0.088,2.621-1.327,3.293-2.132c3.454-4.138,7.599-10.579,7.292-15.712
			C334.899,280.2,333.182,279.478,332.398,279.288z"/>
		<path style="fill:#92E3A9;stroke:#263238;stroke-linecap:round;stroke-linejoin:round;stroke-miterlimit:10;" d="M266.799,180.283
			c1.302-0.128,4.175-0.833,4.965-2.001c1.281-1.895,1.768-7.584,0.432-9.188c-0.563-0.675-2.664-0.533-3.381,0.057
			c-0.936,0.77-0.687,4.036-1.612,4.854c-0.891,0.788-3.558-0.34-4.367,0.575c-0.805,0.911-1.028,3.903-0.4,4.82
			C263.074,180.336,265.664,180.394,266.799,180.283z"/>
		<path style="fill:#92E3A9;stroke:#263238;stroke-linecap:round;stroke-linejoin:round;stroke-miterlimit:10;" d="M331.343,148.596
			c-0.994,0.866-1.892,2.095-1.954,3.27c-0.046,0.886,1.744,3.422,1.516,4.207c-0.554,1.904-5.04,3.258-7.293,2.057
			c-0.692-0.369-1.291-2.471-1.958-2.935c-2.782-1.936-8.094-0.624-10.792-0.79c-0.964-0.059-2.933,0.061-3.854-0.221
			c-4.57-1.402-9.315-6.138-13.959-6.321c-2.314-0.091-7.536,3.225-9.167,5.667c-2.147,3.216-3.644,7.759-3.614,11.621
			c0.013,1.715,1.567,5.373,2.926,6.291c1.38,0.933,5.165,1.105,6.414,0.034c0.87-0.745,0.371-3.915,1.078-4.824
			c0.793-1.019,3.604-2.658,4.457-1.859c2.587,2.423,3.204,9.158,1.646,12.093c-1.671,3.149-8.621,6.405-12.221,4.725
			c-1.327-0.62-0.227-5.59-1.363-6.78c-1.043-1.093-4.524-1.997-5.626-0.955c-1.34,1.268,0.944,6.189-0.154,7.745
			c-1.216,1.723-6.047,1.176-7.698,2.483c-1.215,0.961-3.274,3.78-3.427,5.353c-0.131,1.349,2.827,3.65,2.103,4.805
			c-1.036,1.653-6.164-1.415-7.43,0.087c-1.693,2.007-0.474,8.477,1.424,10.103c1.42,1.217,6.061,1.128,7.596-0.054
			c1.093-0.842,0.428-4.52,1.538-5.327c1.463-1.063,5.321,0.886,7.043,0.456c1.336-0.334,3.353-3.145,4.697-2.909
			c1.8,0.317,4.404,3.955,4.742,5.817c0.253,1.396-2.892,4.361-1.858,5.321c1.264,1.175,5.525-1.294,6.159-2.886
			c0.799-2.005-3.724-6.218-2.969-8.237c0.281-0.751,2.003-1.621,2.769-1.437c2.603,0.626,4.193,8.007,6.824,8.746
			c1.864,0.524,5.105-3.273,6.984-2.824c2.222,0.531,5.799,4.582,6.486,6.803c0.48,1.551-0.12,5.26-1.209,6.229
			c-3.737,3.326-10.709,4.104-15.832,3.785c-2.434-0.151-7.393-2.15-9.182-3.886c-1.243-1.205-1.508-5.491-2.894-6.296
			c-3.617-2.102-9.379-1.765-13.356-0.455c-7.045,2.321-15.587,8.984-19.531,15.505c-1.422,2.35,0.021,8.671-1.418,11.024
			c-0.448,0.732-2.467,1.142-2.859,1.9c-1.197,2.312-0.877,8.283,0.409,10.521c2.404,4.183,7.599,8.281,11.892,9.756
			c4.916,1.689,11.67-1.034,16.877,0.151c1.647,0.375,5.197,2.297,6.103,3.887c1.19,2.086-0.643,7.577,0.478,9.684
			c0.927,1.741,5.983,1.686,6.69,3.37c2.561,6.099-3.549,14.315-2.611,20.827c0.317,2.201,3.716,5.619,4.033,7.694
			c0.589,3.861-1.549,9.096-0.048,12.561c0.986,2.276,6.778,3.186,8.955,2.045c4.683-2.455,9.833-8.373,12.028-13.088
			c2.007-4.311,0.292-11.042,2.472-14.8c1.766-3.044,7.438-4.499,9.32-7.556c2.792-4.534,0.635-12.863,3.265-17.584
			c2.058-3.695,8.046-5.848,10.015-9.728c0.775-1.528,0.385-6.126-0.723-7.028c-2.721-2.216-9.129-0.673-11.732-3.122
			c-1.135-1.067,0.528-5.865-0.178-7.619c-0.654-1.626-4.16-3.555-4.74-5.23c-0.626-1.807-0.924-6.343,0.474-7.65
			c0.61-0.571,2.683-0.385,3.387,0.01c3.762,2.113,6.915,6.75,8.176,10.923c0.43,1.423-1.514,4.886-0.708,6.163
			c0.586,0.929,3.152,1.534,4.251,1.363c4.823-0.751,13.089-4.357,13.873-8.115c0.962-4.608-11.586-9.835-10.247-14.975
			c0.425-1.633,6.809-1.576,8.665-0.376c1.302,0.842,1.186,4.494,2.127,5.595c2.561,3,6.566,5.056,10.172,6.92
			c1.696,0.876,6.22,1.128,7.171,2.679c1.241,2.025-2.39,7.416-1.687,9.529c0.695,2.087,2.337,5.201,4.401,7.69
			c1.038-6.017,1.585-12.203,1.585-18.517C370.269,198.306,355.13,168.443,331.343,148.596z"/>
		<g>
			<path style="fill:#92E3A9;stroke:#263238;stroke-linecap:round;stroke-linejoin:round;stroke-miterlimit:10;" d="
				M205.452,301.645c-4.048-3.838-8.729-9.912-9.169-14.756c-0.509-5.604,10.414-8.139,11.005-14.404
				c0.213-2.256-5.223-8.181-4.792-10.546c0.444-2.436,6.505-4.77,6.239-7.331c-0.544-5.225-6.096-11.118-10.456-13.933
				c-2.35-1.517-9.153,0.373-11.192-1.6c-0.967-0.935,0.592-3.996-0.4-4.871c-1.262-1.112-5.175,0.542-6.763-0.097
				c-1.847-0.742-3.788-4.675-5.542-5.261c-5.951-1.988-14.642,2.915-20.477,0.583c-0.016,0.757-0.029,1.515-0.029,2.276
				c0,0.178,0.006,0.355,0.007,0.533c0.991,0.474,2.189,1.61,2.446,2.302c0.474,1.276-0.311,4.038-1.28,4.88
				c-0.173,0.151-0.496,0.22-0.88,0.257c0.225,3.087,0.582,6.138,1.06,9.148c2.983,1.896,6.904,3.155,8.852,5.754
				c1.19,1.588-1.352,5.247,0.019,6.803c2.686,3.048,8.754,3.302,11.73,6.004c6.957,6.316,8.114,19.076,15.95,26.279
				c1.371,1.26,4.651,2.476,5.987,3.777c1.889,1.841,2.669,5.264,4.705,7.025c3.481,3.012,9.372,7.993,12.594,7.717
				c0.588-0.05-1.634-5.024-3.502-6.995C210.175,303.726,206.917,303.035,205.452,301.645z"/>
			<path style="fill:#92E3A9;stroke:#263238;stroke-linecap:round;stroke-linejoin:round;stroke-miterlimit:10;" d="
				M157.894,212.262c0.588,0.251,2.281,0.345,2.872-0.117c1.378-1.077,0.169-4.601,1.307-5.825
				c4.822-5.185,14.557-4.822,19.084-10.412c1.268-1.565-0.67-5.632,1.043-6.814c5.408-3.732,14.004,4.074,18.742,0.65
				c2.793-2.019,5.288-9.002,3.986-12.159c-0.241-0.585-3.273,0.829-3.892,0.383c-1.23-0.884,0.828-6.359-0.297-6.741
				c-3.231-1.097-8.613,1.751-11.996,3.606c-0.933,0.512-2.572,2.577-3.481,2.865c-1.928,0.61-5.716-0.712-4.699-2.102
				c2.255-3.083,8.106-3.899,11.325-6.381c2.836-2.187,7.825-6.733,7.761-9.07c-0.086-3.175-13.595,0.402-16.968,2.103
				c-1.991,1.005-6.3,5.149-8.344,6.139c-8.707,12.044-14.996,25.949-18.153,41.008C156.659,210.564,157.06,211.907,157.894,212.262
				z"/>
		</g>
	</g>
</g>
<g id="Lines">
	<g>
		
			<line style="fill:none;stroke:#263238;stroke-linecap:round;stroke-linejoin:round;stroke-miterlimit:10;" x1="193.951" y1="350.185" x2="207.357" y2="330.314"/>
		
			<line style="fill:none;stroke:#263238;stroke-linecap:round;stroke-linejoin:round;stroke-miterlimit:10;" x1="129.385" y1="227.067" x2="150.367" y2="227.375"/>
		
			<line style="fill:none;stroke:#263238;stroke-linecap:round;stroke-linejoin:round;stroke-miterlimit:10;" x1="191.692" y1="113.951" x2="204.632" y2="134.705"/>
		
			<line style="fill:none;stroke:#263238;stroke-linecap:round;stroke-linejoin:round;stroke-miterlimit:10;" x1="400.596" y1="229.844" x2="374.382" y2="230.16"/>
		<g>
			<polyline style="fill:none;stroke:#263238;stroke-linecap:round;stroke-linejoin:round;stroke-miterlimit:10;" points="
				122.936,303.935 144.934,333.933 156.849,350.182 			"/>
		</g>
		<g>
			
				<line style="fill:none;stroke:#263238;stroke-linecap:round;stroke-linejoin:round;stroke-miterlimit:10;" x1="160.706" y1="115.419" x2="109.399" y2="180.514"/>
		</g>
		
			<line style="fill:none;stroke:#263238;stroke-linecap:round;stroke-linejoin:round;stroke-miterlimit:10;" x1="334.668" y1="364.171" x2="209.206" y2="369.664"/>
		
			<line style="fill:none;stroke:#263238;stroke-linecap:round;stroke-linejoin:round;stroke-miterlimit:10;" x1="386.847" y1="336.513" x2="426.775" y2="261.235"/>
		
			<line style="fill:none;stroke:#263238;stroke-linecap:round;stroke-linejoin:round;stroke-miterlimit:10;" x1="429.886" y1="200.496" x2="428.559" y2="176.101"/>
		
			<line style="fill:none;stroke:#263238;stroke-linecap:round;stroke-linejoin:round;stroke-miterlimit:10;" x1="341.464" y1="151.531" x2="354.136" y2="142.301"/>
		
			<line style="fill:none;stroke:#263238;stroke-linecap:round;stroke-linejoin:round;stroke-miterlimit:10;" x1="208.998" y1="87.544" x2="353.617" y2="90.038"/>
	</g>
</g>
<g id="Face_3">
	<g>
		<g>
			
				<ellipse transform="matrix(0.4242 -0.9056 0.9056 0.4242 39.3551 523.0892)" style="fill:#92E3A9;" cx="431.004" cy="230.598" rx="27.353" ry="27.353"/>
			
				<ellipse transform="matrix(0.4242 -0.9056 0.9056 0.4242 39.3551 523.0892)" style="opacity:0.2;fill:#FFFFFF;" cx="431.004" cy="230.598" rx="27.353" ry="27.353"/>
		</g>
		<g>
			<defs>
				<path id="XMLID_3_" d="M431.128,258.133c2.54,0,4.995-0.353,7.328-1.001l-1.523-8.935l-12.887,0.765l-0.494,8.099
					C425.959,257.754,428.498,258.133,431.128,258.133z"/>
			</defs>
			<use xlink:href="#XMLID_3_"  style="overflow:visible;fill:#FFFFFF;"/>
			<clipPath id="XMLID_00000132055834057606885090000009408481995914150813_">
				<use xlink:href="#XMLID_3_"  style="overflow:visible;"/>
			</clipPath>
			
				<path style="clip-path:url(#XMLID_00000132055834057606885090000009408481995914150813_);fill:#263238;stroke:#263238;stroke-linecap:round;stroke-linejoin:round;stroke-miterlimit:10;" d="
				M421.516,248.355c2.344,3.904,5.788,6.378,9.635,6.378c3.848,0,7.292-2.474,9.636-6.378H421.516z"/>
			
				<use xlink:href="#XMLID_3_"  style="overflow:visible;fill:none;stroke:#263238;stroke-linecap:round;stroke-linejoin:round;stroke-miterlimit:10;"/>
		</g>
		<path style="fill:#FFFFFF;stroke:#263238;stroke-linecap:round;stroke-linejoin:round;stroke-miterlimit:10;" d="M446.412,233.85
			c-0.532-0.262-1.132-0.288-1.727-0.128c-0.345-9.845-6.46-17.686-13.955-17.686s-13.609,7.841-13.955,17.686
			c-0.595-0.16-1.194-0.134-1.727,0.128c-1.465,0.72-1.864,2.906-0.892,4.882c0.785,1.597,2.223,2.55,3.519,2.484
			c2.006,6.985,7.093,11.949,13.055,11.949c5.962,0,11.048-4.964,13.055-11.949c1.297,0.066,2.734-0.887,3.519-2.484
			C448.276,236.755,447.877,234.57,446.412,233.85z"/>
		<path style="fill:none;stroke:#263238;stroke-linecap:round;stroke-linejoin:round;stroke-miterlimit:10;" d="M428.817,235.812
			l-0.111,0.532c-0.348,1.672-1.003,3.265-1.931,4.699l0,0l2.807,1.531"/>
		<path style="fill:none;stroke:#263238;stroke-linecap:round;stroke-linejoin:round;stroke-miterlimit:10;" d="M426.408,246.275
			c0,0,3.7,1.786,7.528,0"/>
		<path style="fill:#263238;" d="M423.524,234.408c0,0.74-0.286,1.34-0.638,1.34c-0.352,0-0.638-0.6-0.638-1.34
			c0-0.74,0.286-1.34,0.638-1.34C423.239,233.069,423.524,233.669,423.524,234.408z"/>
		<path style="fill:#263238;" d="M434.179,234.408c0,0.74-0.286,1.34-0.638,1.34c-0.352,0-0.638-0.6-0.638-1.34
			c0-0.74,0.286-1.34,0.638-1.34C433.893,233.069,434.179,233.669,434.179,234.408z"/>
		<path style="fill:none;stroke:#263238;stroke-linecap:round;stroke-linejoin:round;stroke-miterlimit:10;" d="M421.641,231.811
			c0,0,1.531-3.17,5.231-2.264"/>
		<path style="fill:none;stroke:#263238;stroke-linecap:round;stroke-linejoin:round;stroke-miterlimit:10;" d="M438.164,231.811
			c0,0-1.531-3.17-5.231-2.264"/>
		
			<line style="fill:#FFFFFF;stroke:#263238;stroke-linecap:round;stroke-linejoin:round;stroke-miterlimit:10;" x1="419.683" y1="232.199" x2="416.848" y2="232.199"/>
		<g>
			
				<rect x="420.274" y="232.199" style="fill:none;stroke:#263238;stroke-linecap:round;stroke-linejoin:round;stroke-miterlimit:10;" width="7.874" height="5.074"/>
			
				<rect x="431.596" y="232.199" style="fill:none;stroke:#263238;stroke-linecap:round;stroke-linejoin:round;stroke-miterlimit:10;" width="7.874" height="5.074"/>
			
				<line style="fill:none;stroke:#263238;stroke-linecap:round;stroke-linejoin:round;stroke-miterlimit:10;" x1="428.148" y1="233.686" x2="431.596" y2="233.686"/>
			
				<line style="fill:#FFFFFF;stroke:#263238;stroke-linecap:round;stroke-linejoin:round;stroke-miterlimit:10;" x1="444.2" y1="232.199" x2="439.47" y2="232.199"/>
		</g>
		<path style="fill:#263238;stroke:#263238;stroke-linecap:round;stroke-linejoin:round;stroke-miterlimit:10;" d="M417.758,233.686
			c1.008,0.097,3.937-6.474,2.799-10.849c-1.137-4.374,9.799-1.05,16.623-1.837s2.362,9.655,6.212,12.133
			c3.849,2.478,2.975-15.195-0.7-15.72c0,0-2.764-5.249-13.412-4.812c-10.648,0.438-12.065,7.174-12.065,7.174
			S411.984,233.133,417.758,233.686z"/>
	</g>
</g>
<g id="Face_2">
	<g>
		<g>
			<g>
				<circle style="fill:#92E3A9;" cx="175.33" cy="85.394" r="30.392"/>
				<circle style="opacity:0.3;fill:#FFFFFF;" cx="175.33" cy="85.394" r="30.392"/>
			</g>
			<g>
				<defs>
					<path id="XMLID_28_" d="M174.951,115.989c2.822,0,5.55-0.393,8.143-1.112l-1.692-9.928l-14.319,0.851l-0.549,8.999
						C169.208,115.568,172.029,115.989,174.951,115.989z"/>
				</defs>
				<use xlink:href="#XMLID_28_"  style="overflow:visible;fill:#FFFFFF;"/>
				<clipPath id="XMLID_00000103244358986187367480000014547460580190824603_">
					<use xlink:href="#XMLID_28_"  style="overflow:visible;"/>
				</clipPath>
				
					<path style="clip-path:url(#XMLID_00000103244358986187367480000014547460580190824603_);fill:#263238;stroke:#263238;stroke-linecap:round;stroke-linejoin:round;stroke-miterlimit:10;" d="
					M164.272,106.291c2.604,4.338,6.431,7.087,10.706,7.087s8.102-2.749,10.706-7.087H164.272z"/>
				
					<use xlink:href="#XMLID_28_"  style="overflow:visible;fill:none;stroke:#263238;stroke-linecap:round;stroke-linejoin:round;stroke-miterlimit:10;"/>
			</g>
			<path style="fill:#263238;stroke:#263238;stroke-linecap:round;stroke-linejoin:round;stroke-miterlimit:10;" d="M189.173,72.591
				c0,0,13.804,28.293,5.249,34.121c-9.099,6.198-30.913,6.513-37.815-0.972c-6.902-7.485,0.059-25.08,2.995-28.774
				c2.935-3.694,7.524-6.319,7.524-6.319l9.474-2.041l9.656,3.499L189.173,72.591z"/>
			<path style="fill:#FFFFFF;stroke:#263238;stroke-linecap:round;stroke-linejoin:round;stroke-miterlimit:10;" d="M192.45,89.007
				c-0.592-0.291-1.258-0.32-1.919-0.142c-0.384-10.939-7.178-19.651-15.505-19.651c-8.327,0-15.122,8.713-15.505,19.651
				c-0.661-0.178-1.327-0.149-1.919,0.142c-1.627,0.8-2.071,3.229-0.992,5.425c0.872,1.774,2.47,2.833,3.91,2.76
				c2.229,7.761,7.881,13.277,14.505,13.277c6.624,0,12.276-5.515,14.505-13.277c1.441,0.073,3.038-0.986,3.91-2.76
				C194.522,92.236,194.078,89.807,192.45,89.007z"/>
			<polyline style="fill:none;stroke:#263238;stroke-linecap:round;stroke-linejoin:round;stroke-miterlimit:10;" points="
				172.9,91.188 170.632,97.001 173.751,98.702 			"/>
			<path style="fill:none;stroke:#263238;stroke-linecap:round;stroke-linejoin:round;stroke-miterlimit:10;" d="M170.632,102.813
				c0,0,4.111,1.985,8.365,0"/>
			<path style="fill:none;stroke:#263238;stroke-linecap:round;stroke-linejoin:round;stroke-miterlimit:10;" d="M163.99,85.872
				c0,0,2.622-2.903,6.285-0.783"/>
			<path style="fill:none;stroke:#263238;stroke-linecap:round;stroke-linejoin:round;stroke-miterlimit:10;" d="M182.855,85.978
				c0,0-2.524-2.989-6.255-0.991"/>
			<path style="fill:#263238;stroke:#263238;stroke-linecap:round;stroke-linejoin:round;stroke-miterlimit:10;" d="M167.125,92.811
				L167.125,92.811c-2.416,0-4.374-1.958-4.374-4.374v-1.264h7.485c0.698,0,1.264,0.566,1.264,1.264l0,0
				C171.5,90.853,169.541,92.811,167.125,92.811z"/>
			<path style="fill:#263238;stroke:#263238;stroke-linecap:round;stroke-linejoin:round;stroke-miterlimit:10;" d="M179.705,92.811
				L179.705,92.811c-2.416,0-4.374-1.958-4.374-4.374l0,0c0-0.698,0.566-1.264,1.264-1.264h7.485v1.264
				C184.079,90.853,182.121,92.811,179.705,92.811z"/>
			
				<line style="fill:none;stroke:#263238;stroke-linecap:round;stroke-linejoin:round;stroke-miterlimit:10;" x1="171.5" y1="88.826" x2="175.33" y2="88.826"/>
			
				<line style="fill:#FFFFFF;stroke:#263238;stroke-linecap:round;stroke-linejoin:round;stroke-miterlimit:10;" x1="162.751" y1="87.173" x2="159.602" y2="87.173"/>
			
				<line style="fill:#FFFFFF;stroke:#263238;stroke-linecap:round;stroke-linejoin:round;stroke-miterlimit:10;" x1="190.417" y1="87.173" x2="184.584" y2="87.173"/>
			<path style="fill:#263238;stroke:#263238;stroke-linecap:round;stroke-linejoin:round;stroke-miterlimit:10;" d="M170.275,74.536
				c0,0,7.155,9.157,13.804,9.779c6.648,0.622,2.295,13.959,0,14.387c0,0,5.965,0.215,6.452-9.837c0,0,8.298-13.6-5.762-19.384
				c-10.854-4.465-16.303-0.267-16.303-0.267S154.67,72.64,158.26,86.687c0,0,2.43,7.378,5.055,8.258c0,0-3.888-8.355-0.097-12.827
				C167.009,77.646,169.945,77.841,170.275,74.536z"/>
		</g>
		<g>
			<path style="fill:none;stroke:#263238;stroke-linecap:round;stroke-linejoin:round;stroke-miterlimit:10;" d="M223.818,64.527
				c2.205,0,4.058,0,4.949,0c4.185,0,7.577-3.392,7.577-7.578c0-4.185-3.393-7.577-7.577-7.577c-0.142,0-0.281,0.014-0.421,0.021
				c-1.151-3.627-4.543-6.257-8.551-6.257c-4.008,0-7.4,2.629-8.551,6.257c-0.14-0.008-0.279-0.021-0.421-0.021
				c-4.185,0-7.577,3.392-7.577,7.577c0,4.185,3.393,7.578,7.577,7.578c0.461,0,1.181,0,2.075,0"/>
			<polygon style="fill:#92E3A9;stroke:#263238;stroke-linecap:round;stroke-linejoin:round;stroke-miterlimit:10;" points="
				227.684,62.245 218.4,52.961 209.116,62.245 214.662,62.245 214.662,69.751 222.138,69.751 222.138,62.245 			"/>
		</g>
	</g>
</g>
<g id="Face_1_1_">
	<g>
		<g>
			<circle style="fill:#92E3A9;" cx="176.606" cy="377.819" r="30.392"/>
			<circle style="opacity:0.2;fill:#FFFFFF;" cx="176.606" cy="377.819" r="30.392"/>
		</g>
		<g>
			<defs>
				<path id="XMLID_29_" d="M176.606,408.212c2.822,0,5.55-0.393,8.143-1.112l-1.692-9.928l-14.319,0.85l-0.549,8.999
					C170.863,407.791,173.685,408.212,176.606,408.212z"/>
			</defs>
			<use xlink:href="#XMLID_29_"  style="overflow:visible;fill:#FFFFFF;"/>
			<clipPath id="XMLID_00000021092513869388107960000015290060575697602734_">
				<use xlink:href="#XMLID_29_"  style="overflow:visible;"/>
			</clipPath>
			
				<path style="clip-path:url(#XMLID_00000021092513869388107960000015290060575697602734_);fill:#263238;stroke:#263238;stroke-linecap:round;stroke-linejoin:round;stroke-miterlimit:10;" d="
				M165.927,398.514c2.604,4.338,6.431,7.087,10.706,7.087c4.275,0,8.102-2.749,10.706-7.087H165.927z"/>
			
				<use xlink:href="#XMLID_29_"  style="overflow:visible;fill:none;stroke:#263238;stroke-linecap:round;stroke-linejoin:round;stroke-miterlimit:10;"/>
		</g>
		<path style="fill:#FFFFFF;stroke:#263238;stroke-linecap:round;stroke-linejoin:round;stroke-miterlimit:10;" d="M194.03,381.806
			c-0.591-0.291-1.258-0.32-1.918-0.142c-0.384-10.939-7.178-19.651-15.505-19.651c-8.327,0-15.122,8.712-15.505,19.651
			c-0.661-0.178-1.327-0.149-1.919,0.142c-1.627,0.8-2.071,3.229-0.992,5.425c0.872,1.774,2.469,2.833,3.91,2.76
			c2.229,7.761,7.881,13.277,14.505,13.277c6.624,0,12.276-5.515,14.505-13.277c1.441,0.073,3.038-0.986,3.91-2.76
			C196.102,385.035,195.658,382.607,194.03,381.806z"/>
		<polyline style="fill:none;stroke:#263238;stroke-linecap:round;stroke-linejoin:round;stroke-miterlimit:10;" points="
			176.28,383.987 178.549,389.8 175.43,391.501 		"/>
		<path style="fill:none;stroke:#263238;stroke-linecap:round;stroke-linejoin:round;stroke-miterlimit:10;" d="M172.212,395.612
			c0,0,4.111,1.985,8.364,0"/>
		<path style="fill:#263238;" d="M171.432,382.641c0,0.822-0.317,1.489-0.709,1.489c-0.392,0-0.709-0.667-0.709-1.489
			c0-0.822,0.317-1.489,0.709-1.489C171.114,381.152,171.432,381.818,171.432,382.641z"/>
		<path style="fill:#263238;" d="M183.199,382.641c0,0.822-0.318,1.489-0.709,1.489c-0.391,0-0.709-0.667-0.709-1.489
			c0-0.822,0.317-1.489,0.709-1.489C182.881,381.152,183.199,381.818,183.199,382.641z"/>
		<path style="fill:none;stroke:#263238;stroke-linecap:round;stroke-linejoin:round;stroke-miterlimit:10;" d="M166.998,379.542
			c0,0,1.701-3.522,5.813-2.516"/>
		<path style="fill:none;stroke:#263238;stroke-linecap:round;stroke-linejoin:round;stroke-miterlimit:10;" d="M185.358,379.542
			c0,0-1.701-3.522-5.813-2.516"/>
		<path style="fill:#263238;stroke:#263238;stroke-linecap:round;stroke-linejoin:round;stroke-miterlimit:10;" d="M159.594,379.542
			c0,0,2.41,4.871,3.686,4.445c1.276-0.425-0.567-9.439,2.552-11.737s13.893,0.679,18.359-3.149c0,0-0.071,5.28,2.906,7.744
			c2.977,2.464,1.843,7.426,3.261,7.142c1.418-0.284,1.844-3.882,2.127-5.396c0.851-4.561,2.126-17.429-5.529-17.429
			c0,0-1.843-2.694-12.972-2.41c-11.129,0.284-11.412-2.835-11.412-2.835S154.065,367.724,159.594,379.542z"/>
	</g>
</g>
<g id="Character_3_1_">
	<g>
		<g>
			<g>
				<path style="fill:#92E3A9;" d="M378.347,163.571l53.982,6.71c12.717,1.581,24.155-7.611,24.909-20.018l4.613-75.842
					c0.754-12.391-9.464-22.815-22.269-22.717l-59.765,0.457c-12.298,0.094-22.158,9.888-21.955,21.808l1.171,68.675
					C359.214,153.303,367.44,162.215,378.347,163.571z"/>
				<path style="opacity:0.3;fill:#FFFFFF;" d="M378.347,163.571l53.982,6.71c12.717,1.581,24.155-7.611,24.909-20.018l4.613-75.842
					c0.754-12.391-9.464-22.815-22.269-22.717l-59.765,0.457c-12.298,0.094-22.158,9.888-21.955,21.808l1.171,68.675
					C359.214,153.303,367.44,162.215,378.347,163.571z"/>
			</g>
			<g>
				<g>
					<path style="fill:none;stroke:#263238;stroke-miterlimit:10;" d="M453.436,135.421v3.884h-55.841v-3.884
						c0-3.99,3.231-7.221,7.209-7.221h41.411C450.205,128.2,453.436,131.432,453.436,135.421z"/>
					<polyline style="fill:none;stroke:#263238;stroke-miterlimit:10;" points="454.822,158.832 454.822,139.31 396.194,139.31 
						396.194,165.791 					"/>
					<g>
						<g>
							<g>
								<path style="fill:#FFFFFF;stroke:#263238;stroke-linecap:round;stroke-linejoin:round;stroke-miterlimit:10;" d="
									M386.349,93.065c0,0,2.302-6.133,8.08-5.159c5.836,0.983,1.362,5.811-1.416,6.242
									C393.013,94.148,392.591,92.464,386.349,93.065z"/>
								<path style="fill:#FFFFFF;stroke:#263238;stroke-linecap:round;stroke-linejoin:round;stroke-miterlimit:10;" d="
									M382.521,96.545c-0.763,0.763-2.591,0.828-1.361-0.824c1.361-1.828,2.895-2.44,3.942-2.908
									c2.741-1.223,3.809-0.978,6.289-1.521c2.48-0.543,2.943,0.465,3.802,0.935c2.043,1.12,2.534,1.314,3.051,2.441
									c0.516,1.126,1.079,2.592-0.516,2.592c-1.455,0-1.549-2.404-2.957-2.311c-1.408,0.094-2.112,2.311-3.098,2.311
									c-0.986,0,0.469,0-0.375,0c-0.845,0-0.89-0.702-0.373-1.807c0.517-1.105,1.077-2.099,1.077-2.099s-1.225,0.557-1.901,1.995
									c-0.676,1.437-0.801,2.043-2.043,2.043c-1.242,0-1.156-0.924,0.079-2.962c0,0-1.114,0.612-1.722,1.762
									c-0.608,1.151-0.926,1.068-1.724,1.068c-1.044,0-0.973-1.724,0.881-2.85C385.572,94.41,385.161,93.905,382.521,96.545z"/>
								<path style="fill:#FFFFFF;stroke:#263238;stroke-linecap:round;stroke-linejoin:round;stroke-miterlimit:10;" d="
									M389.762,92.427c0,0-0.729-0.035-1.186,1.197"/>
							</g>
						</g>
						<g>
							<polygon style="fill:#FFFFFF;stroke:#263238;stroke-linecap:round;stroke-linejoin:round;stroke-miterlimit:10;" points="
								404.358,172.302 408.359,179.291 411.778,179.291 413.276,177.174 409.585,168.173 							"/>
							<path style="fill:#263238;stroke:#263238;stroke-linecap:round;stroke-linejoin:round;stroke-miterlimit:10;" d="
								M413.843,111.783l-4.129,1.549c0,0-29.421,8.516-30.711,15.743c-1.29,7.226,25.916,44.905,25.916,44.905
								s3.283,0.478,5.827-3.871c0,0-9.596-28.905-13.96-34.582c0,0,32.283-5.678,33.832-9.807
								c1.548-4.129-2.749-14.357-2.749-14.357L413.843,111.783z"/>
							<g>
								<defs>
									<path id="XMLID_19_" d="M406.181,179.148c0.137-0.263,0.405-0.421,0.701-0.441c3.509-0.239,5.427-2.46,6.172-3.564
										c0.245-0.364,0.735-0.472,1.12-0.263c1.682,0.911,2.921,2.424,3.722,3.663c0.703,1.089,0.399,2.542-0.661,3.288
										l-12.759,8.582c-0.681,0.454-1.482,0.697-2.302,0.697h-3.136c-0.767,0-1.309-0.763-1.043-1.482
										c0.244-0.66,0.73-1.343,1.693-1.584C401.752,187.529,405.758,179.96,406.181,179.148z"/>
								</defs>
								<use xlink:href="#XMLID_19_"  style="overflow:visible;fill:#263238;"/>
								<clipPath id="XMLID_00000066489932639444659810000009133510669603973805_">
									<use xlink:href="#XMLID_19_"  style="overflow:visible;"/>
								</clipPath>
								
									<path style="clip-path:url(#XMLID_00000066489932639444659810000009133510669603973805_);fill:#BFBFBF;stroke:#263238;stroke-linecap:round;stroke-linejoin:round;stroke-miterlimit:10;" d="
									M406.181,179.148c0.137-0.263,0.405-0.421,0.701-0.441c3.509-0.239,5.427-2.46,6.172-3.564
									c0.245-0.364,0.735-0.472,1.12-0.263c1.682,0.911,2.921,2.424,3.722,3.663c0.703,1.089,0.399,2.542-0.661,3.288
									l-12.759,8.582c-0.681,0.454-1.482,0.697-2.302,0.697h-3.136c-0.767,0-1.309-0.763-1.043-1.482
									c0.244-0.66,0.73-1.343,1.693-1.584C401.752,187.529,405.758,179.96,406.181,179.148z"/>
								
									<use xlink:href="#XMLID_19_"  style="overflow:visible;fill:none;stroke:#263238;stroke-linecap:round;stroke-linejoin:round;stroke-miterlimit:10;"/>
							</g>
							<path style="fill:none;stroke:#7F7F7F;stroke-linecap:round;stroke-linejoin:round;" d="M390.487,132.042
								c0,0,1.829,0.129,4.915,2.452"/>
						</g>
						<g>
							<polygon style="fill:#FFFFFF;stroke:#263238;stroke-linecap:round;stroke-linejoin:round;stroke-miterlimit:10;" points="
								402.616,173.995 401.261,184.174 407.307,185.206 410.423,175.206 							"/>
							<path style="fill:#263238;stroke:#263238;stroke-linecap:round;stroke-linejoin:round;stroke-miterlimit:10;" d="
								M423.522,114.499c0.37,1.406-0.274,5.974-1.561,6.65c-5.043,2.649-13.256,9.692-15.087,17.216
								c-2.323,9.549-4.904,38.711-4.904,38.711s2.065,3.355,7.484,1.807c0,0,10.065-24.259,10.839-36.131
								c0,0,8.417-5.683,16.529-8.741c4.877-1.839,7.535-4.902,8.504-7.518c2.581-6.968-2.581-18.323-2.581-18.323l-19.098,3.871
								L423.522,114.499z"/>
							<path style="fill:none;stroke:#7F7F7F;stroke-linecap:round;stroke-linejoin:round;" d="M415.599,139.656
								c0,0,2.373,0.258,3.534,1.677"/>
							<g>
								<defs>
									<path id="XMLID_18_" d="M400.961,181.665c-0.228-0.19-0.53-0.262-0.811-0.167c-1.734,0.587-8.097,2.641-11.78,2.468
										c-2.682-0.126-3.517,1.395-3.766,2.554c-0.144,0.67,0.309,1.322,0.987,1.424l20.684,3.137
										c1.282,0.195,2.507-0.644,2.752-1.917c0.28-1.454,0.432-3.413-0.16-5.24c-0.134-0.415-0.56-0.657-0.986-0.565
										C406.581,183.643,403.659,183.919,400.961,181.665z"/>
								</defs>
								<use xlink:href="#XMLID_18_"  style="overflow:visible;fill:#263238;"/>
								<clipPath id="XMLID_00000102515216124613236550000001757550750109956526_">
									<use xlink:href="#XMLID_18_"  style="overflow:visible;"/>
								</clipPath>
								
									<path style="clip-path:url(#XMLID_00000102515216124613236550000001757550750109956526_);fill:#BFBFBF;stroke:#263238;stroke-linecap:round;stroke-linejoin:round;stroke-miterlimit:10;" d="
									M400.961,181.665c-0.228-0.19-0.53-0.262-0.811-0.167c-1.734,0.587-8.097,2.641-11.78,2.468
									c-2.682-0.126-3.517,1.395-3.766,2.554c-0.144,0.67,0.309,1.322,0.987,1.424l20.684,3.137
									c1.282,0.195,2.507-0.644,2.752-1.917c0.28-1.454,0.432-3.413-0.16-5.24c-0.134-0.415-0.56-0.657-0.986-0.565
									C406.581,183.643,403.659,183.919,400.961,181.665z"/>
								
									<use xlink:href="#XMLID_18_"  style="overflow:visible;fill:none;stroke:#263238;stroke-linecap:round;stroke-linejoin:round;stroke-miterlimit:10;"/>
							</g>
						</g>
						<path style="fill:none;stroke:#7F7F7F;stroke-linecap:round;stroke-linejoin:round;" d="M410.765,131.215
							c3.456-5.089,8.886-8.798,14.884-10.167"/>
						<path style="fill:#92E3A9;stroke:#263238;stroke-linecap:round;stroke-linejoin:round;stroke-miterlimit:10;" d="
							M445.588,112.302c-15.748,4.384-35.88,1.034-35.88,1.034c0.352-2.368,0.279-5.263-0.228-8.779h18.488
							c1.385,0,2.647-0.558,3.557-1.468c0.92-0.91,1.489-2.171,1.489-3.557H408.55c-0.662-3.03-1.561-6.421-2.709-10.206
							c-1.003-3.319-1.613-7.135-1.975-10.867l-6.297,11.384c0,0-0.796,2.771-4.829,2.843c-4.043,0.062-3.567-1.375-0.083-12.749
							c2.471-8.055,7.434-14.703,10.123-17.899c0.207-0.238,0.455-0.383,0.724-0.434c0.01-0.093,0.01-0.145,0.01-0.145
							c25.809-6.711,36.914,1.551,36.914,1.551C433.201,84.043,445.588,112.302,445.588,112.302z"/>
						<g>
							<defs>
								<path id="XMLID_17_" d="M409.52,94.525c0,0-3.418,2.068-2.431,2.549c1.657,0.806,5.27-1.742,5.27-1.742
									s3.936-0.258,1.935-1.161c-2-0.903-2-0.903-2-0.903L409.52,94.525z"/>
							</defs>
							<use xlink:href="#XMLID_17_"  style="overflow:visible;fill:#FFFFFF;"/>
							<clipPath id="XMLID_00000159447021316575327760000005778389522445041281_">
								<use xlink:href="#XMLID_17_"  style="overflow:visible;"/>
							</clipPath>
							<path style="opacity:0.2;clip-path:url(#XMLID_00000159447021316575327760000005778389522445041281_);" d="M409.52,94.525
								c0,0-3.418,2.068-2.431,2.549c1.657,0.806,5.27-1.742,5.27-1.742s3.936-0.258,1.935-1.161c-2-0.903-2-0.903-2-0.903
								L409.52,94.525z"/>
							
								<use xlink:href="#XMLID_17_"  style="overflow:visible;fill:none;stroke:#263238;stroke-linecap:round;stroke-linejoin:round;stroke-miterlimit:10;"/>
						</g>
						<g>
							<g>
								<defs>
									<path id="XMLID_16_" d="M413.956,63.522c0,0,1.984,9.099,4.5,9.099c2.516,0,7.71-13.693,7.71-13.693l-3.452-2.372
										L413.956,63.522z"/>
								</defs>
								<use xlink:href="#XMLID_16_"  style="overflow:visible;fill:#FFFFFF;"/>
								<clipPath id="XMLID_00000010306856060968968670000010030284026737531295_">
									<use xlink:href="#XMLID_16_"  style="overflow:visible;"/>
								</clipPath>
								
									<path style="clip-path:url(#XMLID_00000010306856060968968670000010030284026737531295_);fill:#263238;stroke:#263238;stroke-linecap:round;stroke-linejoin:round;stroke-miterlimit:10;" d="
									M408.431,55.75c0.293,1.276,0.654,2.448,1.096,3.289c1.712,3.263,4.135,8.553,7.339,7.725
									c2.844-0.735,7.059-4.971,7.515-7.559c0.359-2.041,0.438-3.754,0.455-4.389L408.431,55.75z"/>
								
									<use xlink:href="#XMLID_16_"  style="overflow:visible;fill:none;stroke:#263238;stroke-linecap:round;stroke-linejoin:round;stroke-miterlimit:10;"/>
							</g>
							<path style="fill:#263238;stroke:#263238;stroke-linecap:round;stroke-linejoin:round;stroke-miterlimit:10;" d="
								M409.262,36.812c0,0-7.161,1.96-5.892,13.162c1.319,11.64,2.979,7.113,2.258,9.508c-0.721,2.395,10.578,2.589,10.578,2.589
								s9.896-1.226,12.896,0.936c3,2.162,4.742-2.968,3.581-6.452c-1.161-3.484-5.321-9.886-6.516-15.097
								C424.456,34.006,413.714,34.199,409.262,36.812z"/>
							<path style="fill:#FFFFFF;stroke:#263238;stroke-linecap:round;stroke-linejoin:round;stroke-miterlimit:10;" d="
								M407.089,46.232c0,0,0.044,8.258,1.657,11.613c1.613,3.355,3.855,8.775,7.291,8.129c3.049-0.573,7.758-4.562,8.396-7.12
								c0.637-2.558,0.766-4.623,0.766-4.623c0.375-0.161,1.532,0.726,2.065-2.194c0.193-1.058,1.21-4.194-1.097-4.645
								c-2.482-0.486-2.462,3.097-2.462,3.097l-3.667-9.291l-8.452-1.419l-2.839,1.291L407.089,46.232z"/>
							<path style="fill:none;stroke:#263238;stroke-linecap:round;stroke-linejoin:round;stroke-miterlimit:10;" d="M412.43,54.275
								c0,0.677-0.437,2.251-0.7,3.136c-0.105,0.353,0.097,0.72,0.45,0.824l1.727,0.511"/>
							<path style="fill:none;stroke:#263238;stroke-linecap:round;stroke-linejoin:round;stroke-miterlimit:10;" d="
								M415.262,60.493c0,0,3.194-0.097,4.5-1.887"/>
							<path style="fill:none;stroke:#263238;stroke-linecap:round;stroke-linejoin:round;stroke-miterlimit:10;" d="
								M408.612,51.704c0,0,0.553-1.203,1.811-0.671"/>
							<path style="fill:none;stroke:#263238;stroke-linecap:round;stroke-linejoin:round;stroke-miterlimit:10;" d="
								M414.198,50.452c0,0,1.597-1.143,3.726,0.445"/>
							<path style="fill:#263238;" d="M410.349,54.215c0.066,0.45-0.063,0.841-0.288,0.874c-0.225,0.033-0.46-0.305-0.526-0.755
								c-0.066-0.45,0.063-0.84,0.288-0.873C410.047,53.428,410.283,53.766,410.349,54.215z"/>
							<path style="fill:#263238;" d="M416.093,53.876c0.066,0.45-0.063,0.84-0.288,0.874c-0.225,0.033-0.46-0.305-0.526-0.755
								c-0.066-0.45,0.063-0.841,0.288-0.874C415.792,53.089,416.027,53.427,416.093,53.876z"/>
							<path style="fill:#263238;stroke:#263238;stroke-linecap:round;stroke-linejoin:round;stroke-miterlimit:10;" d="
								M406.552,41.2c0,0-2.774,7.291,1.29,7.097c4.065-0.194,7.508-2.797,11.549-0.645c4.041,2.152-0.645-4-0.645-4
								s4.129,4.387,4,7.42c-0.129,3.032,1.484-1.871,1.226-3.484c-0.258-1.613-2.968-9.549-2.968-9.549l-4.387-0.968l-7.5,0.774
								L406.552,41.2z"/>
							<path style="fill:#263238;stroke:#263238;stroke-linecap:round;stroke-linejoin:round;stroke-miterlimit:10;" d="
								M424.696,57.687c-0.264,1.169-4.498,5.353-1.691,6.224c2.807,0.871,8.896-0.03,9.819-3.112c0.923-3.082-1.98-4.75-1.98-4.75
								S425.046,56.135,424.696,57.687z"/>
						</g>
						<g>
							<g>
								<path style="fill:#FFFFFF;stroke:#263238;stroke-linecap:round;stroke-linejoin:round;stroke-miterlimit:10;" d="
									M425.327,91.714l-9.291,0.452c0,0-7.808-1.901-10.452-1.742c-1.544,0.093-4.591,0.978-5.936,1.742
									c-0.784,0.445-1.51,1.625-1.871,2.452c-0.146,0.333,0,1.455,0,1.455c0,0.531,0.408,0.973,0.938,1.011
									c1.773,0.128,4.73,0.284,5.429-0.595c0,0-0.58,0.695,0.462,0.695c1.042,0,2.483-1.663,2.483-1.663l3.141-0.129
									c0,0,1.355,1.682,5.42,1.792c0.5,0.014,1.936-0.512,1.936-0.512l7.549,0.982l1.032-1.295v-4.387L425.327,91.714z"/>
								<path style="fill:none;stroke:#263238;stroke-linecap:round;stroke-linejoin:round;stroke-miterlimit:10;" d="
									M399.197,96.363c0,0,0.87-3.122,1.871-3.742c0.595-0.369,2.71-1.161,2.71-1.161"/>
								<path style="fill:none;stroke:#263238;stroke-linecap:round;stroke-linejoin:round;stroke-miterlimit:10;" d="
									M401.358,96.363c0,0,0.278-1.695,0.645-2.127c0.619-0.729,2.056-1.826,2.981-2.067c0.509-0.133,2.105,0,2.105,0"/>
								<path style="fill:none;stroke:#263238;stroke-linecap:round;stroke-linejoin:round;stroke-miterlimit:10;" d="
									M404.354,95.783c0,0,0.278-1.337,0.63-1.613c0.441-0.346,1.553-0.676,2.105-0.774c0.408-0.073,1.657,0,1.657,0"/>
							</g>
							<path style="fill:#92E3A9;stroke:#263238;stroke-linecap:round;stroke-linejoin:round;stroke-miterlimit:10;" d="
								M423.704,97.783c0,0,17.882,2.323,21.753,2.516c3.871,0.193,2.903-18.775,2.516-26.904
								c-0.387-8.129-8.337-10.882-8.337-10.882c-5.613,11.678,0.789,26.947,0.789,26.947l-15.872,1.936
								C424.553,91.396,425.758,95.46,423.704,97.783z"/>
						</g>
						<g>
							<path style="fill:none;stroke:#263238;stroke-linecap:round;stroke-linejoin:round;stroke-miterlimit:10;" d="
								M432.856,70.098c0.215,3.95,1.722,7.818,4.235,10.873"/>
							<path style="fill:none;stroke:#263238;stroke-linecap:round;stroke-linejoin:round;stroke-miterlimit:10;" d="M405.41,68.178
								c-0.75,3.704-1.156,7.477-1.213,11.255"/>
						</g>
					</g>
					<g>
						<g>
							<g>
								<defs>
									<path id="XMLID_15_" d="M393.654,73.588h-4.005l5.513,25.938h4.006c1.179,0,1.932-0.956,1.681-2.135l-4.606-21.668
										C395.992,74.544,394.833,73.588,393.654,73.588z"/>
								</defs>
								<use xlink:href="#XMLID_15_"  style="overflow:visible;fill:#263238;"/>
								<clipPath id="XMLID_00000025404076839295549110000012321086067625552812_">
									<use xlink:href="#XMLID_15_"  style="overflow:visible;"/>
								</clipPath>
								<path style="opacity:0.2;clip-path:url(#XMLID_00000025404076839295549110000012321086067625552812_);fill:#FFFFFF;" d="
									M393.654,73.588h-4.005l5.513,25.938h4.006c1.179,0,1.932-0.956,1.681-2.135l-4.606-21.668
									C395.992,74.544,394.833,73.588,393.654,73.588z"/>
								
									<use xlink:href="#XMLID_15_"  style="overflow:visible;fill:none;stroke:#263238;stroke-linecap:round;stroke-linejoin:round;stroke-miterlimit:10;"/>
							</g>
							<g>
								<defs>
									<path id="XMLID_9_" d="M420.715,99.526h-18.692c-0.649,0-1.175-0.526-1.175-1.175v-0.96h21.042v0.96
										C421.89,99,421.364,99.526,420.715,99.526z"/>
								</defs>
								<use xlink:href="#XMLID_9_"  style="overflow:visible;fill:#263238;"/>
								<clipPath id="XMLID_00000062874778056672053660000006536731639769168518_">
									<use xlink:href="#XMLID_9_"  style="overflow:visible;"/>
								</clipPath>
								<path style="opacity:0.2;clip-path:url(#XMLID_00000062874778056672053660000006536731639769168518_);fill:#FFFFFF;" d="
									M420.715,99.526h-18.692c-0.649,0-1.175-0.526-1.175-1.175v-0.96h21.042v0.96C421.89,99,421.364,99.526,420.715,99.526z"/>
								
									<use xlink:href="#XMLID_9_"  style="overflow:visible;fill:none;stroke:#263238;stroke-linecap:round;stroke-linejoin:round;stroke-miterlimit:10;"/>
							</g>
							<g>
								<defs>
									<path id="XMLID_8_" d="M397.618,99.526h-32.517c-1.179,0-2.338-0.956-2.589-2.135l-4.606-21.668
										c-0.251-1.179,0.502-2.135,1.681-2.135h32.517c1.179,0,2.338,0.956,2.589,2.135l4.606,21.668
										C399.55,98.57,398.797,99.526,397.618,99.526z"/>
								</defs>
								<use xlink:href="#XMLID_8_"  style="overflow:visible;fill:#263238;"/>
								<clipPath id="XMLID_00000110457525953238064850000002469778233691358383_">
									<use xlink:href="#XMLID_8_"  style="overflow:visible;"/>
								</clipPath>
								
									<path style="clip-path:url(#XMLID_00000110457525953238064850000002469778233691358383_);fill:#BFBFBF;stroke:#263238;stroke-linecap:round;stroke-linejoin:round;stroke-miterlimit:10;" d="
									M397.618,99.526h-32.517c-1.179,0-2.338-0.956-2.589-2.135l-4.606-21.668c-0.251-1.179,0.502-2.135,1.681-2.135h32.517
									c1.179,0,2.338,0.956,2.589,2.135l4.606,21.668C399.55,98.57,398.797,99.526,397.618,99.526z"/>
								
									<use xlink:href="#XMLID_8_"  style="overflow:visible;fill:none;stroke:#263238;stroke-linecap:round;stroke-linejoin:round;stroke-miterlimit:10;"/>
							</g>
						</g>
					</g>
				</g>
				<g>
					<g>
						<defs>
							<path id="XMLID_7_" d="M335.908,65.146c-3.264,0-5.91-2.646-5.91-5.91c0-3.264,2.646-5.91,5.91-5.91h44.172
								c3.264,0,5.91,2.646,5.91,5.91c0,3.264-2.646,5.91-5.91,5.91H335.908z"/>
						</defs>
						<use xlink:href="#XMLID_7_"  style="overflow:visible;fill:#FFFFFF;"/>
						<clipPath id="XMLID_00000107566667905628735970000003307423848750523327_">
							<use xlink:href="#XMLID_7_"  style="overflow:visible;"/>
						</clipPath>
						<use xlink:href="#XMLID_7_"  style="overflow:visible;fill:none;stroke:#263238;stroke-miterlimit:10;"/>
					</g>
					<path style="fill:#92E3A9;" d="M362.326,55.343h-26.418c-2.15,0-3.892,1.743-3.892,3.892c0,2.15,1.743,3.892,3.892,3.892
						h24.622L362.326,55.343z"/>
				</g>
			</g>
		</g>
		<path style="fill:none;stroke:#263238;stroke-linecap:round;stroke-linejoin:round;stroke-miterlimit:10;" d="M361.607,152.328
			V99.522h7.352v0.01h64.056c0,1.386-0.569,2.647-1.489,3.557c-0.91,0.91-2.172,1.468-3.557,1.468h-59.011v55.629"/>
	</g>
</g>
<g id="Character_2">
	<g>
		<g>
			<path style="fill:#92E3A9;stroke:#263238;stroke-linecap:round;stroke-linejoin:round;stroke-miterlimit:10;" d="M377.09,335.944
				l-32.481-0.015c-1.513-0.001-2.754-1.2-2.805-2.713l-2.235-59.917c-0.057-1.666,1.341-3.014,3.004-2.897l38.018,2.678
				c1.527,0.108,2.687,1.419,2.607,2.948l-3.302,57.254C379.818,334.774,378.585,335.944,377.09,335.944z"/>
			<g>
				<path style="fill:#FFFFFF;stroke:#263238;stroke-linecap:round;stroke-linejoin:round;stroke-miterlimit:10;" d="
					M354.052,300.185c0.098-0.624,0.532-1.851,0.48-2.48c-0.045-0.542-0.302-1.741-0.758-2.038
					c-0.595-0.387-2.835,0.174-2.835,0.174s0.561-1.853,0.177-2.275c-0.346-0.38-1.588-0.242-2.057-0.032
					c-0.772,0.345-1.699,1.887-2.215,2.558c-0.629,0.818-1.733,2.564-2.32,3.412c-0.288,0.415-1.164,1.652-1.164,1.652l-7.227,2.584
					l0.391,7.321l8.142-4.926c0,0,7.317-0.008,8.86-1.65C354.267,303.697,353.883,301.255,354.052,300.185z"/>
				<path style="fill:#92E3A9;stroke:#263238;stroke-linecap:round;stroke-linejoin:round;stroke-miterlimit:10;" d="
					M342.285,285.356c-0.41,5.805-1.275,11.889-3.045,15.39h3.035c0,0-2.719,4.87-0.995,9.472c0,0-8.259,5.554-10.098,2.01
					c-1.838-3.544,0.286-17.898,2.18-24.801c1.893-6.903,2.471-17.499,9.21-17.024"/>
				<path style="fill:none;stroke:#263238;stroke-linecap:round;stroke-linejoin:round;stroke-miterlimit:10;" d="M338.028,301.232
					c0,0-1.753,0.511-3.36,2.703"/>
				<g>
					<path style="fill:#FFFFFF;stroke:#263238;stroke-linecap:round;stroke-linejoin:round;stroke-miterlimit:10;" d="
						M354.129,282.391l1.361-0.185c0.935-0.127,1.795,0.527,1.923,1.461l1.531,11.237c0.127,0.934-0.527,1.795-1.462,1.922
						l-1.361,0.185L354.129,282.391z"/>
					<g>
						<defs>
							<path id="XMLID_4_" d="M351.806,297.599l4.497-0.613c1.066-0.145,1.812-1.127,1.667-2.193l-1.466-10.76
								c-0.145-1.066-1.127-1.812-2.193-1.667l-4.497,0.613c-1.066,0.145-1.812,1.127-1.667,2.193l1.466,10.761
								C349.758,296.998,350.74,297.744,351.806,297.599z"/>
						</defs>
						<use xlink:href="#XMLID_4_"  style="overflow:visible;fill:#BFBFBF;"/>
						<clipPath id="XMLID_00000163755149997128000810000010213273587801553549_">
							<use xlink:href="#XMLID_4_"  style="overflow:visible;"/>
						</clipPath>
						
							<use xlink:href="#XMLID_4_"  style="overflow:visible;fill:none;stroke:#263238;stroke-linecap:round;stroke-linejoin:round;stroke-miterlimit:10;"/>
					</g>
					<path style="fill:#FFFFFF;stroke:#263238;stroke-linecap:round;stroke-linejoin:round;stroke-miterlimit:10;" d="
						M349.189,284.822c0.046,0.34,0.359,0.578,0.699,0.531c0.34-0.046,0.578-0.359,0.531-0.699c-0.046-0.34-0.359-0.578-0.699-0.531
						C349.381,284.169,349.143,284.482,349.189,284.822z"/>
				</g>
				<g>
					<path style="fill:#FFFFFF;stroke:#263238;stroke-linecap:round;stroke-linejoin:round;stroke-miterlimit:10;" d="
						M350.328,295.885c-0.028-0.631-0.323-1.899-0.201-2.518c0.105-0.533,0.494-1.697,0.98-1.94
						c0.635-0.318,2.798,0.489,2.798,0.489s-0.351-1.904,0.078-2.28c0.387-0.339,1.605-0.063,2.048,0.198
						c0.729,0.43,1.478,2.065,1.916,2.789c0.534,0.883,1.437,2.741,1.925,3.65c0.239,0.445,0.972,1.772,0.972,1.772l6.457,2.919
						l-2.978,5.424l-5.332-3.54c0,0-7.27-0.825-8.62-2.629C349.722,299.351,350.376,296.968,350.328,295.885z"/>
					<g>
						<path style="fill:#92E3A9;stroke:#263238;stroke-linecap:round;stroke-linejoin:round;stroke-miterlimit:10;" d="
							M380.023,276.173c0.158-0.719,0.331-1.433,0.521-2.136c0.209-0.773,1.179-1.026,1.728-0.442l0.247,0.263
							c1.321,1.406,2.275,3.113,2.769,4.977c1.766,6.662,5.568,23.426,2.875,35.721c-0.315,1.44-1.612,2.441-3.083,2.349
							c-4.947-0.308-13.606-1.541-23.082-10.924c0,0,2.019-4.692,4.356-6.299l13.08,5.323c0,0-0.934-6.21-0.881-14.145"/>
						<path style="fill:none;stroke:#263238;stroke-linecap:round;stroke-linejoin:round;stroke-miterlimit:10;" d="
							M380.557,305.847c0,0,1.572,0.694,2.249,2.798"/>
					</g>
				</g>
			</g>
			<g>
				<path style="fill:#263238;stroke:#263238;stroke-linecap:round;stroke-linejoin:round;stroke-miterlimit:10;" d="
					M362.933,262.809l8.507-13.652c0,0,4.407-1.824,2.05-4.182c0,0,3.792-6.56-1.128-6.56c0,0-0.634-5.33-5.39-3.177
					c0,0-4.142-4.92-6.909-1.332c0,0-5.683-2.767-7.146,0.717c0,0-4.15,0-3.986,3.075c0,0-2.607,3.485,0.829,3.895
					c0,0-0.914,2.767,3.157,2.767s9.093,4.979,9.093,4.979l1.025,5.12L362.933,262.809z"/>
				<g>
					<defs>
						<path id="XMLID_1_" d="M368.467,272.411c0,0-9.243,5.08-15.975-1.434c0,0,1.699-3.194,2.286-11.148l9.81-1.753
							c0,0-0.503,4.237,0.301,8.111C365.517,269.216,367.285,272.022,368.467,272.411z"/>
					</defs>
					<use xlink:href="#XMLID_1_"  style="overflow:visible;fill:#FFFFFF;"/>
					<clipPath id="XMLID_00000183968543695306131650000017998147574094124685_">
						<use xlink:href="#XMLID_1_"  style="overflow:visible;"/>
					</clipPath>
					
						<path style="clip-path:url(#XMLID_00000183968543695306131650000017998147574094124685_);fill:#263238;stroke:#263238;stroke-linecap:round;stroke-linejoin:round;stroke-miterlimit:10;" d="
						M365.275,258.317l-0.286,1.017c-0.168,0.597-0.44,1.154-0.815,1.648c-1.502,1.979-5.718,6.962-9.819,6.55
						c-3.818-0.383-4.87-6.265-5.159-9.215H365.275z"/>
					
						<use xlink:href="#XMLID_1_"  style="overflow:visible;fill:none;stroke:#263238;stroke-linecap:round;stroke-linejoin:round;stroke-miterlimit:10;"/>
				</g>
				<path style="fill:#FFFFFF;stroke:#263238;stroke-linecap:round;stroke-linejoin:round;stroke-miterlimit:10;" d="
					M350.548,242.921l-1.591,4.939c-0.168,0.521-0.214,1.075-0.135,1.617l0.213,1.458l-0.806,3.256
					c-0.042,0.172-0.071,0.337-0.088,0.513c-0.168,1.71-0.833,10.83,3.988,12.006c4.274,1.043,9.468-3.6,11.349-5.469
					c0.469-0.467,0.839-1.015,1.105-1.621l1.079-2.46c0,0,2.1,0.387,3.095-1.579c0.996-1.966,2.306-3.127,0.375-4.508
					c-1.931-1.381-3.158,1.418-3.158,1.418s0.061-3.524-0.395-4.579c-0.402-0.929-2.051-2.29-2.461-3.215
					c-0.225-0.506-0.401-2.178-0.401-2.178s-6.598,0.177-11.286-1.613L350.548,242.921z"/>
				<path style="fill:#FFFFFF;stroke:#263238;stroke-linecap:round;stroke-linejoin:round;stroke-miterlimit:10;" d="
					M350.548,242.921l-1.591,4.939c-0.168,0.521-0.214,1.075-0.135,1.617l0.213,1.458l-0.806,3.256
					c-0.042,0.172-0.071,0.337-0.088,0.513c-0.168,1.71-0.833,10.83,3.988,12.006c4.274,1.043,9.468-3.6,11.349-5.469
					c0.469-0.467,0.839-1.015,1.105-1.621l1.079-2.46c0,0,2.1,0.387,3.095-1.579c0.996-1.966,2.306-3.127,0.375-4.508
					c-1.931-1.381-3.158,1.418-3.158,1.418s0.061-3.524-0.395-4.579c-0.402-0.929-2.051-2.29-2.461-3.215
					c-0.225-0.506-0.401-2.178-0.401-2.178s-6.598,0.177-11.286-1.613L350.548,242.921z"/>
				<path style="fill:none;stroke:#263238;stroke-linecap:round;stroke-linejoin:round;stroke-miterlimit:10;" d="M353.618,252.68
					l-2.416,3.893c-0.341,0.549-0.042,1.27,0.587,1.417l2.135,0.498"/>
				<path style="fill:none;stroke:#263238;stroke-linecap:round;stroke-linejoin:round;stroke-miterlimit:10;" d="M357.145,260.725
					c-1.489,1.179-3.36,1.344-4.279,0.517"/>
				<path style="fill:#263238;" d="M356.882,254.023c-0.095,0.574-0.394,1.004-0.669,0.958c-0.275-0.045-0.421-0.548-0.326-1.122
					c0.095-0.575,0.394-1.004,0.669-0.958C356.831,252.946,356.977,253.448,356.882,254.023z"/>
				<path style="fill:#263238;" d="M351.488,253.134c-0.095,0.575-0.394,1.004-0.669,0.958c-0.275-0.045-0.421-0.548-0.326-1.122
					c0.095-0.575,0.394-1.004,0.669-0.958C351.437,252.057,351.583,252.559,351.488,253.134z"/>
				<path style="fill:none;stroke:#263238;stroke-linecap:round;stroke-linejoin:round;stroke-miterlimit:10;" d="M349.233,249.645
					c0,0,0.51-1.814,2.468-1.046"/>
				<path style="fill:none;stroke:#263238;stroke-linecap:round;stroke-linejoin:round;stroke-miterlimit:10;" d="M355.723,249.027
					c0,0,2.255,0.032,2.843,1.971"/>
				<path style="fill:#263238;stroke:#263238;stroke-linecap:round;stroke-linejoin:round;stroke-miterlimit:10;" d="
					M364.737,242.429c0,0-5.406,3.945-6.045,1.096c0,0-4.498,1.079-4.803-0.438c0,0-4.497,1.801-4.988,0.407
					c-0.491-1.393,3.59-5.119,3.59-5.119l9.506,1.205L364.737,242.429z"/>
				<g>
					<path style="fill:none;stroke:#7F7F7F;stroke-linecap:round;stroke-linejoin:round;" d="M353.688,237.581
						c-0.544,0.848-0.993,2.035-2.255,3.325"/>
					<path style="fill:none;stroke:#7F7F7F;stroke-linecap:round;stroke-linejoin:round;" d="M356.544,236.293
						c-1.113-0.049-1.77,0.162-2.246,0.562"/>
					<path style="fill:none;stroke:#7F7F7F;stroke-linecap:round;stroke-linejoin:round;" d="M367.55,239.599
						c-2.627-0.252-2.968,2.039-7.071,1.867c-3.836-0.161-2.062-3.128-2.67-4.496"/>
					<path style="fill:none;stroke:#7F7F7F;stroke-linecap:round;stroke-linejoin:round;" d="M369.439,248.409
						c0,0,4.529-6.565,0-8.318"/>
				</g>
			</g>
			<g>
				<g>
					<g>
						<path style="fill:#FFFFFF;stroke:#263238;stroke-linecap:round;stroke-linejoin:round;stroke-miterlimit:10;" d="
							M336.723,455.43c-1.308,0.569-3.238,1.389-4.172,3.872c-0.254,0.676,0.234,1.406,0.956,1.406h14.711
							c0.585,0,1.09-0.421,1.174-1c0.162-1.117,0.214-3.08-0.72-5.44l0.813-9.054h-8.599l-0.651,8.667
							C340.234,453.882,337.602,455.048,336.723,455.43z"/>
						<path style="fill:#BFBFBF;stroke:#263238;stroke-linecap:round;stroke-linejoin:round;stroke-miterlimit:10;" d="
							M346.094,455.339c1.534,2.148,1.153-1.072,2.577-1.07c0.934,2.359,0.882,4.323,0.72,5.44c-0.084,0.579-0.589,1-1.174,1
							h-14.711c-0.723,0-1.211-0.729-0.956-1.406c0.934-2.483,2.864-3.303,4.172-3.872c0.88-0.383,3.512-1.548,3.512-1.548
							S344.561,453.192,346.094,455.339z"/>
						<path style="fill:#FFFFFF;stroke:#263238;stroke-linecap:round;stroke-linejoin:round;stroke-miterlimit:10;" d="
							M349.427,459.404c-0.011,0.104-0.022,0.211-0.036,0.304c-0.084,0.579-0.589,1-1.174,1h-14.711
							c-0.68,0-1.144-0.646-0.985-1.286c0.948-0.006,1.694-0.012,1.694-0.018H349.427z"/>
					</g>
					<path style="fill:#263238;stroke:#263238;stroke-linecap:round;stroke-linejoin:round;stroke-miterlimit:10;" d="
						M342.772,334.672l-3.016,116.037h10.601c0,0,3.278-29.028,3.662-38.756c0.172-4.362,1.062-12.045,1.358-16.4
						c0.535-7.894,1.768-16.683,4.792-31.991c0.489-2.475,3.458-6.742,4.091-9.188c1.234-4.77,1.753-19.684,1.753-19.684
						L342.772,334.672z"/>
					<path style="fill:none;stroke:#7F7F7F;stroke-linecap:round;stroke-linejoin:round;" d="M350.118,403.499
						c0,0-2.416,3.202-5.778,2.772"/>
					<path style="fill:none;stroke:#7F7F7F;stroke-linecap:round;stroke-linejoin:round;" d="M341.51,400.453
						c0,0,3.83,2.277,9.528,0"/>
				</g>
				<g>
					<g>
						<path style="fill:#FFFFFF;stroke:#263238;stroke-linecap:round;stroke-linejoin:round;stroke-miterlimit:10;" d="
							M388.404,455.43c1.37,0.596,3.475,1.491,4.276,4.182c0.164,0.55-0.278,1.096-0.851,1.096h-14.712
							c-0.723,0-1.334-0.536-1.416-1.254c-0.131-1.147-0.113-2.996,0.754-5.185l-0.813-9.054h8.599l0.651,8.667
							C384.892,453.882,387.524,455.048,388.404,455.43z"/>
						<path style="fill:#BFBFBF;stroke:#263238;stroke-linecap:round;stroke-linejoin:round;stroke-miterlimit:10;" d="
							M392.681,459.612c0.164,0.55-0.278,1.096-0.851,1.096h-14.712c-0.723,0-1.334-0.536-1.416-1.254
							c-0.131-1.147-0.114-2.996,0.753-5.185c1.381-0.227,0.491,2.76,2.761,0.917c2.27-1.843,5.676-1.304,5.676-1.304
							s2.632,1.166,3.512,1.548C389.775,456.026,391.879,456.921,392.681,459.612z"/>
						<path style="fill:#FFFFFF;stroke:#263238;stroke-linecap:round;stroke-linejoin:round;stroke-miterlimit:10;" d="
							M392.601,459.404c0.024,0.073,0.058,0.132,0.08,0.208c0.164,0.55-0.278,1.096-0.851,1.096h-14.712
							c-0.723,0-1.334-0.536-1.416-1.254c-0.002-0.015-0.003-0.034-0.005-0.05H392.601z"/>
					</g>
					<path style="fill:#263238;stroke:#263238;stroke-linecap:round;stroke-linejoin:round;stroke-miterlimit:10;" d="
						M378.88,334.69c0,0,1.502,11.527,1.717,15.396c0.127,2.293-0.073,6.893,0,9.188c0.281,8.819,1.379,26.441,2.249,35.218
						c0.458,4.621,2.168,13.766,2.479,18.401c0.632,9.431,0,37.816,0,37.816h-10.651c0,0-4.324-32.023-5.447-42.737
						c-0.399-3.809-4.812-41.674-7.824-49.923c-0.577-1.579-1.874-4.226-2.415-5.819c-0.829-2.444-2.108-7.678-2.339-10.261
						c-0.162-1.816-0.269-7.29-0.269-7.29L378.88,334.69z"/>
					<path style="fill:none;stroke:#7F7F7F;stroke-linecap:round;stroke-linejoin:round;" d="M380.841,399.161
						c0,0-1.961,3.625-8.988,3.625"/>
					<path style="fill:none;stroke:#7F7F7F;stroke-linecap:round;stroke-linejoin:round;" d="M361.203,358.81
						c-0.577-1.507-1.874-4.031-2.415-5.552c-0.829-2.331-2.139-11.289-2.408-18.58"/>
				</g>
				<path style="fill:none;stroke:#7F7F7F;stroke-linecap:round;stroke-linejoin:round;" d="M370.763,410.68
					c2.02,10.042,5.997,19.687,11.643,28.233"/>
				<path style="fill:none;stroke:#7F7F7F;stroke-linecap:round;stroke-linejoin:round;" d="M340.756,409.25
					c0.676,9.327,3.122,18.524,7.169,26.955"/>
			</g>
		</g>
		<g>
			<path style="fill:#FFFFFF;stroke:#263238;stroke-linecap:round;stroke-linejoin:round;stroke-miterlimit:10;" d="
				M369.425,259.534H396.6c2.131,0,3.858,2.469,3.858,5.515v9.19c0,3.046-1.728,5.515-3.858,5.515h-21.682l-8.751,5.82l3.259-5.82
				l0,0c-2.131,0-3.858-2.469-3.858-5.515v-9.19C365.567,262.003,367.294,259.534,369.425,259.534z"/>
			
				<line style="fill:none;stroke:#263238;stroke-linecap:round;stroke-linejoin:round;stroke-miterlimit:10;" x1="394.327" y1="265.172" x2="371.339" y2="265.172"/>
			
				<line style="fill:none;stroke:#263238;stroke-linecap:round;stroke-linejoin:round;stroke-miterlimit:10;" x1="394.327" y1="269.255" x2="373.108" y2="269.255"/>
			
				<line style="fill:none;stroke:#263238;stroke-linecap:round;stroke-linejoin:round;stroke-miterlimit:10;" x1="394.327" y1="273.338" x2="371.339" y2="273.338"/>
		</g>
	</g>
</g>
<g id="Character_1">
	<path style="fill:#92E3A9;" d="M105.803,297.288l-53.886,6.91c-11.666,1.496-22.159-7.202-22.851-18.944l-5.257-89.169
		c-0.755-12.804,10.404-23.091,23.105-21.299l62.538,8.823c10.373,1.463,17.929,10.578,17.445,21.042l-3.394,73.435
		C123.047,287.936,115.582,296.034,105.803,297.288z"/>
	<g>
		<path style="opacity:0.3;fill:#FFFFFF;" d="M123.502,278.087c-0.455,9.849-7.92,17.947-17.7,19.201l-53.886,6.91
			c-11.666,1.496-22.159-7.202-22.851-18.944l-5.257-89.169c-0.755-12.804,10.404-23.091,23.105-21.299l62.538,8.823
			c10.373,1.463,17.929,10.578,17.445,21.042L123.502,278.087z"/>
	</g>
	<g>
		<g>
			<path style="fill:none;stroke:#263238;stroke-linecap:round;stroke-linejoin:round;stroke-miterlimit:10;" d="M43.374,207.794
				h25.068c2.333,0.128,4.188,2.041,4.445,4.363l5.914,53.298c0.467,4.27,4.071,7.489,8.364,7.489"/>
			<path style="fill:none;stroke:#263238;stroke-linecap:round;stroke-linejoin:round;stroke-miterlimit:10;" d="M111.499,279.651
				v4.911H51.994c-4.386,0-8.037-3.371-8.387-7.746l-5.168-63.949c-0.222-2.823,2.076-5.214,4.934-5.074
				c2.333,0.128,4.176,2.041,4.433,4.363l5.914,53.298c0.478,4.27,4.083,7.489,8.376,7.489h42.695
				C108.501,272.944,111.499,275.954,111.499,279.651z"/>
		</g>
		<g>
			<g>
				<defs>
					<polyline id="XMLID_25_" points="83.351,300.184 83.351,284.563 75.513,284.563 75.513,301.172 					"/>
				</defs>
				<clipPath id="XMLID_00000039820181690534407950000008202530239337520768_">
					<use xlink:href="#XMLID_25_"  style="overflow:visible;"/>
				</clipPath>
				
					<path style="clip-path:url(#XMLID_00000039820181690534407950000008202530239337520768_);fill:none;stroke:#263238;stroke-linecap:round;stroke-linejoin:round;stroke-miterlimit:10;" d="
					M98.551,331.827H83.351v-48.962h-7.837v48.962H60.313c-2.624,0-4.752,2.128-4.752,4.752h19.953h7.837h19.953
					C103.303,333.954,101.176,331.827,98.551,331.827z"/>
				
					<use xlink:href="#XMLID_25_"  style="overflow:visible;fill:none;stroke:#263238;stroke-linecap:round;stroke-linejoin:round;stroke-miterlimit:10;"/>
			</g>
		</g>
		<g>
			<polygon style="fill:#FFFFFF;stroke:#263238;stroke-linecap:round;stroke-linejoin:round;stroke-miterlimit:10;" points="
				110.939,318.174 111.703,328.982 119.866,328.738 119.425,317.067 			"/>
			<path style="fill:#263238;stroke:#263238;stroke-linecap:round;stroke-linejoin:round;stroke-miterlimit:10;" d="M111.102,332.99
				c0,0,13.127,0.529,17.46,0c1.348-0.164,4.498-0.189,5.272-1.305c0.375-0.541-0.303-2.615-0.303-2.615l-6.846-2.107l-4.734-2.605
				c-0.751-0.413-1.682-0.304-2.317,0.272l-0.541,0.492c-0.45,0.409-0.691,1-0.654,1.607l0.014,0.234l-0.783-0.545
				c-0.336-0.234-0.737-0.36-1.147-0.36h-5.656c0,0-1.395,1.901-1.336,5.409C109.543,332.315,110.253,332.99,111.102,332.99z"/>
			<polygon style="fill:#FFFFFF;stroke:#263238;stroke-linecap:round;stroke-linejoin:round;stroke-miterlimit:10;" points="
				84.562,305.71 79.139,314.648 85.719,319.486 91.929,310.066 			"/>
			<path style="fill:#92E3A9;stroke:#263238;stroke-linecap:round;stroke-linejoin:round;stroke-miterlimit:10;" d="
				M107.313,266.021c0,0-8.946,4.162-25.397,42.595c0,0,2.743,4.903,8.364,5.54c0,0,39.317-48.455,34.3-57.001
				c-4.712-8.026-48.471-5.038-48.471-5.038l0.574,19.199C76.683,271.316,102.965,269.967,107.313,266.021z"/>
			<path style="fill:#263238;stroke:#263238;stroke-linecap:round;stroke-linejoin:round;stroke-miterlimit:10;" d="M87.27,162.513
				c0,0-7.856-5.912-15.552-0.791c-7.696,5.12-12.557,17.215-8.449,22.033c4.108,4.818,10.05,4.205,10.05,4.205
				s7.791,5.969,10.993,5.017c3.201-0.952,8.646-9.339,8.892-16.81S95.817,163.145,87.27,162.513z"/>
			<g>
				<defs>
					<path id="XMLID_24_" d="M79.451,188.96c0,0-2.178,3.014-2.068,5.563l-10.267-3.535c0,0,4.292-6.232,5.309-12.326
						C73.443,172.568,79.451,188.96,79.451,188.96z"/>
				</defs>
				<use xlink:href="#XMLID_24_"  style="overflow:visible;fill:#FFFFFF;"/>
				<clipPath id="XMLID_00000091721990518523053870000015176991725877842084_">
					<use xlink:href="#XMLID_24_"  style="overflow:visible;"/>
				</clipPath>
				
					<path style="clip-path:url(#XMLID_00000091721990518523053870000015176991725877842084_);fill:#263238;stroke:#263238;stroke-linecap:round;stroke-linejoin:round;stroke-miterlimit:10;" d="
					M72.201,181.435c0.163,3.096,0.991,4.402,3.573,7.032c2.977,3.033,4.93,5.421,9.274,0c2.883-3.597,3.774-5.891,4.05-7.032
					H72.201z"/>
				
					<use xlink:href="#XMLID_24_"  style="overflow:visible;fill:none;stroke:#263238;stroke-linecap:round;stroke-linejoin:round;stroke-miterlimit:10;"/>
			</g>
			<path style="fill:#92E3A9;stroke:#263238;stroke-linecap:round;stroke-linejoin:round;stroke-miterlimit:10;" d="M56.917,253.323
				c0,0-7.595,16.587,5.208,19.35c12.804,2.763,39.892-3.261,39.892-3.261s2.205,21.414,8.443,52.522c0,0,4.138,0.618,10.142-0.815
				c0,0-0.39-57.895-5.617-64.991C109.758,249.031,70.671,249.57,56.917,253.323z"/>
			<path style="fill:#263238;stroke:#263238;stroke-linecap:round;stroke-linejoin:round;stroke-miterlimit:10;" d="M55.044,253.342
				c0,0,1.882,2.114,14.428-2.124l15.801-0.607c0,0,5.897-26.721,4.036-36.667c-1.862-9.947-4.236-17.091-4.236-17.091
				s-12.156-5.105-26.253-3.597c-1.003,0.107-1.738,0.992-1.643,1.996C57.883,202.699,60.186,226.973,55.044,253.342z"/>
			<path style="fill:#263238;stroke:#263238;stroke-linecap:round;stroke-linejoin:round;stroke-miterlimit:10;" d="M85.074,196.853
				c0,0,6.559,1.458,6.559,9.274c0,7.817-0.761,20.523-0.761,20.523l8.479,11.488c0,0-3.63,2.006-4.185,5.392
				c0,0-12.677-10.426-13.392-14.04C81.059,225.876,85.074,196.853,85.074,196.853z"/>
			<g>
				<path style="fill:#FFFFFF;stroke:#263238;stroke-linecap:round;stroke-linejoin:round;stroke-miterlimit:10;" d="
					M86.433,224.656l0.623,2.332l-1.75-1.663l-5.233-8.815c-0.185-0.311-0.082-0.713,0.229-0.898l0,0
					c0.311-0.185,0.713-0.082,0.898,0.229L86.433,224.656z"/>
				<g>
					<path style="fill:#FFFFFF;stroke:#263238;stroke-linecap:round;stroke-linejoin:round;stroke-miterlimit:10;" d="
						M72.761,226.113c0,0,2.415-1.627,4.074-3.792c1.66-2.165,2.203-3.431,3.504-2.991c1.301,0.44,5.987,1.675,5.303,3.184
						c0,0,0.055,1.063-0.594,1.771c0,0-0.477,1.056-1.401,1.73c-0.924,0.674-1.231,0.382-1.231,0.382s-0.649,0.548-1.066,0.408
						c0,0-0.998,1.75-4.353,2.414l-9.005,3.843l-0.92-5.777L72.761,226.113z"/>
					<path style="fill:none;stroke:#263238;stroke-linecap:round;stroke-linejoin:round;stroke-miterlimit:10;" d="M79.103,221.275
						c0,0,0.662,0.615,1.273,0.995c0.611,0.38,2.756,1.497,2.688,2.213c-0.068,0.716-1.533,2.091-2.028,2.011
						c-0.495-0.08-2.147-0.726-2.106-1.103c0,0-0.236,0.442-0.317,0.937c-0.08,0.495,0.02,1.355-0.974,2.367"/>
					<path style="fill:none;stroke:#263238;stroke-linecap:round;stroke-linejoin:round;stroke-miterlimit:10;" d="M85.049,224.285
						c0,0-0.145-0.614-0.691-0.929c-0.546-0.315-2.69-1.692-2.968-2.091"/>
					<path style="fill:none;stroke:#263238;stroke-linecap:round;stroke-linejoin:round;stroke-miterlimit:10;" d="M85.643,222.514
						c0,0-0.355-0.366-0.797-0.603c-0.442-0.236-2.614-1.731-3.453-1.917"/>
					<path style="fill:none;stroke:#263238;stroke-linecap:round;stroke-linejoin:round;stroke-miterlimit:10;" d="M79.428,224.944
						c0,0,0.716-0.258,0.975-0.025c0.259,0.232,0.249,0.606,0.569,0.946"/>
					<path style="fill:none;stroke:#263238;stroke-linecap:round;stroke-linejoin:round;stroke-miterlimit:10;" d="M80.404,224.919
						c0,0-0.832-0.571-1.107-1.128"/>
				</g>
			</g>
			<path style="fill:#263238;stroke:#263238;stroke-linecap:round;stroke-linejoin:round;stroke-miterlimit:10;" d="M59.632,216.11
				c-0.129,2.496-1.46,12.682-1.46,12.682c6.543-2.247,13.548-3.017,13.548-3.017s-0.697,2.687,1.352,6.512
				c0,0-18.861,7.4-22.745,6.616c-3.884-0.784-3.244-9.161-1.754-27.756c1.49-18.595,10.246-17.892,10.246-17.892"/>
			<g>
				<path style="fill:none;stroke:#7F7F7F;stroke-linecap:round;stroke-linejoin:round;" d="M72.237,232.287
					c0,0-7.718,3.028-14.296,5.005"/>
				<path style="fill:none;stroke:#7F7F7F;stroke-linecap:round;stroke-linejoin:round;" d="M58.797,216.11
					c-0.129,2.496-1.46,12.682-1.46,12.682c6.543-2.247,13.548-3.017,13.548-3.017"/>
			</g>
			<path style="fill:#263238;stroke:#263238;stroke-linecap:round;stroke-linejoin:round;stroke-miterlimit:10;" d="M64.787,193.019
				c0,0,2.179-1.373,2.254-3.155c0.075-1.782,9.868,3.419,12.133,3.113c2.265-0.306,0.943,1.65,0.755,2.2
				C79.32,196.958,77.676,199.254,64.787,193.019z"/>
			<path style="fill:none;stroke:#7F7F7F;stroke-linecap:round;stroke-linejoin:round;" d="M79.877,195.178
				c-0.577,1.686-2.081,3.835-13.187-1.238"/>
			<path style="fill:#FFFFFF;stroke:#263238;stroke-linecap:round;stroke-linejoin:round;stroke-miterlimit:10;" d="M90.519,173.137
				l-1.038,6.215c0,0,0.169,2.477-4.175,7.898c-4.344,5.421-6.297,3.033-9.274,0c-2.977-3.033-3.624-4.301-3.606-8.588
				c0,0-1.528-0.219-2.467-3.019c-0.939-2.8,2.495-3.868,3.36-2.089l5.175-2.515l3.195-3.846l1.83-2.439l3.752,1.396l3.973,2.403
				L90.519,173.137z"/>
			<path style="fill:none;stroke:#263238;stroke-linecap:round;stroke-linejoin:round;stroke-miterlimit:10;" d="M85.928,179.545
				c0,0-1.598,1.642-0.262,3.227c1.812,2.15-1.993,1.487-1.998,2.131"/>
			<path style="fill:none;stroke:#263238;stroke-linecap:round;stroke-linejoin:round;stroke-miterlimit:10;" d="M81.661,185.609
				c0,0-1.232,0.314-3.36-1.813"/>
			<path style="fill:#263238;" d="M82.36,179.206c-0.229,0.534-0.585,0.894-0.795,0.804c-0.21-0.09-0.194-0.596,0.035-1.131
				c0.229-0.534,0.585-0.895,0.795-0.804C82.605,178.166,82.589,178.672,82.36,179.206z"/>
			<path style="fill:#263238;" d="M87.051,181.338c-0.205,0.479-0.524,0.801-0.712,0.721c-0.188-0.081-0.174-0.534,0.031-1.013
				c0.205-0.479,0.524-0.801,0.712-0.721C87.27,180.406,87.256,180.86,87.051,181.338z"/>
			<path style="fill:none;stroke:#263238;stroke-linecap:round;stroke-linejoin:round;stroke-miterlimit:10;" d="M84.911,175.229
				c0,0-1.4-1.213-3.461,0.046"/>
			<path style="fill:none;stroke:#263238;stroke-linecap:round;stroke-linejoin:round;stroke-miterlimit:10;" d="M88.137,177.055
				c0,0,0.909,0.264,1.054,1.125"/>
			<path style="fill:#263238;stroke:#263238;stroke-linecap:round;stroke-linejoin:round;stroke-miterlimit:10;" d="M73.607,171.04
				c0,0-2.245,5.718,0.861,8.205c0,0,2.579-7.378,7.925-8.205c5.345-0.827,7.527-2.486,7.527-2.486s-0.637,7.273,0.817,9.064
				c1.454,1.791,1.432-8.374,1.432-8.374l-1.432-3.497l-7.697-3.092l-6.629,3.115L73.607,171.04z"/>
			<path style="fill:#263238;stroke:#263238;stroke-linecap:round;stroke-linejoin:round;stroke-miterlimit:10;" d="M72.237,179.621
				c0,0-1.054,6.362,1.371,6.995c2.425,0.634-3.473,0.765-6.534-0.651c-3.061-1.416,4.048-7.131,4.048-7.131L72.237,179.621z"/>
			<g>
				<path style="fill:#FFFFFF;stroke:#263238;stroke-linecap:round;stroke-linejoin:round;stroke-miterlimit:10;" d="
					M86.162,224.304h1.146l-3.823,24.136h-1.146c-0.661,0-1.112-0.536-1.008-1.198l3.444-21.742
					C84.88,224.84,85.501,224.304,86.162,224.304z"/>
				<path style="fill:#FFFFFF;stroke:#263238;stroke-linecap:round;stroke-linejoin:round;stroke-miterlimit:10;" d="
					M83.134,248.441h13.971c0.661,0,1.282-0.536,1.387-1.198l3.444-21.742c0.105-0.661-0.347-1.197-1.008-1.197H86.956
					c-0.661,0-1.282,0.536-1.387,1.197l-3.444,21.742C82.021,247.904,82.472,248.441,83.134,248.441z"/>
				<path style="fill:none;stroke:#263238;stroke-linecap:round;stroke-linejoin:round;stroke-miterlimit:10;" d="M97.846,228.558
					h1.273c0.422,0,0.819-0.342,0.885-0.764l0.202-1.273c0.067-0.422-0.221-0.764-0.643-0.764H98.29
					c-0.422,0-0.818,0.342-0.885,0.764l-0.202,1.273C97.136,228.216,97.424,228.558,97.846,228.558z"/>
				<path style="fill:none;stroke:#263238;stroke-linecap:round;stroke-linejoin:round;stroke-miterlimit:10;" d="M98.202,227.157
					c-0.044,0.278,0.146,0.503,0.423,0.503c0.278,0,0.539-0.225,0.583-0.503c0.044-0.278-0.145-0.503-0.423-0.503
					C98.507,226.654,98.246,226.879,98.202,227.157z"/>
			</g>
			<g>
				<path style="fill:#FFFFFF;stroke:#263238;stroke-linecap:round;stroke-linejoin:round;stroke-miterlimit:10;" d="M99.15,240.403
					c0,0,1.335-3.882,2.325-2.974c0.774,0.71-0.557,2.974-0.557,2.974H99.15z"/>
				<g>
					<path style="fill:#FFFFFF;stroke:#263238;stroke-linecap:round;stroke-linejoin:round;stroke-miterlimit:10;" d="
						M102.39,241.904c0.227-0.445,0.962-1.451,0.696-1.874c-0.489-0.776-2.774-0.59-3.655-0.333
						c-0.414,0.121-1.302,0.377-1.568,0.716c-0.136,0.173-0.313,0.703-0.165,0.866c0.258,0.284,1.143-0.132,1.527-0.142
						c0.48-0.013,1.982,0.313,1.982,0.313s-1.73,0.52-2.272,0.526c-0.805,0.009-3.73-0.487-2.983,1.214c0,0-1.079,0.331-0.457,1.145
						c0.622,0.814,2.716,0.731,2.716,0.731s-0.5,0.169-1.47,0.221c-0.843,0.044-1.494-0.635-1.57-0.187
						c-0.118,0.695,0.507,1.267,1.4,1.596c0.894,0.328,1.589,0.435,2.76,0.004C100.811,246.155,101.745,243.171,102.39,241.904z"/>
					<path style="fill:none;stroke:#263238;stroke-linecap:round;stroke-linejoin:round;stroke-miterlimit:10;" d="M96.61,243.455
						c0,0,1.479,0.312,2.348,0.343c0.869,0.03,1.593-0.307,1.593-0.307"/>
				</g>
			</g>
			<path style="fill:none;stroke:#7F7F7F;stroke-linecap:round;stroke-linejoin:round;" d="M89.807,222.783
				c0.216-3.47,0.193-6.585-0.229-8.838c-1.102-5.886-2.383-10.791-3.245-13.815"/>
			<path style="fill:#263238;stroke:#263238;stroke-linecap:round;stroke-linejoin:round;stroke-miterlimit:10;" d="M75.419,316.691
				c0,0,8.888,9.628,12.314,12.314c1.066,0.835,3.305,3.04,4.632,2.804c0.643-0.114,1.617-2.044,1.617-2.044l-3.354-6.303
				l-1.515-5.162c-0.241-0.819-0.974-1.399-1.825-1.443l-0.726-0.038c-0.604-0.031-1.187,0.213-1.586,0.664l-0.154,0.174
				l-0.17-0.934c-0.073-0.401-0.268-0.772-0.557-1.061l-3.989-3.989c0,0-2.315,0.347-4.729,2.843
				C74.792,315.12,74.82,316.092,75.419,316.691z"/>
			<path style="fill:none;stroke:#263238;stroke-linecap:round;stroke-linejoin:round;stroke-miterlimit:10;" d="M103.144,267.116
				c0,0,2.82-3.872,4.369-4.647"/>
			<g>
				<g>
					<path style="fill:#92E3A9;stroke:#263238;stroke-linecap:round;stroke-linejoin:round;stroke-miterlimit:10;" d="
						M97.379,147.12c-0.491,0-0.982-0.188-1.356-0.562c-8.228-8.227-21.615-8.227-29.844,0c-0.749,0.749-1.964,0.749-2.713,0
						c-0.749-0.749-0.749-1.964,0-2.713c9.723-9.725,25.546-9.725,35.269,0c0.749,0.749,0.749,1.964,0,2.713
						C98.36,146.932,97.869,147.12,97.379,147.12z"/>
				</g>
				<g>
					<path style="fill:#92E3A9;stroke:#263238;stroke-linecap:round;stroke-linejoin:round;stroke-miterlimit:10;" d="
						M92.271,152.227c-0.491,0-0.982-0.187-1.356-0.562c-2.622-2.621-6.107-4.065-9.814-4.065c-3.708,0-7.193,1.444-9.815,4.065
						c-0.749,0.749-1.963,0.749-2.713,0c-0.749-0.749-0.749-1.964,0-2.713c3.346-3.346,7.795-5.189,12.528-5.189
						c4.732,0,9.181,1.843,12.527,5.189c0.749,0.749,0.749,1.964,0,2.713C93.253,152.039,92.762,152.227,92.271,152.227z"/>
				</g>
				<g>
					<path style="fill:#92E3A9;stroke:#263238;stroke-linecap:round;stroke-linejoin:round;stroke-miterlimit:10;" d="
						M87.796,156.702c-0.491,0-0.982-0.187-1.356-0.562c-2.944-2.944-7.734-2.944-10.678,0c-0.749,0.749-1.963,0.749-2.713,0
						c-0.749-0.749-0.749-1.964,0-2.713c4.439-4.44,11.664-4.44,16.103,0c0.749,0.749,0.749,1.964,0,2.713
						C88.777,156.515,88.286,156.702,87.796,156.702z"/>
				</g>
			</g>
		</g>
	</g>
</g>
</svg>
