<?xml version="1.0" encoding="utf-8"?>
<!-- Generator: Adobe Illustrator 27.5.0, SVG Export Plug-In . SVG Version: 6.00 Build 0)  -->
<svg version="1.1" xmlns="http://www.w3.org/2000/svg" xmlns:xlink="http://www.w3.org/1999/xlink" x="0px" y="0px"
	 viewBox="0 0 500 500" style="enable-background:new 0 0 500 500;" xml:space="preserve">
<g id="Background_Simple">
	<g>
		<path style="opacity:0.7;fill:#FFFFFF;" d="M67.931,167.086c0,0-27.877,71.987,11.297,144.503
			c39.173,72.517,119.878,110.802,184.469,143.549c64.59,32.746,131.661,16.799,163.534-36.838
			c31.872-53.637-11.846-91.929-11.897-168.419c-0.051-76.49,11.447-96.741-29.963-161.364
			c-41.41-64.623-143.059-78.925-219.899-30.996C88.63,105.45,67.931,167.086,67.931,167.086z"/>
	</g>
	<g>
		<path style="fill:#92E3A9;" d="M428.059,91.296C371.399,28.632,265.237,38.253,215.9,51.449
			c-33.939,9.078-53.513,38.979-77.243,42.639C67.163,105.115,20.127,141.56,31.29,203.765
			c11.163,62.206,70.286,81.755,99.295,171.848c29.006,90.094,100.637,104.897,176.667,74.412
			c76.03-30.487,89.695-54.215,107.744-139.077C433.043,226.082,492.97,163.085,428.059,91.296z"/>
		<path style="opacity:0.7;fill:#FFFFFF;" d="M428.059,91.296C371.399,28.632,265.237,38.253,215.9,51.449
			c-33.939,9.078-53.513,38.979-77.243,42.639C67.163,105.115,20.127,141.56,31.29,203.765
			c11.163,62.206,70.286,81.755,99.295,171.848c29.006,90.094,100.637,104.897,176.667,74.412
			c76.03-30.487,89.695-54.215,107.744-139.077C433.043,226.082,492.97,163.085,428.059,91.296z"/>
	</g>
</g>
<g id="Doodles">
	<path style="fill:#92E3A9;" d="M175.592,167.336c12.871-1.958,12.596-29.415-10.109-37.404
		c-22.705-7.989-11.057-25.785,0.259-21.854c11.316,3.931,11.45,30.19,28.405,32.537c16.956,2.347,20.53-31.583,11.21-42.503
		c-9.321-10.92,9.699-6.411,11.965-9.689c3.667-5.307-8.528-30.745,4.774-28.494c6.596,1.116-0.318,17.479,4.61,41.809
		c4.929,24.33,10.845,36.448,21.974,23.499c11.129-12.95-1.059-23.089,7.122-29.206c8.18-6.116,14.774-0.546,13.998,7.181
		c-0.778,7.727-1.117,15.327,4.3,12.561c5.417-2.765,14.343-15.706,18.768-25.883c4.424-10.177,9.478-9.517,9.878-1.938
		c0.4,7.58-19.722,24.003-20.262,35.337c-0.539,11.334,7.341,31.741,25.193,18.14c17.854-13.601,21.961-18.549,28.186-11.279
		c6.225,7.271,1.584,19.172,11.693,19.031c10.109-0.141,22.713-27.066,29.073-25.029c6.361,2.036,18.375,7.918-3.486,20.01
		c-21.858,12.091-29.273,11.557-28.306,24.743c0.968,13.187,52.178,14.751,47.013,23.488c-5.165,8.736-62.463,7.691-68.443,29.223
		c-5.98,21.53,25.016,18.234,19.584,30.29c-5.432,12.056-17.97-5.164-29.37-15.33c-11.4-10.165-11.631-2.602-21.603,0.639
		c-9.972,3.242-12.185-2.491-18.606-4.109c-6.422-1.62-2.501,11.55-12.159,10.145c-9.658-1.407-2.997-3.376-9.536-5.889
		c-6.538-2.513-12.194,22.426-26.255,18.543c-14.061-3.883-22.612-15.251-31.407-7.233c-8.794,8.019-2.375,25.055-14.923,23.872
		c-12.547-1.184-8.096-12.881-2.794-14.242c5.302-1.359,19.655-20.603,17.175-27.953c-2.48-7.35-26.413,12.265-31.478,2.129
		c-5.065-10.135-9.52-18.816-21.761-15.764c-12.242,3.051-14.107-14.016-4.529-13.739c9.578,0.277,31.811,1.929,33.552-6.094
		c1.742-8.023-3.949-16.975-19.063-24.568c-15.114-7.593-0.286-22.882,10.346-14.421
		C171.207,166.352,165.413,168.884,175.592,167.336z"/>
	<g>
		<polygon style="fill:none;stroke:#263238;stroke-linecap:round;stroke-linejoin:round;stroke-miterlimit:10;" points="
			70.69,292.045 62.14,273.832 93.664,273.832 		"/>
		<polygon style="fill:none;stroke:#263238;stroke-linecap:round;stroke-linejoin:round;stroke-miterlimit:10;" points="
			206.831,165.904 210.781,176.522 193.092,175.054 		"/>
		<polyline style="fill:none;stroke:#263238;stroke-linecap:round;stroke-linejoin:round;stroke-miterlimit:10;" points="
			211.407,56.867 220.877,61.448 211.407,66.085 220.877,71.935 211.407,78.285 222.035,83.194 213.657,90.993 		"/>
		<polygon style="fill:none;stroke:#263238;stroke-linecap:round;stroke-linejoin:round;stroke-miterlimit:10;" points="
			399.154,337.66 395.963,357.108 416.324,357.108 417.914,351.121 404.346,351.002 406.938,336.832 		"/>
		
			<ellipse transform="matrix(0.7071 -0.7071 0.7071 0.7071 -174.1832 367.2325)" style="fill:none;stroke:#263238;stroke-linecap:round;stroke-linejoin:round;stroke-miterlimit:10;" cx="356.197" cy="393.874" rx="8.582" ry="8.582"/>
		
			<circle style="fill:none;stroke:#263238;stroke-linecap:round;stroke-linejoin:round;stroke-miterlimit:10;" cx="152.63" cy="111.692" r="8.582"/>
		
			<line style="fill:none;stroke:#263238;stroke-linecap:round;stroke-linejoin:round;stroke-miterlimit:10;" x1="415.763" y1="257.202" x2="434.663" y2="268.006"/>
		
			<line style="fill:none;stroke:#263238;stroke-linecap:round;stroke-linejoin:round;stroke-miterlimit:10;" x1="428.852" y1="256.723" x2="421.573" y2="271.055"/>
		
			<line style="fill:none;stroke:#263238;stroke-linecap:round;stroke-linejoin:round;stroke-miterlimit:10;" x1="324.816" y1="191.736" x2="304.353" y2="199.167"/>
		
			<line style="fill:none;stroke:#263238;stroke-linecap:round;stroke-linejoin:round;stroke-miterlimit:10;" x1="316.719" y1="202.031" x2="310.493" y2="187.211"/>
		<path style="fill:none;stroke:#263238;stroke-linecap:round;stroke-linejoin:round;stroke-miterlimit:10;" d="M130.782,267.804
			c-0.145,0.373,14.883-6.494,14.883-6.494L153,278.117l-14.887,6.496L130.782,267.804z"/>
		<path style="fill:none;stroke:#263238;stroke-linecap:round;stroke-linejoin:round;stroke-miterlimit:10;" d="M336.857,245.281
			c-0.155-0.016,3.961,4.963,3.961,4.963l-5.604,4.475l-3.962-4.965L336.857,245.281z"/>
		<path style="fill:none;stroke:#263238;stroke-linecap:round;stroke-linejoin:round;stroke-miterlimit:10;" d="M62.14,198.629
			c0,2.112-1.712,3.825-3.825,3.825c-2.113,0-3.825-1.712-3.825-3.825c0-2.113,1.712-3.826,3.825-3.826
			C60.427,194.803,62.14,196.516,62.14,198.629z"/>
		<path style="fill:none;stroke:#263238;stroke-linecap:round;stroke-linejoin:round;stroke-miterlimit:10;" d="M293.995,60.693
			c0,2.112-1.712,3.825-3.825,3.825c-2.112,0-3.824-1.712-3.824-3.825c0-2.113,1.712-3.826,3.824-3.826
			C292.283,56.867,293.995,58.58,293.995,60.693z"/>
		<polyline style="fill:none;stroke:#263238;stroke-linecap:round;stroke-linejoin:round;stroke-miterlimit:10;" points="
			342.253,291.44 346.322,298.236 338.005,298.887 340.207,305.25 330.986,305.949 335.473,318.158 		"/>
		<polyline style="fill:none;stroke:#263238;stroke-linecap:round;stroke-linejoin:round;stroke-miterlimit:10;" points="
			126.514,346.848 133.695,351.171 124.081,359.012 130.099,362.813 122.361,371.39 		"/>
		<polyline style="fill:none;stroke:#263238;stroke-linecap:round;stroke-linejoin:round;stroke-miterlimit:10;" points="
			333.995,128.001 328.081,122.062 339.31,116.793 334.398,111.644 343.988,105.205 		"/>
	</g>
</g>
<g id="Notation">
	<g>
		<g>
			<path style="fill:none;stroke:#263238;stroke-linecap:round;stroke-linejoin:round;stroke-miterlimit:10;" d="M102.655,131.313
				c0,0,42.824,63.018,103.188,73.548"/>
			<path style="fill:none;stroke:#263238;stroke-linecap:round;stroke-linejoin:round;stroke-miterlimit:10;" d="M91.796,144.685
				c0,0,61.336,64.126,110.141,67.746"/>
			<path style="fill:none;stroke:#263238;stroke-linecap:round;stroke-linejoin:round;stroke-miterlimit:10;" d="M86.859,164.886
				c0,0,62.491,53.139,110.06,56.1"/>
			<path style="fill:none;stroke:#263238;stroke-linecap:round;stroke-linejoin:round;stroke-miterlimit:10;" d="M86.859,186.911
				c0,0,51.666,39.669,106.292,40.328"/>
		</g>
		<path style="fill:#263238;" d="M139.76,159.86c-1.835-1.918-2.595-4.103-2.891-5.868c-0.314-1.825-0.122-3.194-0.098-3.357
			l0.003-0.013l-13.675,24.73c-0.545-1.934-1.873-3.973-3.849-5.635c-3.862-3.251-8.723-3.834-10.854-1.302
			c-2.131,2.532-0.727,7.22,3.136,10.472c3.863,3.251,8.723,3.834,10.854,1.302c0.331-0.393,0.566-0.843,0.731-1.327l10.768-19.47
			c0.747,1.268,2.043,2.976,4.156,4.473c3.83,2.713,3.007,7.04,2.955,7.292C141.154,170.835,144.158,164.468,139.76,159.86z"/>
		<path style="fill:#263238;" d="M147.069,203.214c-1.552-1.622-2.193-3.468-2.443-4.96c-0.266-1.543-0.103-2.7-0.084-2.838
			l0.002-0.012l-11.561,20.906c-0.461-1.635-1.583-3.356-3.253-4.764c-3.266-2.749-7.373-3.241-9.175-1.101
			c-1.802,2.141-0.615,6.104,2.65,8.852c3.266,2.749,7.375,3.241,9.175,1.102c0.28-0.334,0.48-0.713,0.618-1.123l9.102-16.458
			c0.631,1.072,1.727,2.515,3.513,3.781c3.239,2.293,2.543,5.951,2.499,6.165C148.248,212.492,150.788,207.11,147.069,203.214z"/>
		<path style="fill:#263238;" d="M189.533,199.208c-1.551-1.622-2.193-3.469-2.443-4.961c-0.266-1.542-0.104-2.7-0.083-2.838
			l0.002-0.011l-11.561,20.907c-0.461-1.634-1.583-3.358-3.253-4.763c-3.266-2.749-7.375-3.241-9.176-1.101
			c-1.802,2.141-0.615,6.104,2.651,8.854c3.266,2.748,7.374,3.241,9.176,1.1c0.28-0.332,0.478-0.711,0.618-1.12l9.104-16.461
			c0.63,1.071,1.727,2.515,3.514,3.781c3.238,2.294,2.542,5.951,2.497,6.165C190.712,208.486,193.252,203.105,189.533,199.208z"/>
	</g>
</g>
<g id="Paint_tools">
	<g>
		<g>
			<path style="fill:#999999;stroke:#263238;stroke-linecap:round;stroke-linejoin:round;stroke-miterlimit:10;" d="M342.62,165.222
				c-11.827,28.262,3.495,58.288,36.69,62.701c33.191,4.406,49.928-18.927,35.713-26.29c-14.213-7.363-12.5-18.211-15.78-41.711
				C395.953,136.42,354.429,137.002,342.62,165.222z M396.037,189.291c-14.309,11.135-10.978-7.997-5.857-9.722
				C395.296,177.838,401.383,185.129,396.037,189.291z"/>
			<path style="fill:#92E3A9;stroke:#263238;stroke-linecap:round;stroke-linejoin:round;stroke-miterlimit:10;" d="
				M386.182,153.134c-3.479-0.728-5.757,3.678-8.51,5.001c0.28,0.707,4.379,7.267,4.512,7.117c0.478-0.576,1.246-0.9,1.991-0.841
				c0.555,0.044,1.073,0.28,1.615,0.399c1.444,0.315,3.047-0.299,3.909-1.499c0.864-1.201,0.936-2.916,0.178-4.184
				c-0.214-0.359-0.501-0.754-0.379-1.155c0.13-0.417,0.653-0.619,0.77-1.039c0.076-0.283-0.057-0.579-0.204-0.834
				C389.232,154.643,387.827,153.478,386.182,153.134z"/>
			<path style="fill:#92E3A9;stroke:#263238;stroke-linecap:round;stroke-linejoin:round;stroke-miterlimit:10;" d="
				M365.117,157.896c-1.922-0.383-4.07-0.293-5.608-1.507c-0.351-0.277-0.681-0.626-1.12-0.705
				c-0.524-0.092-1.022,0.228-1.456,0.533c-1.845,1.295-3.744,2.649-4.896,4.586c-1.152,1.935-1.354,4.63,0.147,6.313
				c0.825,0.93,2.157,1.623,2.244,2.863c0.095,1.381-2.453,4.433,0.636,4.695c0.986,0.083,1.902-0.455,2.758-0.948
				c1.496-0.859,3.585-0.373,4.827-1.421c1.066-0.9,0.049-2.789,1.762-3.389c1.104-0.387,3.479,0.839,3.776-1.046
				c0.208-1.317-1.667-1.788-2.116-2.821c-0.321-0.745,0.019-1.642,0.602-2.205c0.584-0.563,1.365-0.864,2.123-1.151
				C369.163,159.766,367.039,158.28,365.117,157.896z"/>
			<path style="fill:#92E3A9;stroke:#263238;stroke-linecap:round;stroke-linejoin:round;stroke-miterlimit:10;" d="
				M364.195,186.403c-0.425-0.344-2.694,0.464-3.674-0.592c-3.86-4.162-13.694,10.246-7.291,12.55
				c0.427,0.155,0.897,0.242,1.244,0.533c1.323,1.106-0.336,3.67,0.9,4.872c1.125,1.095,2.936-0.329,4.506-0.252
				c0.603,0.03,1.191,0.298,1.791,0.227c0.813-0.096,1.42-0.769,1.946-1.398c1.599-1.916,3.45-4.347,3.161-7.001
				c-0.214-1.966-1.628-4.137-2.257-6.002C364.004,187.804,365.481,187.713,364.195,186.403z"/>
			<path style="fill:#92E3A9;stroke:#263238;stroke-linecap:round;stroke-linejoin:round;stroke-miterlimit:10;" d="
				M382.556,208.139c-0.801-0.699-1.178-1.759-1.834-2.595c-0.655-0.835-1.9-1.442-2.76-0.817c-0.403,0.294-0.653,0.818-1.134,0.947
				c-0.377,0.1-0.763-0.079-1.139-0.181c-1.078-0.292-2.312,0.11-3.013,0.98c-0.697,0.868-0.826,2.156-0.312,3.146
				c1.225,2.362,2.303,9.175,4.493,8.728c1.696-0.346,3.134,1.829,4.679,1.436c2.576-0.655,4.375-8.62,2.591-10.476
				C383.676,208.835,383.049,208.568,382.556,208.139z"/>
			<path style="fill:#92E3A9;stroke:#263238;stroke-linecap:round;stroke-linejoin:round;stroke-miterlimit:10;" d="
				M403.784,209.755c-1.049-0.489-2.188-0.848-3.135-1.087c-1.002-0.253-2.06-0.506-3.054-0.217
				c-0.989,0.289-1.84,1.335-1.529,2.319c0.141,0.442,0.483,0.795,0.636,1.234c0.581,1.647-2.482,4.583,0.226,5.531
				c2.3,0.805,6.575,0.376,8.398-1.387C408.507,213.069,406.439,210.995,403.784,209.755z"/>
		</g>
		<g>
			<polygon style="fill:#BFBFBF;stroke:#263238;stroke-linecap:round;stroke-linejoin:round;stroke-miterlimit:10;" points="
				416.563,172.788 419.962,168.394 424.535,171.302 421.179,176.185 			"/>
			<path style="fill:#263238;" d="M416.225,171.526c-18.755,27.714-29.906,47.443-34.958,56.887
				c-0.512,0.96,0.793,1.837,1.494,1.007c6.023-7.099,18.253-22.527,39.362-53.117C423.2,174.742,417.289,169.953,416.225,171.526z"
				/>
			<g>
				<defs>
					<path id="XMLID_3_" d="M419.571,168.23c0.112,0.428,2.152,2.992,3.953,3.705c0,0,8.857-0.002,11.474-10.294
						c2.615-10.292,7.668-12.491,7.668-12.491s-0.976-0.902-2.31-0.516l1.239-1.373c0,0-2.216-1.06-4.05,0.457l0.304-2.024
						c0,0-1.687,2.986-4.81,3.724C429.914,150.157,416.306,155.791,419.571,168.23z"/>
				</defs>
				<use xlink:href="#XMLID_3_"  style="overflow:visible;fill:#FFFFFF;"/>
				<clipPath id="XMLID_00000124123230958138177250000011655185904935823511_">
					<use xlink:href="#XMLID_3_"  style="overflow:visible;"/>
				</clipPath>
				<path id="XMLID_4_" style="clip-path:url(#XMLID_00000124123230958138177250000011655185904935823511_);fill:#92E3A9;" d="
					M434.995,161.638c-0.273,1.067-0.611,2.029-1.007,2.886c0.193-2.5,1.189-6.002,0.021-6.437
					c-1.851-0.679-2.275,3.065-2.566,1.811c-0.287-1.256,1.314-3.529,1.116-5.027c-0.199-1.499-2.445,1.147-3.84,1.507
					c-1.396,0.361,2.347-3.917,1.855-4.991c-0.106-0.229-0.482-0.455-1.018-0.655c1.489-0.717,2.757-1.144,3.48-1.315
					c3.123-0.732,4.81-3.72,4.81-3.72l-0.302,2.02c1.834-1.517,4.051-0.455,4.051-0.455l-1.238,1.376
					c1.332-0.393,2.304,0.514,2.304,0.514S437.616,151.35,434.995,161.638z"/>
				
					<use xlink:href="#XMLID_3_"  style="overflow:visible;fill:none;stroke:#263238;stroke-linecap:round;stroke-linejoin:round;stroke-miterlimit:10;"/>
			</g>
		</g>
	</g>
</g>
<g id="Lamp">
	<g>
		<path style="fill:#263238;stroke:#263238;stroke-linecap:round;stroke-linejoin:round;stroke-miterlimit:10;" d="M235.913,183.773
			c0,0-6.171,1.431-1.184,8.156c0,0-5.644,0.93-1.702,7.812c0,0-3.411,2.893,0.833,8.033c0,0-1.984,4.96,7.926,11.809
			c0,0-0.071,4.251,6.811,5.878c6.02,1.423,7.637-1.095,7.637-1.095s7.895-0.954,12.239-7.483c0,0,6.957-2.134,4.947-6.392
			c0,0,5.641-4.4,2.639-7.249c0,0,6.476-6.534,3.212-8.704C273.525,190.719,235.913,183.773,235.913,183.773z"/>
		<g>
			<defs>
				<path id="XMLID_2_" d="M282.831,106.965c35.274,14.66,35.727,48.785,23.62,65.817c-11.025,15.506-25.879,14.337-27.18,21.757
					c-1.298,7.423-42.803-3.394-44.733-8.7c-1.93-5.306,6.682-4.594-9.259-25.869C209.339,138.694,239.511,88.96,282.831,106.965z"
					/>
			</defs>
			<use xlink:href="#XMLID_2_"  style="overflow:visible;fill:#FFFFFF;"/>
			<clipPath id="XMLID_00000068653066172536585450000009477225702005082752_">
				<use xlink:href="#XMLID_2_"  style="overflow:visible;"/>
			</clipPath>
			<path style="opacity:0.4;clip-path:url(#XMLID_00000068653066172536585450000009477225702005082752_);fill:#92E3A9;" d="
				M279.276,194.537c-1.301,7.424-42.805-3.394-44.736-8.694c-1.934-5.314,6.677-4.601-9.26-25.872
				c-15.943-21.276,14.23-71.014,57.554-53.011c4.555,1.89,8.532,4.116,11.975,6.579c-17.72-3.897-41.801-4.579-55.078,19.842
				c-14.45,26.59,8.026,50.769,19.335,52.651c0,0-9.36-6.82-12.473-18.288c0,0,15.971,23.695,40.995,19.739
				C283.138,189.625,279.857,191.22,279.276,194.537z"/>
			
				<use xlink:href="#XMLID_2_"  style="overflow:visible;fill:none;stroke:#263238;stroke-linecap:round;stroke-linejoin:round;stroke-miterlimit:10;"/>
		</g>
		<path style="fill:none;stroke:#FFFFFF;stroke-linecap:round;stroke-linejoin:round;stroke-miterlimit:10;" d="M273.332,203.959
			c0,0-16.61,5.592-37.466-2.748"/>
		<path style="fill:none;stroke:#FFFFFF;stroke-linecap:round;stroke-linejoin:round;stroke-miterlimit:10;" d="M263.606,199.023
			c0.992-0.071,1.982-0.198,2.958-0.394"/>
		<path style="fill:none;stroke:#FFFFFF;stroke-linecap:round;stroke-linejoin:round;stroke-miterlimit:10;" d="M237.152,193.54
			c6.623,2.743,13.801,4.788,20.949,5.408"/>
		<path style="fill:none;stroke:#FFFFFF;stroke-linecap:round;stroke-linejoin:round;stroke-miterlimit:10;" d="M248.513,211.601
			c6.917,1.091,14.254,1.304,21.014-0.78"/>
		<path style="fill:none;stroke:#FFFFFF;stroke-linecap:round;stroke-linejoin:round;stroke-miterlimit:10;" d="M236.65,208.7
			c2.729,0.957,5.552,1.676,8.382,2.265"/>
		<path style="fill:none;stroke:#FFFFFF;stroke-linecap:round;stroke-linejoin:round;stroke-miterlimit:10;" d="M259.115,217.809
			c-6.193-0.637-12.251-2.395-17.962-4.845"/>
		<path style="fill:none;stroke:#FFFFFF;stroke-linecap:round;stroke-linejoin:round;stroke-miterlimit:10;" d="M265.034,218.011
			c-0.907,0.044-1.816,0.044-2.725,0.012"/>
		<path style="fill:none;stroke:#FFFFFF;stroke-linecap:round;stroke-linejoin:round;stroke-miterlimit:10;" d="M243.298,220.641
			c0,0,5.009,3.825,11.421,3.777"/>
		<path style="fill:none;stroke:#263238;stroke-linecap:round;stroke-linejoin:round;stroke-miterlimit:10;" d="M277.059,193.066
			c0,0-17.738-11.395-38.487-10.293"/>
		<path style="fill:none;stroke:#263238;stroke-linecap:round;stroke-linejoin:round;stroke-miterlimit:10;" d="M264.638,189.843
			c0,0,10.17-22.168,24.373-23.673c0,0-8.605-6.909-11.955-7.954c-3.352-1.045-5.472,6.274-3.131,5.49
			c2.341-0.785,5.675-10.917,1.689-13.569c-3.985-2.651-11.692,10.533-9.429,11.614c2.262,1.079,5.102-12.79-0.456-14.358
			c-5.559-1.568-9.677,10.384-7.071,10.628c2.606,0.243,3.509-4.956-2.432-6.941c-6.427-2.147-14.488,1.007-14.488,1.007
			s12.454,14.887,8.342,33.872"/>
	</g>
</g>
<g id="Character">
	<g>
		<g>
			<path style="fill:#92E3A9;" d="M302.078,458.5c5.114-6.333,8.165-24.5,8.165-24.5c6.729,4.801,11.257,11.5,11.257,11.5
				s7-0.833,16.714-4.171C347.495,438.14,354,433.5,354,433.5c-10.872-16.026-29.273-43.263-40.596-51.826
				c-4.383-3.314-17.951-6.539-17.951-6.539c-3.078-2.781-9.774,0-9.774,0c-36.245,9.218-69.402-2.725-69.402-2.725
				s-4.697-2.167-8.547,0c0,0-6.082-0.726-11.281,0c-8.296,1.144-17.364,10.621-21.104,14.928
				c-1.116,1.292-31.854,36.89-31.854,36.89s-1.066,14.519,1.176,16.439c18.015,15.431,44.546-19.632,44.546-19.632
				c0.168,0.071,0.581,30.535,14.787,46.465c0,0,10.074,4.598,49.232,1C292.087,464.931,302.078,458.5,302.078,458.5z"/>
			<g>
				<path style="opacity:0.2;" d="M166.25,413.33c-6.03,0.53-9.15-0.91-10.35-3.47c0,0,0,0,0-0.011
					c8.68-10.04,18.81-21.779,19.44-22.51c0.3-0.35,0.64-0.729,1-1.14C180.84,396.28,184.58,411.73,166.25,413.33z"/>
				<path style="opacity:0.2;" d="M192.92,445.1c-3.41-12.54-3.61-24.02-3.71-24.06c0,0,4.36-5.71,5.57-11.71
					C194.78,409.33,200.44,431.9,192.92,445.1z"/>
				<path style="opacity:0.2;" d="M318.19,441.33c-1.95-2.23-4.7-5.01-7.95-7.33c0,0,0.43-14.33,4.43-18.67
					C317.89,411.84,321.32,429.96,318.19,441.33z"/>
			</g>
		</g>
		<path style="fill:none;stroke:#263238;stroke-linecap:round;stroke-linejoin:round;stroke-miterlimit:10;" d="M302.078,458.5
			c5.114-6.333,8.165-24.5,8.165-24.5c6.729,4.801,11.257,11.5,11.257,11.5"/>
		<path style="fill:none;stroke:#263238;stroke-linecap:round;stroke-linejoin:round;stroke-miterlimit:10;" d="M354,433.5
			c-10.872-16.026-29.273-43.263-40.596-51.826c-4.383-3.314-17.951-6.539-17.951-6.539c-3.078-2.781-9.774,0-9.774,0
			c-36.245,9.218-69.402-2.725-69.402-2.725s-4.697-2.167-8.547,0c0,0-6.082-0.726-11.281,0
			c-8.296,1.144-17.364,10.621-21.104,14.928c-1.116,1.292-31.854,36.89-31.854,36.89s-1.066,14.519,1.176,16.439
			c18.015,15.431,44.546-19.632,44.546-19.632c0.168,0.071,0.581,30.535,14.787,46.465"/>
		<g>
			<path style="fill:#263238;" d="M287.018,366.335c-0.299,0.125-0.478,0.191-0.478,0.191
				C286.709,366.486,286.866,366.417,287.018,366.335z"/>
			<path style="fill:#263238;" d="M297.786,339.347c3.807,0.561,4.736-2.227,4.736-2.227s-4.736,2.227-8.918-6.35
				c-2.382-4.887-1.209-13.868,0.241-20.692c2.93-4.832,7.181-11.505,7.743-19.431c0.967-13.6-5.39-20.492-12.762-18.471
				c0,0-0.54-11.489-10.909-15.61c-10.368-4.12-12.024-0.733-21.967-3.235c-9.942-2.502-19.784-0.321-23.366,6.151
				c-3.582,6.472-4.794,18.22-10.908,22.764c-6.114,4.544-16.802,15.5-13.421,27.752c3.381,12.252,1.467,16.441-3.015,22.23
				c-4.482,5.789-1.754,17.188,6.799,20.728c0,0-3.612-1.926-1.058-5.157c0,0,1.982,7.68,8.671,6.278
				c6.688-1.401,15.14-1.865,19.455,2.866c4.316,4.73,20.114,6.02,23.672,2.396c3.559-3.624,6.319-0.259,12.771,2.972
				c6.452,3.23,13.61,0.396,13.61,0.396s-0.604,2.794-2.143,3.629c1.312-0.554,4.94-2.286,5.957-4.881
				c0.997-2.55,1.659-5.117,0.388-11.186c4.473-1.753,2.404-4.706,2.404-4.706c4.186,2.418,6.185-4.565,6.185-4.565
				C298.069,340.944,297.786,339.347,297.786,339.347z"/>
		</g>
		<g>
			<path style="fill:#FFFFFF;stroke:#263238;stroke-linecap:round;stroke-linejoin:round;stroke-miterlimit:10;" d="
				M289.307,376.379c0,0-28.229,12.565-37.293,13.071c-9.065,0.519-39.927-15.898-39.927-15.898l23.523-6.419
				c3.203-6.107,3.281-13.278,2.516-21.694c-0.247-2.605-0.558-5.07-0.895-7.274c-0.804-5.33-1.686-9.051-1.686-9.051l33.236,1.374
				c-0.7,2.113-1.258,4.279-1.712,6.445c-0.974,4.668-1.427,9.362-1.569,13.707c-0.376,11.501,1.401,18.037,1.401,18.037
				L289.307,376.379z"/>
			<path style="fill:#FFFFFF;stroke:#263238;stroke-linecap:round;stroke-linejoin:round;stroke-miterlimit:10;" d="M220.59,377.868
				c0,0,17.801,3.122,22.22,2.608c4.42-0.512,7.89,3.848,7.89,3.848"/>
			<path style="fill:#FFFFFF;stroke:#263238;stroke-linecap:round;stroke-linejoin:round;stroke-miterlimit:10;" d="M283.14,379.029
				c0,0-18.122,1.917-22.526,2.066c-4.406,0.151-5.689,3.228-5.689,3.228"/>
			<path style="fill:#263238;" d="M267.068,336.933c-0.974,4.668-1.427,9.362-1.569,13.707c-2.528,2.165-5.705,4.291-9.31,5.497
				c-5.59,1.855-13.02-4.966-18.064-10.698c-0.247-2.605-0.558-5.07-0.895-7.274L267.068,336.933z"/>
		</g>
		<g>
			<g>
				<path style="fill:#FFFFFF;stroke:#263238;stroke-linecap:round;stroke-linejoin:round;stroke-miterlimit:10;" d="
					M227.824,301.127c0,0-2.74-4.206-5.188-3.358c-2.448,0.85-2.439,12.26-2.243,15.227c0.196,2.968,6.16,9.599,8.659,7.782"/>
				<path style="fill:#FFFFFF;stroke:#263238;stroke-linecap:round;stroke-linejoin:round;stroke-miterlimit:10;" d="
					M287.997,309.99c0,0,3.837-3.236,5.935-1.718c2.099,1.52-1.2,12.441-2.243,15.225c-1.044,2.784-8.667,7.415-10.535,4.955"/>
			</g>
			<path style="fill:#FFFFFF;stroke:#263238;stroke-linecap:round;stroke-linejoin:round;stroke-miterlimit:10;" d="
				M250.825,353.667c-10.079-1.484-20.079-18.569-21.283-23.376c-1.339-5.351-4.295-31.744,1.46-46.205
				c6.466-16.249,20-23.104,33.188-21.161c13.189,1.943,24.171,12.409,25.678,29.832c1.341,15.506-9.1,39.926-11.926,44.664
				C275.404,341.677,261.446,355.232,250.825,353.667z"/>
			<path style="fill:#263238;" d="M273.653,311.33c-0.274,1.866-1.331,3.256-2.358,3.104c-1.028-0.151-1.639-1.787-1.363-3.652
				c0.275-1.866,1.331-3.257,2.358-3.104C273.317,307.829,273.928,309.464,273.653,311.33z"/>
			<path style="fill:#263238;" d="M240.772,306.486c-0.275,1.866,0.335,3.502,1.363,3.652c1.028,0.151,2.083-1.238,2.358-3.104
				c0.274-1.865-0.336-3.501-1.363-3.652C242.102,303.23,241.046,304.62,240.772,306.486z"/>
			<path style="fill:#757575;" d="M263.291,331.738c0,0-5.217,10.239-11.885,8.565c-6.548-1.646-6.604-10.965-6.604-11.272
				c0,0,0.335,0.141,0.939,0.363c1.451,0.549,4.436,1.554,8.139,2.093c3.097,0.455,6.371,0.409,8.119,0.325
				C262.809,331.775,263.291,331.738,263.291,331.738z"/>
			<path style="fill:#FFFFFF;stroke:#263238;stroke-linecap:round;stroke-linejoin:round;stroke-miterlimit:10;" d="M254.6,310.43
				c0.264,6.434-5.255,7.522-4.201,9.752c1.055,2.229,3.543,2.94,3.543,2.94"/>
			<path style="fill:none;stroke:#263238;stroke-linecap:round;stroke-linejoin:round;stroke-miterlimit:10;" d="M244.802,329.018
				c0,0-0.061,9.617,6.608,11.29c6.666,1.674,11.879-8.565,11.879-8.565"/>
			<path style="fill:none;stroke:#263238;stroke-linecap:round;stroke-linejoin:round;stroke-miterlimit:10;" d="M234.825,298.01
				c0,0,6.009-7.584,15.308-5.177"/>
			<path style="fill:none;stroke:#263238;stroke-linecap:round;stroke-linejoin:round;stroke-miterlimit:10;" d="M280.91,304.799
				c0,0-3.568-8.995-13.165-9.371"/>
			<g>
				<polygon style="fill:#92E3A9;stroke:#263238;stroke-linecap:round;stroke-linejoin:round;stroke-miterlimit:10;" points="
					309.04,298.746 307.177,300.805 305.735,302.401 289.066,312.083 289.754,307.413 303.401,299.475 306.354,299.098 				"/>
				<path style="fill:#FFFFFF;stroke:#263238;stroke-linecap:round;stroke-linejoin:round;stroke-miterlimit:10;" d="
					M305.041,302.809c-2.467-0.465-1.64-3.339-1.64-3.339l5.639-0.724L305.041,302.809z"/>
				<path style="fill:#263238;" d="M309.04,298.746l-1.863,2.059c-1.247-0.341-0.872-1.557-0.822-1.707L309.04,298.746z"/>
			</g>
			<path style="fill:#263238;" d="M274.068,276.827c0,0-6.325,8.306-20.069,10.698c-17.207,2.997-26.706,17.885-26.474,24.091
				c0,0-5.294-11.658-2.942-27.387c3.413-22.837,24.722-29.371,40.216-27.78c15.494,1.592,22.972,17.125,22.972,17.125
				s11.633,9.06,9.947,20.479c-1.613,10.928-4.272,11.232-5.674,13.703c-1.943,3.428,0.607,4.855-6.194,10.48
				c0,0,2.688-15.252-0.648-26.633C281.865,280.224,274.068,276.827,274.068,276.827z"/>
			<path style="fill:#263238;" d="M278.328,272.961c0,0-6.065,23.175-40.564,26.8c0,0,23.238-4.203,33.983-25.436L278.328,272.961z"
				/>
			<path style="fill:#BFBFBF;" d="M252.15,335.274c0,0,4.743-1.691,6.568,0.003c0,0-3.117,4.973-7.125,3.778
				c-4.008-1.194-4.864-5.998-4.864-5.998S248.901,332.045,252.15,335.274z"/>
			<path style="fill:#FFFFFF;" d="M262.664,331.818l-1.354,1.529c-8.371,1.283-15.569-2.484-15.569-2.484l-0.47-1.666
				c1.451,0.548,4.906,1.751,8.608,2.29C256.977,331.942,260.915,331.901,262.664,331.818z"/>
			<path style="fill:none;stroke:#263238;stroke-linecap:round;stroke-linejoin:round;stroke-miterlimit:10;" d="M243.311,328.398
				c0,0,10.837,5.054,21.316,3.14"/>
			<path style="fill:none;stroke:#757575;stroke-linecap:round;stroke-linejoin:round;stroke-miterlimit:10;" d="M277.412,267.237
				c0,0-7.354,9.631-25.264,11.103c-17.908,1.472-23.096,8.89-23.096,8.89"/>
			<path style="fill:none;stroke:#757575;stroke-linecap:round;stroke-linejoin:round;stroke-miterlimit:10;" d="M237.083,268.012
				c-1.667,0.315-3.949,0.913-4.744,2.602"/>
			<path style="fill:none;stroke:#757575;stroke-linecap:round;stroke-linejoin:round;stroke-miterlimit:10;" d="M279.619,259.759
				c-10.803,8.075-24.754,9.005-38.921,7.857"/>
			<path style="fill:none;stroke:#757575;stroke-linecap:round;stroke-linejoin:round;stroke-miterlimit:10;" d="M211.197,333.578
				c-2.026,2.373-3.262,4.862-3.141,8.048"/>
			<path style="fill:none;stroke:#757575;stroke-linecap:round;stroke-linejoin:round;stroke-miterlimit:10;" d="M224.111,288.571
				c-5.024,2.849-9.047,8.086-9.316,13.982c-0.455,9.972,6.693,18.972-0.721,27.705"/>
			<path style="fill:none;stroke:#757575;stroke-linecap:round;stroke-linejoin:round;stroke-miterlimit:10;" d="M222.037,321.088
				c0,0,5.543,5.861,1.944,11.819c-3.6,5.959-5.462,12.006,1.919,16.399"/>
			<path style="fill:none;stroke:#757575;stroke-linecap:round;stroke-linejoin:round;stroke-miterlimit:10;" d="M262.445,290.345
				c-1.18,0.742-2.402,1.415-3.66,2.017"/>
			<path style="fill:none;stroke:#757575;stroke-linecap:round;stroke-linejoin:round;stroke-miterlimit:10;" d="M275.388,275.581
				c-1.969,4.924-5.698,9.286-9.811,12.547"/>
			<path style="fill:none;stroke:#757575;stroke-linecap:round;stroke-linejoin:round;stroke-miterlimit:10;" d="M279.619,276.405
				c0,0,7.488,4.076,10.367,10.824c2.879,6.748-1.178,16.249,0.707,19.53"/>
			<path style="fill:none;stroke:#757575;stroke-linecap:round;stroke-linejoin:round;stroke-miterlimit:10;" d="M291.27,342.249
				c1.029,0.649,2.163,1.121,3.348,1.4"/>
			<path style="fill:none;stroke:#757575;stroke-linecap:round;stroke-linejoin:round;stroke-miterlimit:10;" d="M285.338,332.907
				c0.465,2.411,1.522,4.771,3.039,6.701"/>
			<path style="fill:none;stroke:#757575;stroke-linecap:round;stroke-linejoin:round;stroke-miterlimit:10;" d="M282.379,338.278
				c0,0-0.694,7.619,4.16,12.658c4.854,5.039,3.438,8.182,3.438,8.182"/>
			<path style="fill:none;stroke:#757575;stroke-linecap:round;stroke-linejoin:round;stroke-miterlimit:10;" d="M274.328,346.97
				c0,0,2.899,7.718-1.7,10.293"/>
			<path style="fill:none;stroke:#757575;stroke-linecap:round;stroke-linejoin:round;stroke-miterlimit:10;" d="M285.338,274.293
				c0,0,10.943,2.207,12.547,6.991c1.603,4.783,0,10.299,0,10.299"/>
		</g>
		<path style="fill:#92E3A9;stroke:#263238;stroke-linecap:round;stroke-linejoin:round;stroke-miterlimit:10;" d="M144.667,440.667
			c-9.273-5.147-7.477-23.667-1.334-46.793c3.018-11.36,13.419-39.973,13.206-41.042c-0.419-2.083-2.297-5.543-2.297-5.543
			s2.976-3.061,4.26-3.609c5.413-2.306,16.09-5.217,20.992-3.189c1.525,0.632,3.748,4.203,3.441,5.664
			c-0.317,1.46-4.697,6.26-4.278,10.854c0.418,4.585-3.571,19.783-3.46,25.828c0.019,1.246,0.075,2.809,0.149,4.502
			c0.046,1.079-0.011,19.995-7.287,29.662"/>
		<g>
			<path style="fill:#FFFFFF;stroke:#263238;stroke-linecap:round;stroke-linejoin:round;stroke-miterlimit:10;" d="
				M174.843,297.033c0.194,1.84,4.172,14.959,5.395,28.37c0,0,4.567-1.629,7.056-3.804c2.49-2.177,7.701-0.437,7.483,1.014
				c-0.218,1.45-4.989,1.195-9.05,6.639c-4.061,5.444-4.874,11.465-10.251,14.373c-5.377,2.908-13.747,3.925-16.977,0.053
				c-3.229-3.872-6.875-24.396-5.612-26.54c1.263-2.144,3.986-4.033,3.986-4.033s1.368-4.008,3.447-4.31
				c2.079-0.302,7.04-0.417,7.04-0.417s1.73-1.388,3.974-1.095c0,0-1.618-15.405-3.042-20.574
				C166.868,281.541,173.21,281.573,174.843,297.033z"/>
			<path style="fill:none;stroke:#263238;stroke-linecap:round;stroke-linejoin:round;stroke-miterlimit:10;" d="M171.333,307.283
				c4.249,1.916,6.129,10.004,6.129,10.576c0,0.573-2.255,6.676-3.065,8.44c-1.054,2.301-3.347,0-3.347,0s-0.695,3.022-2.309,1.691
				c-2.052-1.691-2.052-7.164-2.052-7.164s-0.245,4.551-1.442,6.769c-1.197,2.219-3.583,0.745-3.241-5.827
				c0,0-4.892-1.197-5.063-2.395"/>
			<path style="fill:none;stroke:#263238;stroke-linecap:round;stroke-linejoin:round;stroke-miterlimit:10;" d="M166.69,320.827
				c-1.197-3.078-5.814-5.909-5.814-5.909"/>
			<path style="fill:none;stroke:#263238;stroke-linecap:round;stroke-linejoin:round;stroke-miterlimit:10;" d="M171.05,326.3
				c0,0,2.411-6.961,1.761-8.44c-0.649-1.479-4.753-5.411-4.753-5.411"/>
			<path style="fill:none;stroke:#263238;stroke-linecap:round;stroke-linejoin:round;stroke-miterlimit:10;" d="M180.237,325.403
				c0,0-4.516,0.982-6.531,6.753"/>
		</g>
		<path style="fill:none;stroke:#263238;stroke-linecap:round;stroke-linejoin:round;stroke-miterlimit:10;" d="M156.539,352.832
			c0,0,7.303,6.014,15.152,0.96"/>
		<path style="fill:none;stroke:#263238;stroke-linecap:round;stroke-linejoin:round;stroke-miterlimit:10;" d="M162.682,370.641
			c-1.41,0.81-2.909,1.47-4.481,1.892"/>
		<path style="fill:none;stroke:#263238;stroke-linecap:round;stroke-linejoin:round;stroke-miterlimit:10;" d="M180.237,350.936
			c-3.57,6.409-8.243,12.656-13.99,17.255"/>
		<path style="fill:none;stroke:#263238;stroke-linecap:round;stroke-linejoin:round;stroke-miterlimit:10;" d="M207.729,372.41
			c0,0,14.246,13.377,22.586,17.052"/>
		<path style="fill:none;stroke:#263238;stroke-linecap:round;stroke-linejoin:round;stroke-miterlimit:10;" d="M193.523,386.886
			c0.594,1.785,1.105,3.633,1.259,5.515"/>
		<path style="fill:none;stroke:#263238;stroke-linecap:round;stroke-linejoin:round;stroke-miterlimit:10;" d="M188.572,375.549
			c1.279,2.416,2.441,4.9,3.485,7.428"/>
		<path style="fill:none;stroke:#263238;stroke-linecap:round;stroke-linejoin:round;stroke-miterlimit:10;" d="M246.73,393.873
			c0,0,23.324,0.317,38.287-9.898"/>
		<path style="fill:none;stroke:#263238;stroke-linecap:round;stroke-linejoin:round;stroke-miterlimit:10;" d="M295.453,375.135
			c0,0-3.44,2.303-5.467,4.756"/>
		<path style="fill:none;stroke:#263238;stroke-linecap:round;stroke-linejoin:round;stroke-miterlimit:10;" d="M307.156,392.225
			c-2.41,2.454-5.108,4.648-8.103,6.351"/>
		<path style="fill:none;stroke:#263238;stroke-linecap:round;stroke-linejoin:round;stroke-miterlimit:10;" d="M312.243,386.023
			c-0.755,1.147-1.591,2.239-2.467,3.297"/>
		<path style="fill:none;stroke:#263238;stroke-linecap:round;stroke-linejoin:round;stroke-miterlimit:10;" d="M189.213,421.035
			c0,0,5.685-7.369,5.569-16.202"/>
		<path style="fill:none;stroke:#263238;stroke-linecap:round;stroke-linejoin:round;stroke-miterlimit:10;" d="M310.243,434
			c0,0-1.228-14.834,9.182-25.667"/>
		<path style="fill:none;stroke:#263238;stroke-linecap:round;stroke-linejoin:round;stroke-miterlimit:10;" d="M321.5,416.5
			c0.5,0.5-8.88,8.678-11.106,12.339"/>
		<path style="fill:none;stroke:#263238;stroke-linecap:round;stroke-linejoin:round;stroke-miterlimit:10;" d="M219.022,453.166
			c0,0,34.13,13.568,51.804,13.284"/>
		<g>
			<g>
				<path style="fill:#BFBFBF;" d="M257.26,427.788c0,0.657-0.533,1.191-1.191,1.191h-4.045c-0.658,0-1.192-0.534-1.192-1.191
					v-6.181c0-0.658,0.534-1.191,1.192-1.191h4.045c0.658,0,1.191,0.533,1.191,1.191V427.788z"/>
				<path style="fill:#263238;" d="M256.068,429.615h-4.045c-1.008,0-1.827-0.819-1.827-1.827v-6.181
					c0-1.007,0.819-1.826,1.827-1.826h4.045c1.008,0,1.826,0.819,1.826,1.826v6.181
					C257.895,428.796,257.076,429.615,256.068,429.615z M252.023,421.051c-0.307,0-0.557,0.25-0.557,0.557v6.181
					c0,0.308,0.25,0.557,0.557,0.557h4.045c0.307,0,0.557-0.249,0.557-0.557v-6.181c0-0.307-0.25-0.557-0.557-0.557H252.023z"/>
			</g>
			<path style="fill:none;stroke:#263238;stroke-linecap:round;stroke-linejoin:round;stroke-miterlimit:10;" d="M266.9,368.677
				c0,0,18.116,3.733-12.854,50.797c0,0-36.078-45.708-18.438-52.341"/>
			<path style="fill:#263238;" d="M254.688,419c0,0.69-0.308,1.25-0.688,1.25c-0.38,0-0.688-0.56-0.688-1.25s0.308-1.25,0.688-1.25
				C254.38,417.75,254.688,418.31,254.688,419z"/>
		</g>
	</g>
</g>
</svg>
