<?xml version="1.0" encoding="utf-8"?>
<!-- Generator: Adobe Illustrator 27.5.0, SVG Export Plug-In . SVG Version: 6.00 Build 0)  -->
<svg version="1.1" xmlns="http://www.w3.org/2000/svg" xmlns:xlink="http://www.w3.org/1999/xlink" x="0px" y="0px"
	 viewBox="0 0 3710 3710" style="enable-background:new 0 0 3710 3710;" xml:space="preserve">
<g id="Background">
	<g>
		<g>
			<rect style="fill:#FFFFFF;" width="3710" height="3710"/>
		</g>
	</g>
</g>
<g id="Illustration">
	<g>
		<linearGradient id="SVGID_1_" gradientUnits="userSpaceOnUse" x1="3413.8" y1="3620.4834" x2="1366.2012" y2="1410.3763">
			<stop  offset="0" style="stop-color:#DAE3FE"/>
			<stop  offset="1" style="stop-color:#E9EFFD"/>
		</linearGradient>
		<path style="fill:url(#SVGID_1_);" d="M3131.704,2359.846c-282.092,656.144-1026.722,937.974-1610.152,889.921
			c-159.3-13.12-479.815-39.519-730.076-275.029c-480.609-452.283-406.591-1397.681,53.49-1954.279
			c59.249-71.678,469.361-551.915,1108.443-545.487c467.901,4.707,796.317,267.73,836.251,300.498
			c50.447,41.394,161.714,139.761,261.992,295.813C3287.271,1437.951,3307.983,1949.821,3131.704,2359.846z"/>
		<g>
			<g>
				<path style="fill:#91B3FA;" d="M1567.042,2271.266c0,0,380.725-1187.138,1043.645-1795.781
					c44.563-40.914,119.502-17.254,131.973,41.854C2826.049,912.58,2956.795,2100.978,1567.042,2271.266z"/>
				<path style="opacity:0.24;fill:#FFFFFF;" d="M1697.765,2203.816c-3.27,2.631,0.487,7.556,4.103,5.381
					c133.328-80.19,655.293-485.625,897.466-1361.986c0.777-2.815-3.521-4.281-4.55-1.547
					C2519.002,1047.123,2214.83,1787.852,1697.765,2203.816z"/>
			</g>
			<g>
				<path style="fill:#BDD0FB;" d="M3220.373,820.465c28.701,211.421,145.478,1448.587-995.777,1766.703
					c0,0-286.544-794.682,966.773-1778.521C3202.334,800.039,3218.498,806.653,3220.373,820.465z"/>
				<path style="opacity:0.43;fill:#FFFFFF;" d="M3116.442,1007.94c-15.773,68.58-34.228,136.391-53.724,203.93
					c-19.621,67.496-40.763,134.549-63.265,201.146c-22.457,66.613-46.588,132.664-72.161,198.154l-9.561,24.571l-9.919,24.43
					l-9.933,24.425c-3.276,8.156-6.632,16.28-10.122,24.347l-20.66,48.524l-21.479,48.172
					c-7.033,16.116-14.692,31.947-22.119,47.884c-7.473,15.917-14.843,31.882-22.77,47.583l-23.432,47.269l-24.411,46.778
					l-6.103,11.695l-6.352,11.563l-12.759,23.097l-12.759,23.098c-4.202,7.728-8.832,15.215-13.227,22.835
					c-8.937,15.156-17.722,30.403-26.786,45.484l-27.975,44.776l-6.995,11.194l-7.314,10.991l-14.668,21.957l-14.67,21.957
					c-4.883,7.324-10.194,14.355-15.271,21.547l-15.397,21.463l-7.699,10.731c-2.554,3.586-5.112,7.17-7.858,10.615l-32.35,41.789
					c-44.117,54.947-91.332,107.488-142.447,156.203c-2.423,2.309-6.26,2.217-8.569-0.206c-2.309-2.423-2.217-6.259,0.206-8.569
					l0.018-0.017l0.059-0.056c50.821-48.04,97.891-99.974,141.947-154.38l32.323-41.396c2.744-3.412,5.302-6.965,7.856-10.521
					l7.7-10.641l15.401-21.281c5.079-7.133,10.392-14.101,15.28-21.369l14.687-21.79l14.689-21.79l7.325-10.908l7.009-11.117
					l28.041-44.469c9.088-14.983,17.903-30.136,26.869-45.197c4.41-7.573,9.054-15.011,13.273-22.696l12.81-22.965l12.811-22.965
					l6.379-11.498l6.132-11.633l24.53-46.534l23.561-47.039c7.97-15.624,15.387-31.519,22.907-47.365
					c7.474-15.867,15.18-31.626,22.264-47.676l21.63-47.973l20.817-48.337c3.516-8.037,6.899-16.13,10.202-24.256l10.015-24.337
					l10.001-24.343l9.646-24.487c25.798-65.266,50.165-131.114,72.866-197.538c22.745-66.407,44.137-133.286,64.013-200.614
					c19.745-67.347,38.476-135.079,54.478-203.358l0.01-0.045c0.324-1.381,1.705-2.237,3.086-1.914
					C3115.907,1005.188,3116.766,1006.559,3116.442,1007.94z"/>
			</g>
		</g>
		<g>
			<g>
				<g>
					<path style="fill:#91B3FA;" d="M1460.34,1590.645c-19.606-167.691-128.689-336.526-204.475-498.8
						c-40.068-85.798-71.651-173.182-82.002-267.831c-10.292-94.106,5.397-203.221-58.246-282.373
						c-128.23-159.458-292.828-25.899-362.745,139.679c-81.134,192.144-44.456,459.819-37.275,671.698
						c4.329,127.732-4.921,262.491,13.491,388.823c30.501,209.28,114.734,337.325,237.559,405.76
						c117.807,65.639,264.456,45.814,360.785-48.565C1414.452,2013.778,1491.969,1861.168,1460.34,1590.645z"/>
					<path style="opacity:0.5;fill:#FFFFFF;" d="M1233.99,2453.168c-1.4-0.285-2.651-1.209-3.299-2.604
						c-37.277-80.474-127.594-304.208-202.583-574.98c-55.046-198.759-94.555-394.062-117.431-580.488
						c-28.604-233.115-31.134-452.937-7.518-653.359c0.3-2.552,2.614-4.379,5.166-4.078c2.57,0.281,4.381,2.613,4.079,5.167
						c-23.525,199.654-21.001,418.692,7.501,651.029c22.81,185.946,62.218,380.774,117.127,579.07
						c74.823,270.219,164.92,493.444,202.107,573.726c1.081,2.333,0.066,5.099-2.268,6.18
						C1235.937,2453.263,1234.931,2453.36,1233.99,2453.168z"/>
				</g>
			</g>
			<g>
				<path style="fill:#BDD0FB;" d="M914.412,1992.061c-157.516,56.673-396.704-155.04-403.969-341.241
					c-2.846-72.944,31.415-103.13,20.521-206.7c-13.218-125.664-70.225-143.682-69.41-241.819
					c0.717-86.318,46.003-214.878,144.526-246.489c92.046-29.534,195.464,36.816,235.991,112.624
					c42.598,79.681-5.752,129.654,35.716,220.898c41.004,90.222,109.495,88.054,159.834,152.925
					C1148.432,1585.062,1078.413,1933.054,914.412,1992.061z"/>
				<path style="opacity:0.3;fill:#FFFFFF;" d="M619.905,1327.108c21.973,70.929,43.31,141.95,64.555,212.949l32.108,106.402
					l16.122,53.161c5.476,17.687,11.009,35.353,16.348,53.08c5.296,17.744,11.014,35.344,16.587,52.995l8.398,26.464
					c2.695,8.857,5.611,17.635,8.448,26.441l17.118,52.816c6.034,17.484,11.768,35.078,17.668,52.619
					c23.969,70.021,48.87,139.683,76.54,208.517l-4.224,1.987c-8.517-16.514-16.845-33.152-25.126-49.834
					c-4.302-8.276-7.949-16.821-11.792-25.292l-11.449-25.457l-5.689-12.75c-1.89-4.255-3.77-8.513-5.493-12.828l-10.602-25.807
					c-7.07-17.206-14.185-34.418-20.612-51.86c-6.542-17.405-13.25-34.757-19.658-52.22l-18.456-52.632
					c-3.052-8.781-6.224-17.525-9.096-26.361l-8.642-26.506c-5.736-17.678-11.62-35.314-17.075-53.075
					c-22.549-70.837-42.473-142.449-61.217-214.336c-9.375-35.945-18.128-72.05-26.454-108.253
					c-8.182-36.243-16.196-72.511-22.843-109.118L619.905,1327.108z"/>
				<path style="fill:#FFFFFF;" d="M622.281,1430.798c-44.256-25.781-77.369-73.848-77.699-74.331l1.928-1.316
					c0.327,0.479,33.154,48.12,76.945,73.628L622.281,1430.798z"/>
				<path style="fill:#FFFFFF;" d="M626.431,1487.405c-64.864-27.602-101.656-83.863-102.019-84.426l1.961-1.265
					c0.361,0.559,36.788,56.231,100.971,83.543L626.431,1487.405z"/>
				<path style="fill:#FFFFFF;" d="M636.904,1556.99c-78.442-22.258-118.971-94.283-119.371-95.008l2.043-1.127
					c0.396,0.717,40.481,71.903,117.964,93.888L636.904,1556.99z"/>
				<path style="fill:#FFFFFF;" d="M659.36,1619.94c-76.966-10.215-127.128-80.191-127.625-80.895l1.906-1.346
					c0.492,0.698,50.089,69.848,126.027,79.927L659.36,1619.94z"/>
				<path style="fill:#FFFFFF;" d="M676.186,1676.902c-49.928-3.136-98.967-41.591-99.455-41.978l1.449-1.831
					c0.484,0.384,48.965,38.391,98.152,41.479L676.186,1676.902z"/>
				<path style="fill:#FFFFFF;" d="M691.56,1744.425c-69.509-4.976-102.279-35.92-102.602-36.232l1.622-1.679
					c0.319,0.307,32.549,30.671,101.146,35.581L691.56,1744.425z"/>
				<path style="fill:#FFFFFF;" d="M721.639,1825.607c-72.39,0.729-130.093-60.207-130.668-60.823l1.706-1.592
					c0.567,0.607,57.591,60.799,128.938,60.079L721.639,1825.607z"/>
				<path style="fill:#FFFFFF;" d="M739.575,1906.643c-87.712,2.974-150.489-70.408-151.111-71.149l1.785-1.503
					c0.618,0.733,62.688,73.255,149.247,70.321L739.575,1906.643z"/>
				<path style="fill:#FFFFFF;" d="M772.924,1992.869c-131.091-9.124-197.654-96.643-198.311-97.526l1.871-1.396
					c0.651,0.875,66.622,87.547,196.603,96.595L772.924,1992.869z"/>
				<path style="fill:#FFFFFF;" d="M803.35,2093.165c-136.287,5.618-219.643-121.162-220.469-122.443l1.962-1.265
					c0.82,1.27,83.477,126.938,218.411,121.375L803.35,2093.165z"/>
				<path style="fill:#FFFFFF;" d="M836.592,2184.858c-70.953,5.205-128.904-31.581-165.025-63.359
					c-39.083-34.383-61.737-70.487-61.961-70.846l1.982-1.234c0.89,1.431,90.545,142.961,224.833,133.111L836.592,2184.858z"/>
			</g>
		</g>
		<g>
			<g>
				<rect x="2565.688" y="1817.452" style="fill:#7D97F4;" width="565.202" height="1090.033"/>
				
					<linearGradient id="SVGID_00000006695415647320521080000006897884907259273654_" gradientUnits="userSpaceOnUse" x1="2800.3027" y1="1693.6687" x2="3557.0625" y2="588.8004">
					<stop  offset="0" style="stop-color:#4F52FF"/>
					<stop  offset="1" style="stop-color:#4042E2"/>
				</linearGradient>
				<path style="fill:url(#SVGID_00000006695415647320521080000006897884907259273654_);" d="M3206.59,1911.652h-667.817
					l-122.222-491.188h647.053l169.293,449.988C3241.811,1889.673,3227.776,1911.652,3206.59,1911.652z"/>
				
					<linearGradient id="SVGID_00000031188641840513254530000016882113541782491063_" gradientUnits="userSpaceOnUse" x1="2662.489" y1="733.4194" x2="2703.6387" y2="1741.5912">
					<stop  offset="0" style="stop-color:#4F52FF"/>
					<stop  offset="1" style="stop-color:#4042E2"/>
				</linearGradient>
				<path style="fill:url(#SVGID_00000031188641840513254530000016882113541782491063_);" d="M3063.604,1427.193l-728.652,2.922
					l-20.18-60.541l704.121,3.79c24.693,0,44.711,14.613,44.711,32.638V1427.193z"/>
				<g style="opacity:0.89;">
					<path style="opacity:0.71;fill:#FFFFFF;" d="M3010.334,2611.427h-320.726c-0.62,0-1.123-0.503-1.123-1.123v-495.67
						c0-0.62,0.503-1.123,1.123-1.123h320.727c0.62,0,1.123,0.503,1.123,1.123v495.67
						C3011.457,2610.924,3010.954,2611.427,3010.334,2611.427z"/>
					<g>
						<path style="fill:#7D97F4;" d="M2836.807,2584.512h-124.148c-0.344,0-0.624-0.279-0.624-0.624v-442.839
							c0-0.344,0.28-0.624,0.624-0.624h124.148c0.345,0,0.624,0.28,0.624,0.624v442.839
							C2837.431,2584.233,2837.152,2584.512,2836.807,2584.512z"/>
						<path style="fill:#7D97F4;" d="M2987.283,2584.512h-124.148c-0.344,0-0.624-0.279-0.624-0.624v-442.84
							c0-0.344,0.28-0.624,0.624-0.624h124.148c0.345,0,0.624,0.28,0.624,0.624v442.839
							C2987.907,2584.233,2987.627,2584.512,2987.283,2584.512z"/>
					</g>
				</g>
				<path style="fill:#7D97F4;" d="M620.466,2907.485h530.974V1817.452H586.238v1055.805
					C586.238,2892.16,601.563,2907.485,620.466,2907.485z"/>
				
					<linearGradient id="SVGID_00000035518772480150366580000011739427859477068686_" gradientUnits="userSpaceOnUse" x1="869.4762" y1="1603.8799" x2="-203.9198" y2="1049.173">
					<stop  offset="0" style="stop-color:#4F52FF"/>
					<stop  offset="1" style="stop-color:#4042E2"/>
				</linearGradient>
				<path style="fill:url(#SVGID_00000035518772480150366580000011739427859477068686_);" d="M510.538,1911.652h667.817
					l238.396-521.898l-763.227,30.71L484.23,1870.453C475.316,1889.673,489.352,1911.652,510.538,1911.652z"/>
				
					<linearGradient id="SVGID_00000072262259998155481080000006090596853137034887_" gradientUnits="userSpaceOnUse" x1="1034.4471" y1="984.3593" x2="1078.1385" y2="1483.6947">
					<stop  offset="0" style="stop-color:#4F52FF"/>
					<stop  offset="1" style="stop-color:#4042E2"/>
				</linearGradient>
				<path style="fill:url(#SVGID_00000072262259998155481080000006090596853137034887_);" d="M653.525,1427.192l773.316-12.213
					l60.541-50.451l-785.696,8.835c-26.599,0-48.161,14.612-48.161,32.638V1427.192z"/>
				<g style="opacity:0.89;">
					<path style="opacity:0.71;fill:#FFFFFF;" d="M706.794,2611.427h320.727c0.62,0,1.123-0.503,1.123-1.123v-495.67
						c0-0.62-0.503-1.123-1.123-1.123H706.794c-0.62,0-1.123,0.503-1.123,1.123v495.67
						C705.671,2610.924,706.173,2611.427,706.794,2611.427z"/>
					<g>
						<path style="fill:#7D97F4;" d="M880.321,2584.512h124.148c0.345,0,0.624-0.279,0.624-0.624v-442.839
							c0-0.344-0.279-0.624-0.624-0.624H880.321c-0.345,0-0.624,0.28-0.624,0.624v442.839
							C879.696,2584.233,879.976,2584.512,880.321,2584.512z"/>
						<path style="fill:#7D97F4;" d="M729.844,2584.512h124.148c0.345,0,0.624-0.279,0.624-0.624v-442.839
							c0-0.344-0.279-0.624-0.624-0.624H729.844c-0.345,0-0.624,0.28-0.624,0.624v442.839
							C729.22,2584.233,729.5,2584.512,729.844,2584.512z"/>
					</g>
				</g>
				<path style="fill:#BDD0FB;" d="M1858.564,1135.69c0,0-766.256,578.478-785.24,578.478v1201.778
					c0,21.897,17.751,39.649,39.649,39.649h1495.69c19.408,0,35.141-15.733,35.141-35.141V1714.168L1858.564,1135.69z"/>
				<g>
					
						<linearGradient id="SVGID_00000044900661307371939960000009814766365606738081_" gradientUnits="userSpaceOnUse" x1="1889.3706" y1="3811.1318" x2="1808.2981" y2="2650.7805">
						<stop  offset="0" style="stop-color:#4F52FF"/>
						<stop  offset="1" style="stop-color:#4042E2"/>
					</linearGradient>
					<path style="fill:url(#SVGID_00000044900661307371939960000009814766365606738081_);" d="M2066.917,2907.485h-486.925v-79.431
						c0-1.751,1.42-3.17,3.171-3.17h480.584c1.751,0,3.17,1.419,3.17,3.17V2907.485z"/>
					
						<linearGradient id="SVGID_00000042721206512193949080000004187950376189413545_" gradientUnits="userSpaceOnUse" x1="1838.3998" y1="3161.6704" x2="1873.8624" y2="3703.7405">
						<stop  offset="0" style="stop-color:#4F52FF"/>
						<stop  offset="1" style="stop-color:#4042E2"/>
					</linearGradient>
					<path style="fill:url(#SVGID_00000042721206512193949080000004187950376189413545_);" d="M2066.917,2972.996h-486.925v-79.431
						c0-1.751,1.42-3.17,3.171-3.17h480.584c1.751,0,3.17,1.419,3.17,3.17V2972.996z"/>
					
						<linearGradient id="SVGID_00000033351029463441746780000008453256314186588051_" gradientUnits="userSpaceOnUse" x1="2130.4995" y1="1975.0258" x2="2844.895" y2="748.9011">
						<stop  offset="0" style="stop-color:#4F52FF"/>
						<stop  offset="1" style="stop-color:#4042E2"/>
					</linearGradient>
					<path style="fill:url(#SVGID_00000033351029463441746780000008453256314186588051_);" d="M1989.627,2824.884h-332.343v-644.786
						c0-1.966,1.594-3.56,3.56-3.56h325.224c1.966,0,3.56,1.594,3.56,3.56V2824.884z"/>
					
						<linearGradient id="SVGID_00000011735547791254466450000002154726614330408613_" gradientUnits="userSpaceOnUse" x1="1657.2834" y1="2089.2705" x2="1989.6268" y2="2089.2705">
						<stop  offset="0" style="stop-color:#DAE3FE"/>
						<stop  offset="1" style="stop-color:#E9EFFD"/>
					</linearGradient>
					<path style="fill:url(#SVGID_00000011735547791254466450000002154726614330408613_);" d="M1966.161,2132.899H1680.75
						c-12.96,0-23.466-10.506-23.466-23.466v-20.497c0-12.329,9.541-22.556,21.84-23.41l285.41-19.826
						c13.568-0.943,25.093,9.81,25.093,23.41v40.323C1989.627,2122.393,1979.12,2132.899,1966.161,2132.899z"/>
					<g>
						<path style="opacity:0.9;fill:#7D97F4;" d="M2253.549,1844.883h-3.158c-82.082,0-153.941,58.112-153.941,140.194v147.822
							h157.099V1844.883z"/>
						<path style="opacity:0.9;fill:#7D97F4;" d="M2096.45,2176.538v434.888c0,14.645,17.19,37.347,31.833,37.347h125.266v-472.235
							H2096.45z"/>
						<path style="opacity:0.9;fill:#7D97F4;" d="M2296.444,1844.883h-7.984v288.016h157.1v-147.822
							C2445.56,1902.995,2378.526,1844.883,2296.444,1844.883z"/>
						<path style="opacity:0.9;fill:#7D97F4;" d="M2288.46,2648.773h130.093c14.644,0,27.007-22.702,27.007-37.347v-434.888h-157.1
							V2648.773z"/>
					</g>
					<g>
						<path style="opacity:0.9;fill:#7D97F4;" d="M1388.26,1844.883h-3.158c-82.082,0-153.942,58.112-153.942,140.194v147.822h157.1
							V1844.883z"/>
						<path style="opacity:0.9;fill:#7D97F4;" d="M1231.16,2176.538v434.888c0,14.645,17.19,37.347,31.833,37.347h125.266v-472.235
							H1231.16z"/>
						<path style="opacity:0.9;fill:#7D97F4;" d="M1431.155,1844.883h-7.984v288.016h157.099v-147.822
							C1580.27,1902.995,1513.237,1844.883,1431.155,1844.883z"/>
						<path style="opacity:0.9;fill:#7D97F4;" d="M1423.171,2648.773h130.092c14.643,0,27.007-22.702,27.007-37.347v-434.888
							h-157.099V2648.773z"/>
					</g>
					
						<linearGradient id="SVGID_00000125604368993018685000000015520046488106560691_" gradientUnits="userSpaceOnUse" x1="1696.8124" y1="2434.8528" x2="1807.6404" y2="2434.8528">
						<stop  offset="0" style="stop-color:#DAE3FE"/>
						<stop  offset="1" style="stop-color:#E9EFFD"/>
					</linearGradient>
					<path style="fill:url(#SVGID_00000125604368993018685000000015520046488106560691_);" d="M1777.307,2650.594h-50.16
						c-16.727,0-30.334-13.608-30.334-30.334v-370.815c0-16.726,13.607-30.334,30.334-30.334h50.16
						c16.726,0,30.334,13.608,30.334,30.334v370.815C1807.64,2636.987,1794.033,2650.594,1777.307,2650.594z M1727.146,2222.754
						c-14.717,0-26.691,11.975-26.691,26.691v370.815c0,14.717,11.974,26.691,26.691,26.691h50.16
						c14.717,0,26.691-11.975,26.691-26.691v-370.815c0-14.717-11.975-26.691-26.691-26.691H1727.146z"/>
					
						<linearGradient id="SVGID_00000067227650532565962890000015142781786966409888_" gradientUnits="userSpaceOnUse" x1="1836.7858" y1="2434.8528" x2="1947.6136" y2="2434.8528">
						<stop  offset="0" style="stop-color:#DAE3FE"/>
						<stop  offset="1" style="stop-color:#E9EFFD"/>
					</linearGradient>
					<path style="fill:url(#SVGID_00000067227650532565962890000015142781786966409888_);" d="M1917.28,2650.594h-50.16
						c-16.726,0-30.334-13.608-30.334-30.334v-370.815c0-16.726,13.608-30.334,30.334-30.334h50.16
						c16.727,0,30.334,13.608,30.334,30.334v370.815C1947.614,2636.987,1934.007,2650.594,1917.28,2650.594z M1867.12,2222.754
						c-14.717,0-26.691,11.975-26.691,26.691v370.815c0,14.717,11.975,26.691,26.691,26.691h50.16
						c14.717,0,26.691-11.975,26.691-26.691v-370.815c0-14.717-11.974-26.691-26.691-26.691H1867.12z"/>
					
						<linearGradient id="SVGID_00000110434548934129399920000003294768464272127629_" gradientUnits="userSpaceOnUse" x1="1696.8124" y1="2723.9521" x2="1807.6404" y2="2723.9521">
						<stop  offset="0" style="stop-color:#DAE3FE"/>
						<stop  offset="1" style="stop-color:#E9EFFD"/>
					</linearGradient>
					<path style="fill:url(#SVGID_00000110434548934129399920000003294768464272127629_);" d="M1777.307,2775.611h-50.16
						c-16.727,0-30.334-13.607-30.334-30.334v-42.651c0-16.725,13.607-30.332,30.334-30.332h50.16
						c16.726,0,30.334,13.607,30.334,30.332v42.651C1807.64,2762.004,1794.033,2775.611,1777.307,2775.611z M1727.146,2675.936
						c-14.717,0-26.691,11.973-26.691,26.69v42.651c0,14.717,11.974,26.691,26.691,26.691h50.16
						c14.717,0,26.691-11.975,26.691-26.691v-42.651c0-14.717-11.975-26.69-26.691-26.69H1727.146z"/>
					
						<linearGradient id="SVGID_00000143591251561123572630000014167929168722417544_" gradientUnits="userSpaceOnUse" x1="1836.7858" y1="2723.9521" x2="1947.6136" y2="2723.9521">
						<stop  offset="0" style="stop-color:#DAE3FE"/>
						<stop  offset="1" style="stop-color:#E9EFFD"/>
					</linearGradient>
					<path style="fill:url(#SVGID_00000143591251561123572630000014167929168722417544_);" d="M1917.28,2775.611h-50.16
						c-16.726,0-30.334-13.607-30.334-30.334v-42.651c0-16.725,13.608-30.332,30.334-30.332h50.16
						c16.727,0,30.334,13.607,30.334,30.332v42.651C1947.614,2762.004,1934.007,2775.611,1917.28,2775.611z M1867.12,2675.936
						c-14.717,0-26.691,11.973-26.691,26.69v42.651c0,14.717,11.975,26.691,26.691,26.691h50.16
						c14.717,0,26.691-11.975,26.691-26.691v-42.651c0-14.717-11.974-26.69-26.691-26.69H1867.12z"/>
					<path style="fill:#FFFFFF;" d="M2459.151,2675.936h-378.173c-21.685,0-39.326-17.642-39.326-39.328v-654.769
						c0-103.543,84.24-187.781,187.783-187.781h81.261c103.543,0,187.781,84.238,187.781,187.781v654.769
						C2498.477,2658.293,2480.836,2675.936,2459.151,2675.936z M2229.436,1797.7c-101.535,0-184.14,82.604-184.14,184.139v654.769
						c0,19.677,16.008,35.685,35.683,35.685h378.173c19.675,0,35.684-16.008,35.684-35.685v-654.769
						c0-101.535-82.603-184.139-184.139-184.139H2229.436z"/>
					<path style="fill:#FFFFFF;" d="M1594.032,2675.936h-378.173c-21.685,0-39.326-17.642-39.326-39.328v-654.769
						c0-103.543,84.238-187.781,187.781-187.781h81.26c103.544,0,187.783,84.238,187.783,187.781v654.769
						C1633.358,2658.293,1615.717,2675.936,1594.032,2675.936z M1364.314,1797.7c-101.535,0-184.139,82.604-184.139,184.139v654.769
						c0,19.677,16.008,35.685,35.684,35.685h378.173c19.675,0,35.683-16.008,35.683-35.685v-654.769
						c0-101.535-82.605-184.139-184.14-184.139H1364.314z"/>
				</g>
				<g>
					
						<linearGradient id="SVGID_00000051382290743497912740000010126766362128938429_" gradientUnits="userSpaceOnUse" x1="2546.9563" y1="920.4331" x2="3303.7153" y2="17.3662">
						<stop  offset="0" style="stop-color:#4F52FF"/>
						<stop  offset="1" style="stop-color:#4042E2"/>
					</linearGradient>
					
						<rect x="2202.416" y="1148.323" style="fill:url(#SVGID_00000051382290743497912740000010126766362128938429_);" width="129.902" height="211.509"/>
					
						<linearGradient id="SVGID_00000150807221290729931750000011759824187264389559_" gradientUnits="userSpaceOnUse" x1="2257.9126" y1="854.928" x2="2292.1067" y2="1692.6816">
						<stop  offset="0" style="stop-color:#4F52FF"/>
						<stop  offset="1" style="stop-color:#4042E2"/>
					</linearGradient>
					<path style="fill:url(#SVGID_00000150807221290729931750000011759824187264389559_);" d="M2375.129,1182.595h-209.965v-58.855
						c0-3.367,2.729-6.096,6.095-6.096h194.592c5.124,0,9.278,4.154,9.278,9.278V1182.595z"/>
					
						<linearGradient id="SVGID_00000151529130847743597510000005302982864188915871_" gradientUnits="userSpaceOnUse" x1="2234.3179" y1="523.8061" x2="2153.5967" y2="776.0594">
						<stop  offset="0" style="stop-color:#4F52FF"/>
						<stop  offset="1" style="stop-color:#4042E2"/>
					</linearGradient>
					<path style="fill:url(#SVGID_00000151529130847743597510000005302982864188915871_);" d="M1025.18,1774.817l833.384-639.127
						l791.072,613.609c28.753,22.303,70.928,6.683,78.217-28.969l11.096-54.272l-880.385-670.652l-852.174,650.898
						c-15.258,11.654-20.795,32.099-13.503,49.86L1025.18,1774.817z"/>
				</g>
			</g>
			<g>
				<g>
					
						<linearGradient id="SVGID_00000155133610977318210900000000747962567267066797_" gradientUnits="userSpaceOnUse" x1="3933.4431" y1="2090.845" x2="2822.8105" y2="2786.7927" gradientTransform="matrix(0.6629 -0.2116 0.3426 1.0731 -654.9779 -280.2886)">
						<stop  offset="0" style="stop-color:#FF928E"/>
						<stop  offset="1" style="stop-color:#FE7062"/>
					</linearGradient>
					<path style="fill:url(#SVGID_00000155133610977318210900000000747962567267066797_);" d="M2859.373,1853.135l-749.483,239.249
						c-13.668,4.363-28.284-3.18-32.647-16.848l-171.622-537.633c-4.363-13.668,3.18-28.285,16.848-32.648l749.483-239.249
						c13.668-4.363,28.285,3.18,32.648,16.848l171.622,537.633C2880.584,1834.156,2873.041,1848.772,2859.373,1853.135z"/>
					<path style="fill:#FFFFFF;" d="M2837.485,1838.225l-716.467,228.709c-12.53,4-25.929-2.915-29.928-15.445l-159.34-499.157
						c-4-12.529,2.915-25.929,15.445-29.928l716.467-228.709c12.529-4,25.929,2.915,29.928,15.445l159.34,499.157
						C2856.93,1820.826,2850.015,1834.226,2837.485,1838.225z"/>
				</g>
				<g>
					
						<linearGradient id="SVGID_00000128448562830007274190000006535931916272811662_" gradientUnits="userSpaceOnUse" x1="5846.4434" y1="5016.4658" x2="1573.9069" y2="2547.1995" gradientTransform="matrix(0.9545 -0.2981 0.2981 0.9545 -214.6483 -347.1191)">
						<stop  offset="0" style="stop-color:#FF928E"/>
						<stop  offset="1" style="stop-color:#FE7062"/>
					</linearGradient>
					<path style="fill:url(#SVGID_00000128448562830007274190000006535931916272811662_);" d="M2206.302,1606.503l11.807,37.811
						l-63.019,19.677l22.039,70.58l-50.414,15.742l-57.458-184.013l118.474-36.993l12.594,40.331l-68.06,21.252l11.019,35.29
						L2206.302,1606.503z"/>
					
						<linearGradient id="SVGID_00000033335213531562693970000017597132291350913410_" gradientUnits="userSpaceOnUse" x1="5891.8491" y1="4938.0171" x2="1619.2611" y2="2468.7209" gradientTransform="matrix(0.9545 -0.2981 0.2981 0.9545 -214.6483 -347.1191)">
						<stop  offset="0" style="stop-color:#FF928E"/>
						<stop  offset="1" style="stop-color:#FE7062"/>
					</linearGradient>
					<path style="fill:url(#SVGID_00000033335213531562693970000017597132291350913410_);" d="M2239.598,1538.148
						c11.78-22.214,32.125-37.834,61.032-46.86c28.902-9.025,54.52-7.757,76.852,3.806c22.328,11.564,38.061,31.965,47.191,61.205
						c9.13,29.24,7.801,54.969-3.979,77.183c-11.785,22.215-32.13,37.835-61.031,46.86c-28.906,9.026-54.525,7.757-76.852-3.806
						c-22.333-11.563-38.062-31.965-47.192-61.205C2226.487,1586.091,2227.813,1560.364,2239.598,1538.148z M2287.293,1599.196
						c11.019,35.291,30.81,48.476,59.382,39.554c28.567-8.92,37.343-31.025,26.323-66.315
						c-11.02-35.291-30.814-48.475-59.381-39.555C2285.045,1541.801,2276.273,1563.906,2287.293,1599.196z"/>
					
						<linearGradient id="SVGID_00000099646619937957563300000002467542428718893726_" gradientUnits="userSpaceOnUse" x1="5936.7397" y1="4860.1963" x2="1664.2297" y2="2390.9453" gradientTransform="matrix(0.9545 -0.2981 0.2981 0.9545 -214.6483 -347.1191)">
						<stop  offset="0" style="stop-color:#FF928E"/>
						<stop  offset="1" style="stop-color:#FE7062"/>
					</linearGradient>
					<path style="fill:url(#SVGID_00000099646619937957563300000002467542428718893726_);" d="M2507.945,1560.729l20.071,64.278
						l-49.155,15.348l-57.064-182.753c21.057-9.341,42.511-17.423,64.359-24.245c50.414-15.742,81.525-4.708,93.332,33.103
						c3.305,10.587,3.098,21.441-0.623,32.562c-3.72,11.121-10.187,20.243-19.398,27.359l0.157,0.504
						c5.935,1.286,11.274,3.63,16.027,7.03c4.751,3.405,9.926,8.753,15.522,16.041l33.891,44.747l-51.675,16.135l-30.583-43.014
						c-3.687-5.303-7.351-8.771-10.993-10.4c-3.646-1.629-7.821-1.708-12.524-0.239L2507.945,1560.729z M2496.532,1524.178
						l13.864-4.329c8.57-2.676,14.664-6.93,18.285-12.764c3.617-5.832,4.275-12.444,1.965-19.841
						c-4.984-15.962-16.721-21.061-35.205-15.289c-5.381,1.68-9.868,3.545-13.47,5.59L2496.532,1524.178z"/>
					
						<linearGradient id="SVGID_00000007406871110902113160000015621643217156312709_" gradientUnits="userSpaceOnUse" x1="5665.5522" y1="5216.1938" x2="1393.0197" y2="2746.9294" gradientTransform="matrix(0.9545 -0.2981 0.2981 0.9545 -214.6483 -347.1191)">
						<stop  offset="0" style="stop-color:#FF928E"/>
						<stop  offset="1" style="stop-color:#FE7062"/>
					</linearGradient>
					<path style="fill:url(#SVGID_00000007406871110902113160000015621643217156312709_);" d="M2247.505,1860.882
						c-19.599-3.101-38.134-1.925-55.611,3.532c-7.901,2.467-13.431,5.716-16.598,9.748c-3.167,4.032-4.043,8.317-2.626,12.854
						c2.204,7.058,9.238,10.395,21.108,10.007c28.584-1.179,49.792,1.466,63.618,7.939c13.822,6.473,23.126,17.357,27.9,32.647
						c5.773,18.488,3.778,34.555-5.974,48.204c-9.755,13.654-27.487,24.49-53.199,32.518c-10.756,3.359-22.873,5.158-36.352,5.403
						c-13.479,0.245-24.757-1.165-33.829-4.237l-0.857-42.614c10.407,3.208,21.133,4.93,32.182,5.167
						c11.047,0.242,20.772-0.952,29.176-3.577c15.125-4.723,20.983-12.543,17.571-23.469c-2.204-7.058-10.632-10.417-25.282-10.088
						c-26.741,0.604-46.867-2.422-60.381-9.087c-13.518-6.66-22.635-17.555-27.357-32.678c-5.195-16.637-2.972-31.808,6.675-45.518
						c9.643-13.705,26.145-24.209,49.504-31.503c24.869-7.765,47.189-10.123,66.954-7.074L2247.505,1860.882z"/>
					
						<linearGradient id="SVGID_00000155846631311412740020000005540880374495496072_" gradientUnits="userSpaceOnUse" x1="5700.7656" y1="5155.1699" x2="1428.2952" y2="2685.9414" gradientTransform="matrix(0.9545 -0.2981 0.2981 0.9545 -214.6483 -347.1191)">
						<stop  offset="0" style="stop-color:#FF928E"/>
						<stop  offset="1" style="stop-color:#FE7062"/>
					</linearGradient>
					<path style="fill:url(#SVGID_00000155846631311412740020000005540880374495496072_);" d="M2362.281,1934.32l2.701,37.888
						l-52.431,16.372l3.039-202.903l52.936-16.529l117.955,165.123l-53.439,16.686l-19.59-32.614L2362.281,1934.32z
						 M2359.549,1893.675l33.274-10.39l-37.636-62.944l-0.505,0.158L2359.549,1893.675z"/>
					
						<linearGradient id="SVGID_00000129904877446871787090000014683436048693850509_" gradientUnits="userSpaceOnUse" x1="5744.6489" y1="5079.2764" x2="1472.1578" y2="2610.0359" gradientTransform="matrix(0.9545 -0.2981 0.2981 0.9545 -214.6483 -347.1191)">
						<stop  offset="0" style="stop-color:#FF928E"/>
						<stop  offset="1" style="stop-color:#FE7062"/>
					</linearGradient>
					<path style="fill:url(#SVGID_00000129904877446871787090000014683436048693850509_);" d="M2504.896,1726.566l44.471,142.421
						l74.361-23.219l12.987,41.592l-126.036,39.355l-57.458-184.013L2504.896,1726.566z"/>
					
						<linearGradient id="SVGID_00000019646962219053873630000011697965608599467909_" gradientUnits="userSpaceOnUse" x1="5794.8032" y1="4992.5098" x2="1522.3204" y2="2523.2742" gradientTransform="matrix(0.9545 -0.2981 0.2981 0.9545 -214.6483 -347.1191)">
						<stop  offset="0" style="stop-color:#FF928E"/>
						<stop  offset="1" style="stop-color:#FE7062"/>
					</linearGradient>
					<path style="fill:url(#SVGID_00000019646962219053873630000011697965608599467909_);" d="M2747.747,1728.198l11.806,37.811
						l-65.539,20.464l11.019,35.291l70.581-22.039l12.594,40.331l-120.995,37.781l-57.458-184.013l120.995-37.781l12.594,40.332
						l-70.581,22.039l9.445,30.249L2747.747,1728.198z"/>
				</g>
				
					<ellipse transform="matrix(0.7071 -0.7071 0.7071 0.7071 -471.1426 1910.0706)" style="fill:#91B3FA;" cx="2070.088" cy="1523.755" rx="15.136" ry="15.136"/>
				
					<ellipse transform="matrix(0.2298 -0.9732 0.9732 0.2298 613.0491 3526.1382)" style="fill:#91B3FA;" cx="2534.256" cy="1375.759" rx="15.136" ry="15.136"/>
				<path style="fill:#7D97F4;" d="M2070.088,1525.438c-0.759,0-1.531-0.128-2.283-0.401c-3.495-1.261-5.305-5.116-4.043-8.611
					c8.547-23.691,16.552-46.715,24.294-68.982c36.726-105.625,65.737-189.055,106.924-208.922c3.344-1.609,7.371-0.212,8.984,3.135
					c1.613,3.347,0.21,7.368-3.137,8.982c-36.161,17.442-65.773,102.609-100.062,201.224c-7.755,22.303-15.773,45.365-24.35,69.128
					C2075.425,1523.733,2072.844,1525.438,2070.088,1525.438z"/>
				<path style="fill:#7D97F4;" d="M2532.568,1377.442c-1.186,0-2.388-0.314-3.475-0.972l-13.714-8.297
					c-123.104-74.492-125.456-75.914-180.876-91.901c-3.567-1.03-5.627-4.76-4.599-8.328c1.028-3.571,4.753-5.63,8.33-4.6
					c57.131,16.481,61.9,19.368,184.111,93.318l13.71,8.296c3.18,1.923,4.198,6.06,2.273,9.238
					C2537.065,1376.286,2534.844,1377.442,2532.568,1377.442z"/>
			</g>
		</g>
		<g>
			
				<linearGradient id="SVGID_00000177459053431991234630000006217559363465434811_" gradientUnits="userSpaceOnUse" x1="3231.6602" y1="1997.3436" x2="3307.9404" y2="2188.6912" gradientTransform="matrix(1 0 0 1 -383.1273 0)">
				<stop  offset="0" style="stop-color:#09005D"/>
				<stop  offset="1" style="stop-color:#1A0F91"/>
			</linearGradient>
			<path style="fill:url(#SVGID_00000177459053431991234630000006217559363465434811_);" d="M2893.763,2100.273
				c0,0,25.716,12.508,30.444,26.877c3.794,11.529,32.229,13.016,35.038,35.691c1.45,11.707,10.114,21.083,21.774,22.87
				c29.042,4.451,73.797,19.532,80.958,69.955c5.466,38.487-14.154,53.081-34.745,58.132c-15.123,3.71-25.174,18.42-22.115,33.688
				c2.934,14.645-1.441,31.575-26.812,44.962c-56.854,30-113.633-71.073-113.633-71.073l-11.636-176.479L2893.763,2100.273z"/>
			
				<linearGradient id="SVGID_00000062154006305613603450000008639624377859353763_" gradientUnits="userSpaceOnUse" x1="2753.3264" y1="2901.542" x2="2894.2478" y2="3222.1702" gradientTransform="matrix(0.9776 -0.2106 0.2106 0.9776 -633.5472 -113.5247)">
				<stop  offset="0" style="stop-color:#FEBBBA"/>
				<stop  offset="1" style="stop-color:#FF928E"/>
			</linearGradient>
			<path style="fill:url(#SVGID_00000062154006305613603450000008639624377859353763_);" d="M2584.401,2058.435
				c0,0,113.518,179.553,248.504,214.234c0,0-26.302,74.914-46.604,83.488c0,0-166.071-138.567-208.749-272.208L2584.401,2058.435z"
				/>
			
				<linearGradient id="SVGID_00000014624690555820867620000012436348465015176894_" gradientUnits="userSpaceOnUse" x1="3510.5083" y1="3222.3708" x2="3575.1912" y2="3222.3708" gradientTransform="matrix(1 0 0 1 -383.1273 0)">
				<stop  offset="0" style="stop-color:#4F52FF"/>
				<stop  offset="1" style="stop-color:#4042E2"/>
			</linearGradient>
			<path style="fill:url(#SVGID_00000014624690555820867620000012436348465015176894_);" d="M3127.458,3206.858l3.679,30.245
				c0.698,5.738,5.215,10.275,10.958,10.931c9.696,1.108,25.255,2.243,40.479,0.634c6.682-0.706,11.02-7.473,8.985-13.876
				c-3.711-11.676-10.5-29.203-20.289-39.517h-33.551C3131.515,3195.274,3126.709,3200.7,3127.458,3206.858z"/>
			
				<linearGradient id="SVGID_00000124840508901568541710000005503683412486595762_" gradientUnits="userSpaceOnUse" x1="3237.1902" y1="3477.4441" x2="3330.2734" y2="2389.5334" gradientTransform="matrix(1 0 0 1 -383.1273 0)">
				<stop  offset="0" style="stop-color:#FEBBBA"/>
				<stop  offset="1" style="stop-color:#FF928E"/>
			</linearGradient>
			<path style="fill:url(#SVGID_00000124840508901568541710000005503683412486595762_);" d="M2864.673,2852.555l-5.663,33.312
				c0,0,18.964,192.09,22.337,268.926c0.529,12.046-2.587,23.951-8.91,34.219l-32.975,53.549l83.806-49.453l1.668-10.227
				l-13.719-18.863l17.97-215.189c1.056-12.641-1.553-25.319-7.513-36.517l-17.335-32.566L2864.673,2852.555z"/>
			
				<linearGradient id="SVGID_00000146472653625582846820000003384375388171855247_" gradientUnits="userSpaceOnUse" x1="3209.9976" y1="3210.5613" x2="3314.6594" y2="3210.5613" gradientTransform="matrix(1 0 0 1 -383.1273 0)">
				<stop  offset="0" style="stop-color:#4F52FF"/>
				<stop  offset="1" style="stop-color:#4042E2"/>
			</linearGradient>
			<path style="fill:url(#SVGID_00000146472653625582846820000003384375388171855247_);" d="M2833.942,3250.318h26.744
				c5.006,0,9.727-2.298,12.78-6.265c8.337-10.833,25.611-31.969,33.871-32.521c11.119-0.743,9.697,38.787,9.697,38.787h6.233
				l7.895-49.12c1.987-12.359-4.16-24.602-15.258-30.393h0c0,0-2.542,18.797-16.324,27.112c-13.782,8.314-56.084,38.09-56.084,38.09
				s-5.181-0.739-10.87,0.289C2824.188,3237.822,2825.367,3250.318,2833.942,3250.318z"/>
			
				<linearGradient id="SVGID_00000052822468725199378260000014759508142857406635_" gradientUnits="userSpaceOnUse" x1="3424.4329" y1="3493.6318" x2="3517.5405" y2="2405.4351" gradientTransform="matrix(1 0 0 1 -383.1273 0)">
				<stop  offset="0" style="stop-color:#FEBBBA"/>
				<stop  offset="1" style="stop-color:#FF928E"/>
			</linearGradient>
			<path style="fill:url(#SVGID_00000052822468725199378260000014759508142857406635_);" d="M2979.459,2868.377
				c0,0,111.097,210.74,128.758,258.856c17.66,48.115,23.847,88.255,24.084,92.055c0.37,5.939,7.757,11.636,28.12,11.636
				c10.509,0,15.656-4.212,18.176-8.29c2.15-3.479,2.261-7.832,0.449-11.498c-6.427-13.006-26.821-54.569-34.374-73.42
				c-9.018-22.508-28.416-124.507-39.055-159.971c-10.638-35.464-22.664-73.934-68.992-109.369
				C3036.625,2868.377,3004.823,2837.228,2979.459,2868.377z"/>
			
				<linearGradient id="SVGID_00000136412904767783161900000005072468502695245975_" gradientUnits="userSpaceOnUse" x1="3379.2207" y1="2171.6667" x2="3159.4695" y2="2268.0884">
				<stop  offset="0" style="stop-color:#FF928E"/>
				<stop  offset="1" style="stop-color:#FE7062"/>
			</linearGradient>
			<path style="fill:url(#SVGID_00000136412904767783161900000005072468502695245975_);" d="M2909.277,2523.067
				c-28.658-121.436,43.941-190.118,43.941-190.118c-45.809-43.971-129.272-63.98-129.272-63.98s-79.642,58.226-70.194,103.8
				c5.537,26.711,55.981,159.995,55.981,159.995S2856.378,2554.839,2909.277,2523.067z"/>
			
				<linearGradient id="SVGID_00000119817418937117600800000010878291611388701344_" gradientUnits="userSpaceOnUse" x1="3077.5605" y1="2303.9077" x2="2768.1145" y2="3111.158">
				<stop  offset="0" style="stop-color:#09005D"/>
				<stop  offset="1" style="stop-color:#1A0F91"/>
			</linearGradient>
			<path style="fill:url(#SVGID_00000119817418937117600800000010878291611388701344_);" d="M2972.816,2583.187
				c-11.663-35.135-63.539-60.119-63.539-60.119c-52.9,31.772-99.544,9.697-99.544,9.697s-10.46,39.984-3.24,77.142
				c7.22,37.158,52.517,275.961,52.517,275.961c71.373,14.462,181.144-14.55,181.144-14.55
				C2994.691,2790.602,2984.479,2618.322,2972.816,2583.187z"/>
			
				<linearGradient id="SVGID_00000040572382131159999950000014838750757351887255_" gradientUnits="userSpaceOnUse" x1="3226.9819" y1="2405.0898" x2="3244.4675" y2="2277.1711" gradientTransform="matrix(1 0 0 1 -383.1273 0)">
				<stop  offset="0" style="stop-color:#FEBBBA"/>
				<stop  offset="1" style="stop-color:#FF928E"/>
			</linearGradient>
			<path style="fill:url(#SVGID_00000040572382131159999950000014838750757351887255_);" d="M2876.012,2188.72l23.3,104.657
				c2.231,9.219-6.173,7.71-15.493,5.953c-15.263-2.877-34.935-8.804-41.511-20.68c-0.669-1.209-1.004-2.575-1.192-3.944
				l-10.01-72.572c-0.794-5.758,2.318-11.346,7.632-13.702l19.316-8.565C2865.491,2176.569,2874.099,2180.813,2876.012,2188.72z"/>
			
				<linearGradient id="SVGID_00000037694363253294920350000008636203803608832679_" gradientUnits="userSpaceOnUse" x1="3299.0479" y1="2467.4255" x2="3415.2017" y2="2467.4255" gradientTransform="matrix(1 0 0 1 -383.1273 0)">
				<stop  offset="0" style="stop-color:#FEBBBA"/>
				<stop  offset="1" style="stop-color:#FF928E"/>
			</linearGradient>
			<path style="fill:url(#SVGID_00000037694363253294920350000008636203803608832679_);" d="M2953.219,2332.949
				c0,0,162.62,116.346,20.798,238.602c0,0-5.408,6.118-16.046,9.298c-5.371,1.605-21.259,13.626-29.313,19.893
				c-2.59,2.015-6.331,1.329-8.072-1.452l0,0c-1.364-2.179-1.524-4.903-0.425-7.227l20.132-42.572
				c5.591-5.218,14.148-5.588,20.169-0.873l0,0c3.841,3.008,9.467,1.748,11.617-2.631c10.963-22.329,31.665-88.001-53.066-162.208
				c-3.185-2.79-3.991-7.403-2.036-11.159C2922.929,2361.184,2936.544,2338.474,2953.219,2332.949z"/>
			<g>
				
					<linearGradient id="SVGID_00000052090128707111167290000009251743809289993618_" gradientUnits="userSpaceOnUse" x1="2903.1021" y1="2971.0999" x2="3055.6692" y2="2699.5815" gradientTransform="matrix(0.9809 -0.1943 0.1943 0.9809 -612.2173 -99.2406)">
					<stop  offset="0" style="stop-color:#FEBBBA"/>
					<stop  offset="1" style="stop-color:#FF928E"/>
				</linearGradient>
				<path style="fill:url(#SVGID_00000052090128707111167290000009251743809289993618_);" d="M2831.385,2093.314
					c0,0-24.805,16.791-35.464,59.551c-10.659,42.76,6.663,58.099,24.418,57.159c17.755-0.94,43.5-6.431,65.805-37.107
					C2908.45,2142.24,2863.89,2072.797,2831.385,2093.314z"/>
				
					<linearGradient id="SVGID_00000144309067945591356380000007438633179725761932_" gradientUnits="userSpaceOnUse" x1="2935.9128" y1="2734.6506" x2="3012.1963" y2="2926.0061" gradientTransform="matrix(0.9809 -0.1943 0.1943 0.9809 -612.2173 -99.2406)">
					<stop  offset="0" style="stop-color:#09005D"/>
					<stop  offset="1" style="stop-color:#1A0F91"/>
				</linearGradient>
				<path style="fill:url(#SVGID_00000144309067945591356380000007438633179725761932_);" d="M2863.651,2155.67
					c0,0,9.089-61.272-41.782-51.9l-10.286,10.709c0,0-24.9-28.042,2.656-49.239c27.555-21.197,65.794-15.769,86.949,22.821
					c21.156,38.59,28.833,65.707,11.102,89.686c-17.732,23.979-31.07,3.413-31.07,3.413s8.132-20.754,1.385-29.66
					s-15.453,5.179-15.453,5.179L2863.651,2155.67z"/>
				
					<linearGradient id="SVGID_00000002353294120031118720000009949435640593947568_" gradientUnits="userSpaceOnUse" x1="2935.5771" y1="2989.3503" x2="3088.1445" y2="2717.8318" gradientTransform="matrix(0.9809 -0.1943 0.1943 0.9809 -612.2173 -99.2406)">
					<stop  offset="0" style="stop-color:#FEBBBA"/>
					<stop  offset="1" style="stop-color:#FF928E"/>
				</linearGradient>
				<path style="fill:url(#SVGID_00000002353294120031118720000009949435640593947568_);" d="M2870.604,2160.917
					c0,0,4.487-31.524,20.587-22.512c16.1,9.012-5.802,29.448-14.584,36.401L2870.604,2160.917z"/>
			</g>
			<g>
				
					<linearGradient id="SVGID_00000118371532306388173610000014641567474734711463_" gradientUnits="userSpaceOnUse" x1="2725.4778" y1="2913.7822" x2="2866.3992" y2="3234.4102" gradientTransform="matrix(0.9776 -0.2106 0.2106 0.9776 -633.5472 -113.5247)">
					<stop  offset="0" style="stop-color:#FEBBBA"/>
					<stop  offset="1" style="stop-color:#FF928E"/>
				</linearGradient>
				<path style="fill:url(#SVGID_00000118371532306388173610000014641567474734711463_);" d="M2585.181,2095.399
					c-0.344,3.704,13.429,6.263,17.813-9.526c-1.205-6.855-3.345-36.875-8.601-41.539c-27.994-24.839-77.914-52.782-77.914-52.782
					c-5.583,8.524,1.739,14.138,1.739,14.138l24.919,16.817c-2.599,8.609-6.393,16.221-6.822,26.05
					c-0.325,7.443,2.425,14.731,7.365,20.377c4.959,5.667,11.635,12.983,17.653,18.537
					C2572.724,2097.985,2585.181,2095.399,2585.181,2095.399z"/>
				
					<linearGradient id="SVGID_00000119085584530021748390000011188096101127241896_" gradientUnits="userSpaceOnUse" x1="-4136.4263" y1="2057.521" x2="-4098.4761" y2="2057.521" gradientTransform="matrix(-1 0 0 1 -1548.5605 0)">
					<stop  offset="0" style="stop-color:#FEBBBA"/>
					<stop  offset="1" style="stop-color:#FF928E"/>
				</linearGradient>
				<path style="fill:url(#SVGID_00000119085584530021748390000011188096101127241896_);" d="M2571.64,2083.161l3.812-1.566
					c-0.506-1.233-12.465-30.291-18.248-36.335c-2.195-2.294-3.258-4.259-3.161-5.841c0.053-0.855,0.474-1.702,1.279-2.565
					l20.166,10.782l8.905,13.945l3.473-2.218l-9.485-14.854l-23.618-12.628l-1.063,0.868c-2.391,1.951-3.623,4.05-3.77,6.416
					c-0.173,2.816,1.232,5.741,4.296,8.944C2558.581,2052.661,2568.273,2074.954,2571.64,2083.161z"/>
			</g>
		</g>
		<g>
			<g>
				
					<linearGradient id="SVGID_00000113324697039448098060000009425919993425552026_" gradientUnits="userSpaceOnUse" x1="1583.2422" y1="2471.3364" x2="1485.6998" y2="2531.8799">
					<stop  offset="0" style="stop-color:#FF928E"/>
					<stop  offset="1" style="stop-color:#FE7062"/>
				</linearGradient>
				<path style="fill:url(#SVGID_00000113324697039448098060000009425919993425552026_);" d="M1346.437,2692.062
					c-52.885-61.372-39.474-101.762-14.494-138.49l24.341,124.778L1346.437,2692.062z"/>
				
					<linearGradient id="SVGID_00000154406182006822611460000008281868996865920688_" gradientUnits="userSpaceOnUse" x1="-1822.8348" y1="2506.1162" x2="-1840.3092" y2="2838.1294" gradientTransform="matrix(-1 0 0 1 -536.4754 0)">
					<stop  offset="0" style="stop-color:#FF928E"/>
					<stop  offset="1" style="stop-color:#FE7062"/>
				</linearGradient>
				<path style="fill:url(#SVGID_00000154406182006822611460000008281868996865920688_);" d="M1346.437,2692.062
					c-23.737-46.164-28.569-92.327-14.494-138.49c-52.248,17.753-85.022,48.824-88.103,100.201L1346.437,2692.062z"/>
				
					<linearGradient id="SVGID_00000070102467482807822180000004116207455834753465_" gradientUnits="userSpaceOnUse" x1="-1797.7056" y1="2874.9973" x2="-1862.1377" y2="3258.9043" gradientTransform="matrix(-1 0 0 1 -536.4754 0)">
					<stop  offset="0" style="stop-color:#FF928E"/>
					<stop  offset="1" style="stop-color:#FE7062"/>
				</linearGradient>
				<path style="fill:url(#SVGID_00000070102467482807822180000004116207455834753465_);" d="M1282.337,3235.058h57.446
					c5.759,0,10.471-4.712,10.471-10.471v-105.382c0-5.759-4.712-10.471-10.471-10.471h-57.446c-5.759,0-10.471,4.712-10.471,10.471
					v105.382C1271.865,3230.346,1276.578,3235.058,1282.337,3235.058z"/>
				
					<linearGradient id="SVGID_00000182489117100584492300000003606897729809102267_" gradientUnits="userSpaceOnUse" x1="-1458.1224" y1="2933.1375" x2="-1522.5546" y2="3317.0444" gradientTransform="matrix(-1 0 0 1 -536.4754 0)">
					<stop  offset="0" style="stop-color:#FF928E"/>
					<stop  offset="1" style="stop-color:#FE7062"/>
				</linearGradient>
				<path style="fill:url(#SVGID_00000182489117100584492300000003606897729809102267_);" d="M934.852,3246.122h57.446
					c5.759,0,10.471-4.712,10.471-10.471v-105.382c0-5.759-4.712-10.471-10.471-10.471h-57.446c-5.759,0-10.471,4.712-10.471,10.471
					v105.382C924.381,3241.409,929.093,3246.122,934.852,3246.122z"/>
				
					<linearGradient id="SVGID_00000095316766342230951410000013273118392463658905_" gradientUnits="userSpaceOnUse" x1="1270.8523" y1="2732.7493" x2="898.6215" y2="3270.9146">
					<stop  offset="0" style="stop-color:#FF928E"/>
					<stop  offset="1" style="stop-color:#FE7062"/>
				</linearGradient>
				<path style="fill:url(#SVGID_00000095316766342230951410000013273118392463658905_);" d="M1118.912,2615.158
					c193.683,0,354.203,107.064,383.19,246.995h28.143c19.407,0,35.14,15.732,35.14,35.139v76.013
					c0,19.407-15.732,35.139-35.14,35.139h-47.109c-54.454,111.891-196.976,191.722-364.224,191.722
					c-214.211,0-387.863-130.958-387.863-292.504S904.701,2615.158,1118.912,2615.158z"/>
				
					<linearGradient id="SVGID_00000042736451256828095090000016906383781976424621_" gradientUnits="userSpaceOnUse" x1="-1862.2319" y1="2840.9695" x2="-1917.553" y2="2812.3809" gradientTransform="matrix(-1 0 0 1 -536.4754 0)">
					<stop  offset="0" style="stop-color:#2B3582"/>
					<stop  offset="0.6502" style="stop-color:#150E42"/>
				</linearGradient>
				
					<circle style="fill:url(#SVGID_00000042736451256828095090000016906383781976424621_);" cx="1346.437" cy="2830.282" r="17.822"/>
				
					<linearGradient id="SVGID_00000054238373125328137390000004129107775234775425_" gradientUnits="userSpaceOnUse" x1="-1683.9437" y1="2722.7549" x2="-1495.1963" y2="2722.7549" gradientTransform="matrix(-0.9985 0.0554 0.0554 0.9985 -707.7161 17.3755)">
					<stop  offset="0" style="stop-color:#E1473D"/>
					<stop  offset="1" style="stop-color:#E9605A"/>
				</linearGradient>
				<path style="fill:url(#SVGID_00000054238373125328137390000004129107775234775425_);" d="M941.799,2667.287
					c72.096-23.372,113.279-30.201,178.294-29.52c2.104,0.022,3.86-1.625,3.947-3.727l0,0c0.09-2.192-1.662-4.033-3.856-4.055
					c-66.049-0.685-107.939,6.23-180.826,29.817c-2.182,0.706-3.293,3.146-2.384,5.25l0.036,0.083
					C937.806,2666.979,939.889,2667.906,941.799,2667.287z"/>
				
					<linearGradient id="SVGID_00000137129911777811626380000011742851095842480318_" gradientUnits="userSpaceOnUse" x1="1480.4194" y1="2359.6809" x2="1391.2855" y2="2455.542">
					<stop  offset="0" style="stop-color:#FF928E"/>
					<stop  offset="1" style="stop-color:#FE7062"/>
				</linearGradient>
				<path style="fill:url(#SVGID_00000137129911777811626380000011742851095842480318_);" d="M1280.116,2679.136
					c-71.416-82.877-53.307-137.42-19.573-187.018l32.871,168.502L1280.116,2679.136z"/>
				
					<linearGradient id="SVGID_00000098194458783583790800000002090653782164148376_" gradientUnits="userSpaceOnUse" x1="1270.899" y1="2505.7227" x2="1193.5376" y2="2680.6265">
					<stop  offset="0" style="stop-color:#FF928E"/>
					<stop  offset="1" style="stop-color:#FE7062"/>
				</linearGradient>
				<path style="fill:url(#SVGID_00000098194458783583790800000002090653782164148376_);" d="M1280.116,2679.136
					c-32.055-62.339-38.579-124.679-19.573-187.018c-70.556,23.974-114.814,65.933-118.975,135.312L1280.116,2679.136z"/>
				
					<linearGradient id="SVGID_00000142159454060327296150000011158901026666219665_" gradientUnits="userSpaceOnUse" x1="-1266.46" y1="2535.1084" x2="-1198.3104" y2="3669.1909" gradientTransform="matrix(-1 0 0 1 -536.4754 0)">
					<stop  offset="0" style="stop-color:#FF928E"/>
					<stop  offset="1" style="stop-color:#FE7062"/>
				</linearGradient>
				<path style="fill:url(#SVGID_00000142159454060327296150000011158901026666219665_);" d="M773.783,2863.392
					c0,0-0.146-1.235-0.419-3.549c-0.068-0.579-0.144-1.225-0.228-1.936c-0.191-1.035-0.399-2.165-0.624-3.385
					c-0.254-1.219-0.527-2.529-0.818-3.927c-0.315-1.371-0.757-2.555-1.179-3.951c-1.636-5.463-4.525-11.852-8.947-18.361
					c-4.418-6.498-10.533-13.073-18.456-18.455c-7.888-5.385-17.608-9.539-28.323-11.23c-2.677-0.36-5.415-0.622-8.166-0.758
					c-1.378,0.009-2.764,0.017-4.159,0.025l-2.091,0.032c0.107-0.009-1.422,0.072-0.823,0.044l-0.104,0.012l-0.208,0.024
					l-0.416,0.049l-0.834,0.098l-1.675,0.198c-0.59,0.076-1.003,0.095-1.944,0.278c-1.648,0.298-3.3,0.629-4.943,0.992
					c-3.009,0.857-5.845,1.693-8.642,2.994c-5.58,2.447-10.881,5.759-15.446,9.963c-4.567,4.195-8.474,9.157-11.472,14.654
					c-2.979,5.497-5.143,11.511-6.06,17.734c-0.419,3.106-0.746,6.236-0.63,9.355l0.032,2.337l0.036,0.699l0.014,0.115l0.027,0.231
					l0.055,0.463l0.109,0.925l0.232,1.898l0.512,2.706c0.191,0.873,0.356,1.852,0.601,2.623l0.738,2.337
					c0.449,1.57,1.151,3.048,1.79,4.541c0.601,1.511,1.498,2.879,2.256,4.302c0.803,1.401,1.783,2.69,2.685,4.015
					c3.858,5.142,8.809,9.334,14.299,12.34c5.493,3.009,11.562,4.794,17.601,5.271c1.507,0.188,3.014,0.141,4.51,0.128l1.12-0.015
					l0.279-0.005l0.14-0.003c-0.048,0.006,0.942-0.049,0.574-0.032l0.442-0.052l1.766-0.208c0.463-0.032,1.51-0.237,2.32-0.393
					c0.84-0.173,1.736-0.337,2.511-0.552c1.468-0.485,2.965-0.855,4.351-1.51c11.384-4.645,19.215-14.906,21.348-25.537
					c0.281-1.33,0.522-2.651,0.606-3.984c0.056-0.663,0.134-1.323,0.159-1.98l-0.009-1.966l-0.013-0.975l-0.004-0.243l-0.025-0.6
					l-0.045-0.384l-0.18-1.528c-0.173-1.143-0.494-2.957-0.868-4.159c-0.712-2.55-1.824-4.91-3.104-7.086
					c-1.366-2.122-2.86-4.106-4.634-5.739c-6.899-6.773-16.519-8.848-23.667-7.643c-8.494,1.45-13.656,6.513-16.43,11.336
					c-1.395,2.416-2.164,4.814-2.553,6.92c-0.433,2.106-0.43,3.934-0.39,5.39c0.062,1.516,0.303,2.69,0.481,3.456
					c0.185,0.771,0.314,1.159,0.314,1.159c0.777,2.338,3.302,3.604,5.64,2.827c2.127-0.707,3.367-2.86,2.988-5.003l-0.03-0.168
					c0,0-0.037-0.209-0.108-0.615c-0.054-0.411-0.128-1.008-0.083-1.823c0.091-1.711,0.479-4.311,2.29-6.897
					c0.892-1.28,2.115-2.539,3.675-3.523c0.801-0.456,1.637-0.914,2.574-1.204c0.894-0.362,2.015-0.494,2.689-0.588
					c0.181-0.038,0.706-0.034,1.046-0.053l0.579-0.021l0.291-0.011c-0.557,0.03-0.123,0.012-0.233,0.019l0.054,0.005l0.109,0.01
					c0.58,0.071,1.172,0.059,1.756,0.17c1.169,0.199,2.356,0.464,3.497,0.941c2.287,0.903,4.506,2.348,6.219,4.382
					c0.909,0.966,1.589,2.144,2.235,3.323c0.56,1.232,1.05,2.511,1.29,3.872c0.109,0.364,0.08,0.588,0.123,0.861l0.056,0.393
					l0.035,0.196l0.017,0.358l0.055,1.538l0.014,0.387c-0.036-0.691-0.014-0.15-0.024-0.285l-0.007,0.072l-0.013,0.144l-0.051,0.577
					l-0.085,1.156c-0.049,0.384-0.143,0.761-0.206,1.143c-0.099,0.77-0.322,1.516-0.549,2.262
					c-1.731,5.965-6.725,11.223-12.904,13.077c-0.743,0.309-1.566,0.371-2.335,0.591c-0.363,0.065-0.637,0.056-0.953,0.107
					c-0.353,0.032-0.457,0.117-1.18,0.122l-1.777,0.063l-0.445,0.016c-0.442,0.022,0.474-0.024,0.352-0.024l-0.083-0.008
					l-0.166-0.016l-0.664-0.059c-0.884-0.079-1.772-0.093-2.635-0.307c-3.482-0.588-6.818-1.915-9.747-3.872
					c-2.923-1.956-5.458-4.515-7.285-7.483c-0.394-0.78-0.892-1.493-1.241-2.286c-0.303-0.813-0.776-1.545-0.984-2.388
					c-0.247-0.824-0.591-1.61-0.718-2.463l-0.284-1.245c-0.105-0.42-0.066-0.686-0.123-1.029c-0.037-0.323-0.085-0.643-0.146-0.961
					l-0.073-1.814l-0.033-0.931l-0.017-0.466l-0.008-0.232l-0.004-0.117c-0.009-0.165,0.055,0.999,0.032,0.466l0.123-1.385
					c0.065-1.85,0.462-3.647,0.832-5.416c0.819-3.536,2.396-6.816,4.331-9.748c1.957-2.928,4.37-5.481,7.057-7.554
					c2.688-2.083,5.712-3.558,8.752-4.582c1.475-0.577,3.148-0.841,4.552-1.15c0.608-0.041,1.197-0.112,1.779-0.214
					c0.168-0.067,0.889-0.07,1.42-0.093l1.686-0.06l0.839-0.03l0.419-0.015l0.209-0.008l0.105-0.003
					c0.668-0.034-0.791,0.042-0.614,0.038l1.242,0.113c0.821,0.062,1.638,0.125,2.45,0.186c1.604,0.24,3.174,0.534,4.701,0.856
					c6.074,1.543,11.318,4.379,15.448,7.765c4.146,3.387,7.156,7.299,9.207,11c2.047,3.713,3.298,7.18,3.85,10.12
					c0.136,0.704,0.381,1.469,0.427,1.999c0.034,0.515,0.083,0.989,0.142,1.426c0.07,0.441,0.135,0.85,0.195,1.224
					c0.026,0.715,0.049,1.365,0.069,1.948c0.083,2.329,0.127,3.571,0.127,3.571c0.344,9.653,8.448,17.2,18.1,16.856
					c9.653-0.344,17.199-8.448,16.856-18.101C773.876,2864.355,773.836,2863.85,773.783,2863.392z"/>
				<path style="opacity:0.7;fill:#FFFFFF;" d="M842.165,3070.167c-0.739,0-1.481-0.243-2.102-0.742
					c-33.898-27.24-59.985-58.617-77.545-93.258c-0.841-1.657-0.177-3.68,1.478-4.521c1.649-0.839,3.679-0.179,4.52,1.48
					c17.126,33.782,42.616,64.418,75.758,91.057c1.448,1.163,1.678,3.28,0.516,4.728
					C844.126,3069.737,843.151,3070.167,842.165,3070.167z"/>
				<path style="opacity:0.7;fill:#FFFFFF;" d="M1142.246,3167.544c-84.295,0-171.718-21.076-241.889-58.571
					c-1.636-0.875-2.257-2.914-1.38-4.551c0.874-1.639,2.91-2.258,4.553-1.381c72.96,38.986,164.823,59.949,252.174,57.594
					c90.888-2.485,168.466-29.304,218.44-75.522c1.36-1.26,3.485-1.181,4.753,0.186c1.261,1.365,1.176,3.493-0.187,4.755
					c-51.169,47.323-130.304,74.778-222.822,77.306C1151.355,3167.482,1146.802,3167.544,1142.246,3167.544z"/>
			</g>
			<g>
				<g>
					
						<linearGradient id="SVGID_00000181765342415717407950000012334333654459137208_" gradientUnits="userSpaceOnUse" x1="478.2476" y1="2232.9724" x2="613.558" y2="2075.916">
						<stop  offset="0" style="stop-color:#FF928E"/>
						<stop  offset="1" style="stop-color:#FE7062"/>
					</linearGradient>
					
						<circle style="fill:url(#SVGID_00000181765342415717407950000012334333654459137208_);" cx="616.291" cy="2072.744" r="100.879"/>
					
						<linearGradient id="SVGID_00000044152587834440852430000008122515961706312120_" gradientUnits="userSpaceOnUse" x1="690.0171" y1="1961.3646" x2="289.9007" y2="2565.8264">
						<stop  offset="0" style="stop-color:#FF928E"/>
						<stop  offset="1" style="stop-color:#FE7062"/>
					</linearGradient>
					
						<circle style="fill:url(#SVGID_00000044152587834440852430000008122515961706312120_);" cx="616.291" cy="2072.744" r="97.525"/>
					<path style="opacity:0.7;fill:#FFFFFF;" d="M535.868,2036.329c-0.62,0-1.25-0.14-1.842-0.44c-2.02-1.02-2.83-3.485-1.81-5.501
						c16.118-31.932,48.335-51.766,84.075-51.766c5.707,0,11.417,0.512,16.974,1.528c2.226,0.404,3.702,2.536,3.296,4.765
						c-0.406,2.224-2.539,3.72-4.765,3.292c-5.075-0.924-10.291-1.392-15.506-1.392c-32.632,0-62.045,18.11-76.763,47.261
						C538.809,2035.505,537.366,2036.329,535.868,2036.329z"/>
					
						<ellipse transform="matrix(0.7071 -0.7071 0.7071 0.7071 -1286.0238 1045.001)" style="opacity:0.78;fill:#FFFFFF;" cx="618.416" cy="2074.869" rx="82.543" ry="82.543"/>
					<g>
						
							<linearGradient id="SVGID_00000043442688024589756980000014104872974497924009_" gradientUnits="userSpaceOnUse" x1="760.0944" y1="1901.5651" x2="706.2777" y2="1968.8359">
							<stop  offset="0" style="stop-color:#FF928E"/>
							<stop  offset="1" style="stop-color:#FE7062"/>
						</linearGradient>
						<path style="fill:url(#SVGID_00000043442688024589756980000014104872974497924009_);" d="M610.316,2136.232v-8.98
							c-9.362-0.375-18.621-2.584-25.198-5.463c-2.349-1.028-3.545-3.664-2.871-6.136l2.281-8.365
							c0.837-3.069,4.174-4.656,7.107-3.426c6.524,2.735,14.579,4.898,23.265,4.898c9.017,0,15.741-3.057,15.741-9.323
							c0-5.654-5.196-9.016-17.728-12.378c-17.881-4.891-30.719-12.685-30.719-28.427c0-14.214,10.393-25.064,28.426-27.967v-8.981
							c0-2.89,2.342-5.233,5.232-5.233h5.276c2.89,0,5.233,2.343,5.233,5.233v8.063c8.662,0.347,14.968,1.828,19.972,3.586
							c2.564,0.901,3.965,3.663,3.254,6.286l-2.098,7.736c-0.809,2.983-3.997,4.617-6.888,3.524
							c-4.607-1.742-11.122-3.557-19.589-3.557c-10.698,0-13.754,4.432-13.754,8.405c0,4.891,6.418,8.252,20.326,12.532
							c19.868,5.96,28.12,14.213,28.12,29.037c0,13.602-10.086,25.828-29.648,28.885v10.05c0,2.89-2.342,5.232-5.232,5.232h-5.277
							C612.659,2141.464,610.316,2139.122,610.316,2136.232z"/>
					</g>
				</g>
				<g>
					
						<linearGradient id="SVGID_00000176750235489193197430000011946366989485561770_" gradientUnits="userSpaceOnUse" x1="663.135" y1="2232.0437" x2="898.6868" y2="1958.6357">
						<stop  offset="0" style="stop-color:#FF928E"/>
						<stop  offset="1" style="stop-color:#FE7062"/>
					</linearGradient>
					
						<circle style="fill:url(#SVGID_00000176750235489193197430000011946366989485561770_);" cx="903.445" cy="1953.113" r="175.613"/>
					
						<linearGradient id="SVGID_00000114043533966939803370000005037017186817747585_" gradientUnits="userSpaceOnUse" x1="1031.7891" y1="1759.2217" x2="335.2557" y2="2811.4849">
						<stop  offset="0" style="stop-color:#FF928E"/>
						<stop  offset="1" style="stop-color:#FE7062"/>
					</linearGradient>
					
						<circle style="fill:url(#SVGID_00000114043533966939803370000005037017186817747585_);" cx="903.445" cy="1953.113" r="169.773"/>
					<path style="opacity:0.7;fill:#FFFFFF;" d="M763.448,1886.684c-0.62,0-1.25-0.14-1.842-0.44c-2.02-1.02-2.831-3.484-1.81-5.5
						c27.537-54.554,82.579-88.446,143.648-88.446c9.747,0,19.506,0.88,29.007,2.612c2.227,0.404,3.702,2.536,3.297,4.765
						c-0.404,2.224-2.53,3.74-4.765,3.292c-9.019-1.644-18.284-2.476-27.539-2.476c-57.959,0-110.199,32.164-136.336,83.942
						C766.388,1885.86,764.946,1886.684,763.448,1886.684z"/>
					
						<ellipse transform="matrix(0.7071 -0.7071 0.7071 0.7071 -1117.9789 1214.5847)" style="opacity:0.78;fill:#FFFFFF;" cx="907.144" cy="1956.812" rx="143.692" ry="143.692"/>
					<g>
						
							<linearGradient id="SVGID_00000050624992160237002060000016175659264621302673_" gradientUnits="userSpaceOnUse" x1="992.9937" y1="1719.4988" x2="922.3593" y2="1921.312">
							<stop  offset="0" style="stop-color:#FF928E"/>
							<stop  offset="1" style="stop-color:#FE7062"/>
						</linearGradient>
						<path style="fill:url(#SVGID_00000050624992160237002060000016175659264621302673_);" d="M893.043,2063.635v-15.633
							c-16.297-0.653-32.416-4.499-43.865-9.51c-4.088-1.789-6.172-6.377-4.998-10.683l3.971-14.562
							c1.457-5.342,7.266-8.105,12.373-5.964c11.357,4.761,25.38,8.527,40.5,8.527c15.697,0,27.403-5.322,27.403-16.23
							c0-9.843-9.045-15.696-30.862-21.548c-31.127-8.514-53.476-22.083-53.476-49.485c0-24.743,18.092-43.633,49.485-48.686
							v-15.635c0-5.031,4.078-9.109,9.109-9.109h9.185c5.031,0,9.109,4.078,9.109,9.109v14.037
							c15.08,0.604,26.057,3.182,34.768,6.243c4.464,1.568,6.902,6.376,5.664,10.942l-3.652,13.467
							c-1.408,5.193-6.958,8.038-11.992,6.135c-8.021-3.033-19.36-6.191-34.1-6.191c-18.624,0-23.943,7.715-23.943,14.633
							c0,8.513,11.173,14.366,35.383,21.816c34.587,10.375,48.953,24.742,48.953,50.549c0,23.678-17.559,44.962-51.613,50.284
							v17.495c0,5.031-4.078,9.109-9.109,9.109h-9.186C897.121,2072.744,893.043,2068.666,893.043,2063.635z"/>
					</g>
				</g>
				<g>
					
						<linearGradient id="SVGID_00000111898183196342359550000013680175527381980606_" gradientUnits="userSpaceOnUse" x1="777.2825" y1="2632.3699" x2="1019.6625" y2="2351.0361">
						<stop  offset="0" style="stop-color:#FF928E"/>
						<stop  offset="1" style="stop-color:#FE7062"/>
					</linearGradient>
					
						<circle style="fill:url(#SVGID_00000111898183196342359550000013680175527381980606_);" cx="1024.558" cy="2345.354" r="180.703"/>
					
						<linearGradient id="SVGID_00000084499878955370130590000015282387490875778177_" gradientUnits="userSpaceOnUse" x1="1156.6229" y1="2145.8416" x2="439.8989" y2="3228.6072">
						<stop  offset="0" style="stop-color:#FF928E"/>
						<stop  offset="1" style="stop-color:#FE7062"/>
					</linearGradient>
					
						<circle style="fill:url(#SVGID_00000084499878955370130590000015282387490875778177_);" cx="1024.558" cy="2345.354" r="174.695"/>
					<path style="opacity:0.7;fill:#FFFFFF;" d="M880.504,2276.88c-0.62,0-1.25-0.14-1.842-0.44c-2.02-1.02-2.83-3.484-1.81-5.501
						c28.315-56.098,84.912-90.946,147.707-90.946c10.003,0,20.038,0.904,29.826,2.684c2.226,0.404,3.702,2.536,3.298,4.76
						c-0.404,2.224-2.54,3.733-4.763,3.296c-9.305-1.692-18.848-2.548-28.361-2.548c-59.685,0-113.479,33.124-140.394,86.442
						C883.444,2276.056,882.002,2276.88,880.504,2276.88z"/>
					
						<ellipse transform="matrix(0.7071 -0.7071 0.7071 0.7071 -1359.906 1415.2167)" style="opacity:0.78;fill:#FFFFFF;" cx="1028.365" cy="2349.16" rx="147.858" ry="147.858"/>
					<g>
						
							<linearGradient id="SVGID_00000160877956148958660630000004153515473592216744_" gradientUnits="userSpaceOnUse" x1="1242.4802" y1="2015.833" x2="1111.3021" y2="2224.3726">
							<stop  offset="0" style="stop-color:#FF928E"/>
							<stop  offset="1" style="stop-color:#FE7062"/>
						</linearGradient>
						<path style="fill:url(#SVGID_00000160877956148958660630000004153515473592216744_);" d="M1013.855,2459.079v-16.086
							c-16.769-0.671-33.356-4.629-45.136-9.786c-4.207-1.841-6.351-6.563-5.143-10.993l4.087-14.984
							c1.499-5.497,7.477-8.34,12.731-6.137c11.686,4.899,26.115,8.775,41.675,8.775c16.151,0,28.197-5.476,28.197-16.701
							c0-10.128-9.307-16.15-31.756-22.173c-32.03-8.76-55.026-22.723-55.026-50.92c0-25.461,18.617-44.897,50.92-50.098v-16.088
							c0-5.176,4.196-9.373,9.373-9.373h9.451c5.177,0,9.373,4.196,9.373,9.373v14.444c15.518,0.621,26.813,3.275,35.777,6.424
							c4.593,1.614,7.102,6.561,5.828,11.259l-3.758,13.857c-1.449,5.344-7.16,8.271-12.339,6.313
							c-8.253-3.121-19.922-6.371-35.089-6.371c-19.164,0-24.638,7.938-24.638,15.057c0,8.76,11.498,14.782,36.409,22.448
							c35.589,10.677,50.371,25.459,50.371,52.014c0,24.365-18.067,46.265-53.109,51.741v18.002c0,5.176-4.197,9.373-9.373,9.373
							h-9.453C1018.052,2468.452,1013.855,2464.256,1013.855,2459.079z"/>
					</g>
				</g>
				<g>
					
						<linearGradient id="SVGID_00000121250081248394332430000003857800559434623894_" gradientUnits="userSpaceOnUse" x1="1075.1993" y1="2309.4949" x2="1252.7893" y2="2103.3638">
						<stop  offset="0" style="stop-color:#FF928E"/>
						<stop  offset="1" style="stop-color:#FE7062"/>
					</linearGradient>
					<circle style="fill:url(#SVGID_00000121250081248394332430000003857800559434623894_);" cx="1256.376" cy="2099.2" r="132.4"/>
					
						<linearGradient id="SVGID_00000082336355298755679980000006156239253137900981_" gradientUnits="userSpaceOnUse" x1="1353.1392" y1="1953.0194" x2="828.001" y2="2746.3535">
						<stop  offset="0" style="stop-color:#FF928E"/>
						<stop  offset="1" style="stop-color:#FE7062"/>
					</linearGradient>
					
						<circle style="fill:url(#SVGID_00000082336355298755679980000006156239253137900981_);" cx="1256.376" cy="2099.2" r="127.997"/>
					<path style="opacity:0.7;fill:#FFFFFF;" d="M1150.828,2050.127c-0.62,0-1.25-0.14-1.842-0.44c-2.02-1.02-2.83-3.484-1.81-5.501
						c20.935-41.477,62.777-67.24,109.2-67.24c7.399,0,14.818,0.668,22.051,1.988c2.226,0.404,3.702,2.536,3.296,4.765
						c-0.406,2.228-2.54,3.716-4.764,3.292c-6.751-1.228-13.676-1.852-20.583-1.852c-43.313,0-82.353,24.039-101.887,62.735
						C1153.769,2049.302,1152.326,2050.127,1150.828,2050.127z"/>
					
						<ellipse transform="matrix(0.7071 -0.7071 0.7071 0.7071 -1117.5298 1506.0227)" style="opacity:0.78;fill:#FFFFFF;" cx="1259.165" cy="2101.989" rx="108.334" ry="108.334"/>
					<g>
						
							<linearGradient id="SVGID_00000174596303792260888260000016564763595310994863_" gradientUnits="userSpaceOnUse" x1="1442.6547" y1="1815.738" x2="1328.2944" y2="1997.3691">
							<stop  offset="0" style="stop-color:#FF928E"/>
							<stop  offset="1" style="stop-color:#FE7062"/>
						</linearGradient>
						<path style="fill:url(#SVGID_00000174596303792260888260000016564763595310994863_);" d="M1248.534,2182.526v-11.786
							c-12.287-0.492-24.44-3.391-33.071-7.17c-3.082-1.349-4.653-4.809-3.768-8.054l2.994-10.979
							c1.099-4.027,5.479-6.11,9.328-4.497c8.563,3.589,19.135,6.429,30.535,6.429c11.834,0,20.66-4.012,20.66-12.237
							c0-7.421-6.819-11.833-23.268-16.246c-23.467-6.419-40.317-16.649-40.317-37.309c0-18.655,13.64-32.896,37.309-36.706v-11.788
							c0-3.793,3.074-6.868,6.867-6.868h6.925c3.793,0,6.868,3.075,6.868,6.868v10.583c11.369,0.455,19.645,2.399,26.213,4.707
							c3.365,1.182,5.204,4.807,4.27,8.25l-2.753,10.154c-1.062,3.915-5.246,6.06-9.041,4.625
							c-6.047-2.287-14.596-4.667-25.709-4.667c-14.041,0-18.052,5.816-18.052,11.032c0,6.418,8.424,10.831,26.677,16.448
							c26.076,7.823,36.907,18.654,36.907,38.11c0,17.852-13.238,33.899-38.912,37.911v13.19c0,3.792-3.074,6.867-6.867,6.867
							h-6.926C1251.609,2189.394,1248.534,2186.319,1248.534,2182.526z"/>
					</g>
				</g>
			</g>
		</g>
	</g>
</g>
</svg>
