<?xml version="1.0" encoding="utf-8"?>
<!-- Generator: Adobe Illustrator 27.5.0, SVG Export Plug-In . SVG Version: 6.00 Build 0)  -->
<svg version="1.1" xmlns="http://www.w3.org/2000/svg" xmlns:xlink="http://www.w3.org/1999/xlink" x="0px" y="0px"
	 viewBox="0 0 3710 3710" style="enable-background:new 0 0 3710 3710;" xml:space="preserve">
<g id="Background">
	<g>
		<g>
			<rect style="fill:#FFFFFF;" width="3710" height="3710"/>
		</g>
	</g>
</g>
<g id="Illustration">
	<g>
		<linearGradient id="SVGID_1_" gradientUnits="userSpaceOnUse" x1="3403.9534" y1="3594.7178" x2="1365.8224" y2="1394.8301">
			<stop  offset="0" style="stop-color:#DAE3FE"/>
			<stop  offset="1" style="stop-color:#E9EFFD"/>
		</linearGradient>
		<path style="fill:url(#SVGID_1_);" d="M3123.162,2339.91c-280.787,653.11-1021.975,933.636-1602.706,885.806
			c-158.564-13.059-477.596-39.336-726.7-273.757c-478.387-450.192-404.711-1391.218,53.243-1945.243
			c58.975-71.347,467.19-549.363,1103.318-542.965c465.738,4.685,792.635,266.492,832.384,299.109
			c50.214,41.203,160.966,139.115,260.781,294.445C3278.01,1422.277,3298.625,1931.781,3123.162,2339.91z"/>
		<g>
			<path style="fill:#91B3FA;" d="M1661.485,2523.689c0,0-204.272-1246.662-777.771-1955.68
				c-38.553-47.662-117.193-35.141-138.52,22.237C602.586,973.918,294.051,2145.452,1661.485,2523.689z"/>
			<path style="opacity:0.5;fill:#FFFFFF;" d="M1540.543,2436.565c2.884,3.125-1.617,7.5-4.916,4.78
				c-121.65-100.283-584.23-584.586-696.055-1499.081c-0.359-2.937,4.169-3.765,4.791-0.871
				C890.226,1154.622,1084.446,1942.441,1540.543,2436.565z"/>
		</g>
		<g>
			<g>
				<g>
					<path style="fill:#91B3FA;" d="M2829.815,1279.343c-23.905-49.803-41.004-101.938-44.993-158.703
						c-10.049-143.027,73.095-274.74,134.176-397.884c56.138-113.18,97.864-281.828-91.562-266.82
						c-150.912,11.957-328.331,162.352-348.575,319.178c-23.954,185.611,66.406,419.672-40.727,588.275
						c-149.874,235.867-257.98,181.814-257.98,579.841c0,170.073,94.205,263.887,202.107,315.559
						c170.31,81.558,373.387,48.603,509.081-82.717c119.878-116.013,191.156-282.79,167.049-450.227
						C3034.044,1556.737,2901.407,1428.493,2829.815,1279.343z"/>
					<path style="fill:#7D97F4;" d="M2703.194,2559.051c-2.366,0-4.519-1.601-5.121-4
						c-93.883-374.743-144.987-714.444-151.893-1009.67c-5.528-236.401,17.109-445.024,67.285-620.073
						c85.699-298.983,220.115-395.006,225.796-398.947c2.394-1.658,5.683-1.066,7.346,1.326c1.664,2.394,1.073,5.685-1.319,7.351
						c-1.367,0.953-137.557,98.567-222.068,394.581c-78.109,273.594-126.751,777.234,85.101,1622.863
						c0.708,2.83-1.011,5.7-3.84,6.409C2704.051,2559,2703.619,2559.051,2703.194,2559.051z"/>
				</g>
				<path style="fill:#91B3FA;" d="M2980.189,859.741c-7.297-1.979-15.313-2.597-23.85-1.616
					c-47.209,5.429-66.596,55.215-80.466,94.139c-11.878,33.334-25.875,73.795-18.861,109.909
					c7.584,39.044,49.048,70.893,79.135,31.251c34.199-45.06,85.516-114.245,85.827-173.957
					C3022.13,889.787,3005.465,866.596,2980.189,859.741z"/>
			</g>
			<g>
				<path style="fill:#BDD0FB;" d="M3244.341,2185.51c20.755-136.73-28.939-293.703-53.742-438.294
					c-13.114-76.449-19.179-152.317-6.901-229.336c12.208-76.577,48.189-159.397,15.013-235.691
					c-66.849-153.703-225.764-83.755-316.794,31.956c-105.633,134.275-134.511,353.691-174.632,522.648
					c-24.187,101.855-60.623,206.329-73.381,310.122c-21.136,171.943,17.74,291.316,99.993,371.934
					c78.89,77.325,199.041,93.358,295.55,39.611C3116.628,2509.905,3210.859,2406.083,3244.341,2185.51z"/>
				<path style="fill:#7D97F4;" d="M2880.788,2819.677c-2.406,0-4.531-1.736-4.947-4.188c-0.347-2.073-34.896-210.547-35.798-498.27
					c-0.837-265.627,27.641-655.142,168.05-1002.319c1.043-2.57,3.969-3.811,6.539-2.773c2.57,1.04,3.812,3.968,2.773,6.539
					c-139.772,345.604-168.138,733.651-167.318,998.323c0.886,286.948,35.311,494.765,35.66,496.831
					c0.458,2.735-1.386,5.326-4.12,5.785C2881.347,2819.654,2881.065,2819.677,2880.788,2819.677z"/>
			</g>
		</g>
		<g>
			<g>
				<rect x="2510.857" y="2032.462" style="fill:#7D97F4;" width="538.353" height="1038.252"/>
				<g style="opacity:0.89;">
					
						<linearGradient id="SVGID_00000131366079988599783130000014175233142623320224_" gradientUnits="userSpaceOnUse" x1="2627.8208" y1="2551.5879" x2="2935.4509" y2="2551.5879">
						<stop  offset="0" style="stop-color:#DAE3FE"/>
						<stop  offset="1" style="stop-color:#E9EFFD"/>
					</linearGradient>
					<path style="fill:url(#SVGID_00000131366079988599783130000014175233142623320224_);" d="M2934.328,2788.719h-305.384
						c-0.62,0-1.123-0.503-1.123-1.123v-472.017c0-0.62,0.503-1.123,1.123-1.123h305.384c0.62,0,1.123,0.503,1.123,1.123v472.017
						C2935.451,2788.217,2934.948,2788.719,2934.328,2788.719z"/>
					<g>
						<path style="fill:#7D97F4;" d="M2912.396,2763.084h-118.191c-0.345,0-0.624-0.28-0.624-0.624v-421.743
							c0-0.345,0.28-0.624,0.624-0.624h118.191c0.345,0,0.624,0.28,0.624,0.624v421.743
							C2913.02,2762.804,2912.74,2763.084,2912.396,2763.084z"/>
						<path style="fill:#7D97F4;" d="M2769.068,2763.084h-118.191c-0.345,0-0.624-0.28-0.624-0.624v-421.743
							c0-0.345,0.28-0.624,0.624-0.624h118.191c0.345,0,0.624,0.28,0.624,0.624v421.743
							C2769.692,2762.804,2769.413,2763.084,2769.068,2763.084z"/>
					</g>
				</g>
				
					<linearGradient id="SVGID_00000157271371963294460720000004194262331717510573_" gradientUnits="userSpaceOnUse" x1="-3666.7156" y1="3350.6006" x2="-2569.9402" y2="1335.442" gradientTransform="matrix(-1 0 0 1 -114.0489 0)">
					<stop  offset="0" style="stop-color:#4F52FF"/>
					<stop  offset="1" style="stop-color:#4042E2"/>
				</linearGradient>
				<path style="fill:url(#SVGID_00000157271371963294460720000004194262331717510573_);" d="M3150.57,2114.442h-665.272
					l-27.145-478.88l549.975-10.436l168.648,448.273C3185.657,2092.546,3171.676,2114.442,3150.57,2114.442z"/>
				
					<linearGradient id="SVGID_00000139972480390544072670000004600884717938049936_" gradientUnits="userSpaceOnUse" x1="-2760.791" y1="143.9276" x2="-2873.1101" y2="1815.5165" gradientTransform="matrix(-1 0 0 1 -114.0489 0)">
					<stop  offset="0" style="stop-color:#4F52FF"/>
					<stop  offset="1" style="stop-color:#4042E2"/>
				</linearGradient>
				<path style="fill:url(#SVGID_00000139972480390544072670000004600884717938049936_);" d="M3010.385,1647.148l-528.65-5.909
					l3.318-53.521l494.106,3.768c19.078,1.183,33.643,16.67,32.532,34.592L3010.385,1647.148z"/>
			</g>
			<g>
				<rect x="620.778" y="2028.858" style="fill:#7D97F4;" width="538.353" height="1038.252"/>
				<g style="opacity:0.89;">
					
						<linearGradient id="SVGID_00000091737555789721048030000007118440210151912629_" gradientUnits="userSpaceOnUse" x1="734.5371" y1="2547.9841" x2="1042.1674" y2="2547.9841">
						<stop  offset="0" style="stop-color:#DAE3FE"/>
						<stop  offset="1" style="stop-color:#E9EFFD"/>
					</linearGradient>
					<path style="fill:url(#SVGID_00000091737555789721048030000007118440210151912629_);" d="M735.66,2785.116h305.384
						c0.62,0,1.123-0.503,1.123-1.123v-472.017c0-0.62-0.503-1.123-1.123-1.123H735.66c-0.62,0-1.123,0.503-1.123,1.123v472.017
						C734.537,2784.613,735.04,2785.116,735.66,2785.116z"/>
					<g>
						<path style="fill:#7D97F4;" d="M757.592,2759.48h118.192c0.345,0,0.624-0.28,0.624-0.624v-421.743
							c0-0.345-0.28-0.624-0.624-0.624H757.592c-0.345,0-0.624,0.279-0.624,0.624v421.743
							C756.968,2759.2,757.247,2759.48,757.592,2759.48z"/>
						<path style="fill:#7D97F4;" d="M900.92,2759.48h118.192c0.345,0,0.624-0.28,0.624-0.624v-421.743
							c0-0.345-0.279-0.624-0.624-0.624H900.92c-0.345,0-0.624,0.279-0.624,0.624v421.743
							C900.296,2759.2,900.575,2759.48,900.92,2759.48z"/>
					</g>
				</g>
				
					<linearGradient id="SVGID_00000036958524285967813490000006610549712442391970_" gradientUnits="userSpaceOnUse" x1="117.3214" y1="3346.9968" x2="1214.0969" y2="1331.8383">
					<stop  offset="0" style="stop-color:#4F52FF"/>
					<stop  offset="1" style="stop-color:#4042E2"/>
				</linearGradient>
				<path style="fill:url(#SVGID_00000036958524285967813490000006610549712442391970_);" d="M519.418,2110.838h665.272
					l27.144-478.88l-549.975-10.436l-168.649,448.273C484.331,2088.942,498.313,2110.838,519.418,2110.838z"/>
				
					<linearGradient id="SVGID_00000106108105170878984360000008432418158641760443_" gradientUnits="userSpaceOnUse" x1="1023.2459" y1="140.3254" x2="910.9269" y2="1811.9125">
					<stop  offset="0" style="stop-color:#4F52FF"/>
					<stop  offset="1" style="stop-color:#4042E2"/>
				</linearGradient>
				<path style="fill:url(#SVGID_00000106108105170878984360000008432418158641760443_);" d="M659.603,1643.545l528.651-5.909
					l-3.318-53.521l-494.107,3.768c-19.078,1.183-33.643,16.67-32.532,34.592L659.603,1643.545z"/>
			</g>
			
				<linearGradient id="SVGID_00000158726686442835699100000013052711442889087109_" gradientUnits="userSpaceOnUse" x1="1598.2135" y1="3076.2568" x2="2045.4803" y2="3076.2568">
				<stop  offset="0" style="stop-color:#DAE3FE"/>
				<stop  offset="1" style="stop-color:#E9EFFD"/>
			</linearGradient>
			<path style="fill:url(#SVGID_00000158726686442835699100000013052711442889087109_);" d="M2045.48,3114.194h-447.267v-72.703
				c0-1.751,1.42-3.17,3.171-3.17h440.926c1.751,0,3.17,1.419,3.17,3.17V3114.194z"/>
			<g>
				<path style="fill:#BDD0FB;" d="M1084.725,1966.011v1146.923h1468.871c14.914,0,27.005-12.091,27.005-27.005V1966.011H1084.725z"
					/>
				<path style="fill:#7D97F4;" d="M1974.485,3038.32h-305.276v-583.623c0-6.582,5.336-11.918,11.918-11.918h281.439
					c6.582,0,11.918,5.336,11.918,11.918V3038.32z"/>
				
					<linearGradient id="SVGID_00000163063352413642707220000008794505643608290485_" gradientUnits="userSpaceOnUse" x1="1680.7196" y1="2740.5493" x2="1962.9744" y2="2740.5493">
					<stop  offset="0" style="stop-color:#4F52FF"/>
					<stop  offset="1" style="stop-color:#4042E2"/>
				</linearGradient>
				<path style="fill:url(#SVGID_00000163063352413642707220000008794505643608290485_);" d="M1962.974,3015.865H1680.72v-547.072
					c0-1.966,1.594-3.56,3.56-3.56h275.135c1.966,0,3.56,1.594,3.56,3.56V3015.865z"/>
				
					<linearGradient id="SVGID_00000034067686693490075610000000668847816848290439_" gradientUnits="userSpaceOnUse" x1="1669.2094" y1="2362.6187" x2="1974.485" y2="2362.6187">
					<stop  offset="0" style="stop-color:#DAE3FE"/>
					<stop  offset="1" style="stop-color:#E9EFFD"/>
				</linearGradient>
				<path style="fill:url(#SVGID_00000034067686693490075610000000668847816848290439_);" d="M1952.93,2402.694h-262.166
					c-11.904,0-21.555-9.65-21.555-21.555v-18.828c0-11.325,8.764-20.719,20.061-21.503l262.165-18.211
					c12.463-0.866,23.049,9.011,23.049,21.503v37.039C1974.485,2393.044,1964.834,2402.694,1952.93,2402.694z"/>
				<path style="fill:#7D97F4;" d="M1972.429,3075.207h-297.568c-13.512,0-24.466-10.953-24.466-24.466v-21.37
					c0-12.854,9.791-48.409,22.614-49.3l297.724,4.222c14.146-0.983,26.162,10.228,26.162,24.407v42.041
					C1996.895,3064.253,1985.941,3075.207,1972.429,3075.207z"/>
				<path style="fill:#7D97F4;" d="M1973.224,3121.744h-297.568c-13.512,0-24.466-10.953-24.466-24.466v-21.37
					c0-12.854,2.812-36.697,15.635-37.588l304.703-7.49c14.146-0.982,26.162,10.228,26.162,24.407v42.041
					C1997.69,3110.79,1986.736,3121.744,1973.224,3121.744z"/>
				<g>
					
						<linearGradient id="SVGID_00000054253334547510068060000002308741157876424871_" gradientUnits="userSpaceOnUse" x1="2068.7473" y1="2635.1333" x2="2504.2952" y2="2635.1333">
						<stop  offset="0" style="stop-color:#DAE3FE"/>
						<stop  offset="1" style="stop-color:#E9EFFD"/>
					</linearGradient>
					<path style="fill:url(#SVGID_00000054253334547510068060000002308741157876424871_);" d="M2501.153,2983.654H2071.89
						c-1.735,0-3.142-1.407-3.142-3.142v-690.756c0-1.735,1.407-3.142,3.142-3.142h429.263c1.735,0,3.142,1.407,3.142,3.142v690.756
						C2504.295,2982.247,2502.888,2983.654,2501.153,2983.654z"/>
					<path style="fill:#7D97F4;" d="M2469.442,2957.915h-366.738c-5.426,0-9.824-4.398-9.824-9.824v-622.405
						c0-5.426,4.398-9.824,9.824-9.824h366.738c5.426,0,9.824,4.398,9.824,9.824v622.405
						C2479.266,2953.517,2474.868,2957.915,2469.442,2957.915z"/>
					
						<linearGradient id="SVGID_00000179616818872748136400000012289646315302350267_" gradientUnits="userSpaceOnUse" x1="2267.0481" y1="2645.3457" x2="2289.2017" y2="2645.3457">
						<stop  offset="0" style="stop-color:#DAE3FE"/>
						<stop  offset="1" style="stop-color:#E9EFFD"/>
					</linearGradient>
					
						<rect x="2267.048" y="2307.038" style="fill:url(#SVGID_00000179616818872748136400000012289646315302350267_);" width="22.153" height="676.616"/>
				</g>
				<g>
					
						<linearGradient id="SVGID_00000114788892143072060610000015228408362174303901_" gradientUnits="userSpaceOnUse" x1="1159.1309" y1="2635.1333" x2="1594.6786" y2="2635.1333">
						<stop  offset="0" style="stop-color:#DAE3FE"/>
						<stop  offset="1" style="stop-color:#E9EFFD"/>
					</linearGradient>
					<path style="fill:url(#SVGID_00000114788892143072060610000015228408362174303901_);" d="M1591.536,2983.654h-429.263
						c-1.735,0-3.142-1.407-3.142-3.142v-690.756c0-1.735,1.407-3.142,3.142-3.142h429.263c1.735,0,3.142,1.407,3.142,3.142v690.756
						C1594.679,2982.247,1593.272,2983.654,1591.536,2983.654z"/>
					<path style="fill:#7D97F4;" d="M1559.825,2957.915h-366.738c-5.426,0-9.824-4.398-9.824-9.824v-622.405
						c0-5.426,4.398-9.824,9.824-9.824h366.738c5.426,0,9.824,4.398,9.824,9.824v622.405
						C1569.65,2953.517,1565.251,2957.915,1559.825,2957.915z"/>
					
						<linearGradient id="SVGID_00000155122161704210690570000007336810128622266775_" gradientUnits="userSpaceOnUse" x1="1357.4316" y1="2645.3457" x2="1379.585" y2="2645.3457">
						<stop  offset="0" style="stop-color:#DAE3FE"/>
						<stop  offset="1" style="stop-color:#E9EFFD"/>
					</linearGradient>
					
						<rect x="1357.432" y="2307.038" style="fill:url(#SVGID_00000155122161704210690570000007336810128622266775_);" width="22.153" height="676.616"/>
				</g>
				<g>
					<polygon style="fill:#BDD0FB;" points="2598.084,1324.501 2585.375,1314.896 2585.375,1301.533 2567.696,1301.533 
						1832.663,745.989 1089.5,1301.533 1089.5,1966.011 2585.375,1966.011 2585.375,1393.021 					"/>
					<g>
						
							<linearGradient id="SVGID_00000183949958391620889880000003949177328306709156_" gradientUnits="userSpaceOnUse" x1="2228.5608" y1="1085.3431" x2="2213.251" y2="633.7028">
							<stop  offset="0" style="stop-color:#4F52FF"/>
							<stop  offset="1" style="stop-color:#4042E2"/>
						</linearGradient>
						
							<rect x="2160.797" y="810.603" style="fill:url(#SVGID_00000183949958391620889880000003949177328306709156_);" width="123.731" height="201.462"/>
						
							<linearGradient id="SVGID_00000079463923101889715820000007009218731407324313_" gradientUnits="userSpaceOnUse" x1="2228.9863" y1="925.3114" x2="2213.6055" y2="471.5822">
							<stop  offset="0" style="stop-color:#4F52FF"/>
							<stop  offset="1" style="stop-color:#4042E2"/>
						</linearGradient>
						<path style="fill:url(#SVGID_00000079463923101889715820000007009218731407324313_);" d="M2325.306,843.247h-199.991v-55.77
							c0-3.366,2.729-6.095,6.096-6.095h184.617c5.124,0,9.278,4.154,9.278,9.278V843.247z"/>
						
							<linearGradient id="SVGID_00000018221460416717148140000008149560253994933639_" gradientUnits="userSpaceOnUse" x1="1899.0477" y1="447.4431" x2="1816.1606" y2="1633.0818">
							<stop  offset="0" style="stop-color:#4F52FF"/>
							<stop  offset="1" style="stop-color:#4042E2"/>
						</linearGradient>
						<path style="fill:url(#SVGID_00000018221460416717148140000008149560253994933639_);" d="M1039.485,1407.336L1833.28,798.57
							l753.492,584.46c27.387,21.244,67.559,6.365,74.502-27.593l10.569-51.694L1833.279,664.95l-811.693,619.978
							c-14.533,11.101-19.807,30.574-12.861,47.492L1039.485,1407.336z"/>
					</g>
					<g style="opacity:0.89;">
						
							<linearGradient id="SVGID_00000121994750792212806760000007603387702266798989_" gradientUnits="userSpaceOnUse" x1="1673.0089" y1="1630.4146" x2="1980.6392" y2="1630.4146">
							<stop  offset="0" style="stop-color:#DAE3FE"/>
							<stop  offset="1" style="stop-color:#E9EFFD"/>
						</linearGradient>
						<path style="fill:url(#SVGID_00000121994750792212806760000007603387702266798989_);" d="M1674.132,1867.546h305.384
							c0.62,0,1.123-0.503,1.123-1.123v-472.017c0-0.62-0.503-1.123-1.123-1.123h-305.384c-0.62,0-1.123,0.503-1.123,1.123v472.017
							C1673.009,1867.043,1673.512,1867.546,1674.132,1867.546z"/>
						<g>
							<path style="fill:#7D97F4;" d="M1696.064,1841.91h118.192c0.345,0,0.624-0.28,0.624-0.624v-421.743
								c0-0.345-0.279-0.624-0.624-0.624h-118.192c-0.345,0-0.624,0.28-0.624,0.624v421.743
								C1695.44,1841.631,1695.719,1841.91,1696.064,1841.91z"/>
							<path style="fill:#7D97F4;" d="M1839.392,1841.91h118.192c0.345,0,0.624-0.28,0.624-0.624v-421.743
								c0-0.345-0.279-0.624-0.624-0.624h-118.192c-0.345,0-0.624,0.28-0.624,0.624v421.743
								C1838.768,1841.631,1839.047,1841.91,1839.392,1841.91z"/>
						</g>
					</g>
					<g style="opacity:0.89;">
						
							<linearGradient id="SVGID_00000026155263900081097860000004420863944076610954_" gradientUnits="userSpaceOnUse" x1="1241.2877" y1="1633.7721" x2="1548.9178" y2="1633.7721">
							<stop  offset="0" style="stop-color:#DAE3FE"/>
							<stop  offset="1" style="stop-color:#E9EFFD"/>
						</linearGradient>
						<path style="fill:url(#SVGID_00000026155263900081097860000004420863944076610954_);" d="M1242.411,1870.904h305.384
							c0.62,0,1.123-0.503,1.123-1.123v-472.017c0-0.62-0.503-1.123-1.123-1.123h-305.384c-0.62,0-1.123,0.503-1.123,1.123v472.017
							C1241.288,1870.401,1241.791,1870.904,1242.411,1870.904z"/>
						<g>
							<path style="fill:#7D97F4;" d="M1264.343,1845.268h118.192c0.345,0,0.624-0.279,0.624-0.624V1422.9
								c0-0.345-0.279-0.624-0.624-0.624h-118.192c-0.345,0-0.624,0.279-0.624,0.624v421.743
								C1263.719,1844.989,1263.998,1845.268,1264.343,1845.268z"/>
							<path style="fill:#7D97F4;" d="M1407.671,1845.268h118.192c0.345,0,0.624-0.279,0.624-0.624V1422.9
								c0-0.345-0.279-0.624-0.624-0.624h-118.192c-0.345,0-0.624,0.279-0.624,0.624v421.743
								C1407.047,1844.989,1407.326,1845.268,1407.671,1845.268z"/>
						</g>
					</g>
					<g style="opacity:0.89;">
						
							<linearGradient id="SVGID_00000042015510910928830270000003278205105465899404_" gradientUnits="userSpaceOnUse" x1="2086.0188" y1="1638.0586" x2="2393.6489" y2="1638.0586">
							<stop  offset="0" style="stop-color:#DAE3FE"/>
							<stop  offset="1" style="stop-color:#E9EFFD"/>
						</linearGradient>
						<path style="fill:url(#SVGID_00000042015510910928830270000003278205105465899404_);" d="M2087.142,1875.19h305.384
							c0.62,0,1.123-0.503,1.123-1.123V1402.05c0-0.62-0.503-1.123-1.123-1.123h-305.384c-0.62,0-1.123,0.503-1.123,1.123v472.017
							C2086.019,1874.688,2086.521,1875.19,2087.142,1875.19z"/>
						<g>
							<path style="fill:#7D97F4;" d="M2109.074,1849.554h118.192c0.345,0,0.624-0.279,0.624-0.624v-421.743
								c0-0.345-0.28-0.624-0.624-0.624h-118.192c-0.345,0-0.624,0.279-0.624,0.624v421.743
								C2108.45,1849.275,2108.729,1849.554,2109.074,1849.554z"/>
							<path style="fill:#7D97F4;" d="M2252.402,1849.554h118.192c0.345,0,0.624-0.279,0.624-0.624v-421.743
								c0-0.345-0.28-0.624-0.624-0.624h-118.192c-0.345,0-0.624,0.279-0.624,0.624v421.743
								C2251.778,1849.275,2252.057,1849.554,2252.402,1849.554z"/>
						</g>
					</g>
				</g>
				<path style="fill:#7D97F4;" d="M2594.061,2038.042H1071.266c-16.071,0-29.098-13.028-29.098-29.098v-27.474
					c0-16.071,13.028-29.098,29.098-29.098h1522.795c16.071,0,29.098,13.028,29.098,29.098v27.474
					C2623.159,2025.014,2610.131,2038.042,2594.061,2038.042z"/>
			</g>
		</g>
		<g>
			<g>
				
					<linearGradient id="SVGID_00000142146737645148565330000015537990600404247984_" gradientUnits="userSpaceOnUse" x1="2422.144" y1="1681.0553" x2="-27.07" y2="3704.3215">
					<stop  offset="0" style="stop-color:#FF928E"/>
					<stop  offset="1" style="stop-color:#FE7062"/>
				</linearGradient>
				<path style="fill:url(#SVGID_00000142146737645148565330000015537990600404247984_);" d="M1726.583,2942.689H795.545
					c-18.464,0-33.433-14.969-33.433-33.433v-538.093c0-18.465,14.968-33.433,33.433-33.433h931.038
					c18.464,0,33.433,14.968,33.433,33.433v538.093C1760.016,2927.72,1745.048,2942.689,1726.583,2942.689z"/>
				<path style="fill:#FFFFFF;" d="M1704.461,2925.513H819.808c-18.465,0-33.433-14.969-33.433-33.433v-494.2
					c0-18.465,14.968-33.433,33.433-33.433h884.653c18.464,0,33.433,14.968,33.433,33.433v494.2
					C1737.894,2910.544,1722.925,2925.513,1704.461,2925.513z"/>
				<g>
					
						<linearGradient id="SVGID_00000013155090600782727840000014263896981936303265_" gradientUnits="userSpaceOnUse" x1="4570.3984" y1="4457.7246" x2="856.3087" y2="2506.2039">
						<stop  offset="0" style="stop-color:#FF928E"/>
						<stop  offset="1" style="stop-color:#FE7062"/>
					</linearGradient>
					<path style="fill:url(#SVGID_00000013155090600782727840000014263896981936303265_);" d="M959.873,2516.918v36.834h-61.391
						v68.758H849.37v-179.261h115.414v39.29h-66.302v34.379H959.873z"/>
					
						<linearGradient id="SVGID_00000100345988384422232110000003540917071027430030_" gradientUnits="userSpaceOnUse" x1="4607.3804" y1="4387.354" x2="893.2879" y2="2435.8318">
						<stop  offset="0" style="stop-color:#FF928E"/>
						<stop  offset="1" style="stop-color:#FE7062"/>
					</linearGradient>
					<path style="fill:url(#SVGID_00000100345988384422232110000003540917071027430030_);" d="M1010.826,2465.472
						c16.614-16.453,39.003-24.679,67.161-24.679c28.156,0,50.544,8.226,67.162,24.679c16.614,16.453,24.925,38.922,24.925,67.407
						c0,28.485-8.311,50.955-24.925,67.407c-16.617,16.453-39.006,24.679-67.162,24.679c-28.159,0-50.547-8.226-67.161-24.679
						c-16.617-16.453-24.924-38.922-24.924-67.407C985.902,2504.394,994.209,2481.925,1010.826,2465.472z M1036.242,2532.879
						c0,34.379,13.913,51.568,41.746,51.568c27.83,0,41.746-17.189,41.746-51.568c0-34.379-13.916-51.568-41.746-51.568
						C1050.155,2481.311,1036.242,2498.501,1036.242,2532.879z"/>
					
						<linearGradient id="SVGID_00000080923437418207031500000005828451912722367641_" gradientUnits="userSpaceOnUse" x1="4643.3662" y1="4318.8691" x2="929.2767" y2="2367.3486">
						<stop  offset="0" style="stop-color:#FF928E"/>
						<stop  offset="1" style="stop-color:#FE7062"/>
					</linearGradient>
					<path style="fill:url(#SVGID_00000080923437418207031500000005828451912722367641_);" d="M1242.761,2559.891v62.619h-47.884
						v-178.033c21.279-2.456,42.563-3.683,63.846-3.683c49.113,0,73.669,18.417,73.669,55.252c0,10.313-3.193,19.89-9.577,28.731
						s-14.653,15.145-24.802,18.908v0.491c4.911,2.786,9.001,6.346,12.278,10.682c3.273,4.34,6.384,10.521,9.332,18.54
						l17.681,49.113h-50.341l-15.225-46.657c-1.803-5.729-4.094-9.823-6.875-12.278c-2.786-2.456-6.469-3.684-11.051-3.684H1242.761
						z M1242.761,2524.285h13.506c8.349,0,14.937-2.087,19.768-6.262c4.827-4.175,7.244-9.861,7.244-17.067
						c0-15.551-9.005-23.329-27.011-23.329c-5.242,0-9.742,0.411-13.506,1.228V2524.285z"/>
					
						<linearGradient id="SVGID_00000039818230248595105720000014359601021604285364_" gradientUnits="userSpaceOnUse" x1="4395.4341" y1="4497.0967" x2="681.3447" y2="2545.5762">
						<stop  offset="0" style="stop-color:#FF928E"/>
						<stop  offset="1" style="stop-color:#FE7062"/>
					</linearGradient>
					<path style="fill:url(#SVGID_00000039818230248595105720000014359601021604285364_);" d="M1090.192,2788.226v62.619h-47.884
						v-178.033c21.279-2.456,42.563-3.683,63.846-3.683c49.113,0,73.669,18.417,73.669,55.251c0,10.314-3.193,19.891-9.577,28.731
						c-6.384,8.84-14.653,15.145-24.802,18.908v0.491c4.911,2.786,9.001,6.346,12.278,10.682c3.273,4.34,6.384,10.521,9.331,18.54
						l17.681,49.113h-50.341l-15.225-46.657c-1.803-5.729-4.094-9.823-6.875-12.278c-2.786-2.456-6.469-3.683-11.051-3.683H1090.192
						z M1090.192,2752.619h13.506c8.349,0,14.937-2.087,19.768-6.262c4.827-4.175,7.244-9.861,7.244-17.067
						c0-15.551-9.005-23.329-27.011-23.329c-5.242,0-9.742,0.41-13.506,1.228V2752.619z"/>
					
						<linearGradient id="SVGID_00000095303056985510239840000005779950507403639954_" gradientUnits="userSpaceOnUse" x1="4433.937" y1="4423.8237" x2="719.8384" y2="2472.2983">
						<stop  offset="0" style="stop-color:#FF928E"/>
						<stop  offset="1" style="stop-color:#FE7062"/>
					</linearGradient>
					<path style="fill:url(#SVGID_00000095303056985510239840000005779950507403639954_);" d="M1323.72,2740.341v36.835h-63.846
						v34.378h68.757v39.29h-117.87v-179.261h117.87v39.29h-68.757v29.467H1323.72z"/>
					
						<linearGradient id="SVGID_00000050663551965988126790000002642290621834943400_" gradientUnits="userSpaceOnUse" x1="4470.1133" y1="4354.9644" x2="756.014" y2="2403.4385">
						<stop  offset="0" style="stop-color:#FF928E"/>
						<stop  offset="1" style="stop-color:#FE7062"/>
					</linearGradient>
					<path style="fill:url(#SVGID_00000050663551965988126790000002642290621834943400_);" d="M1463.445,2769.809h0.491v-98.225
						h47.885v179.261h-47.885l-53.533-98.225h-0.491v98.225h-47.884v-179.261h47.884L1463.445,2769.809z"/>
					
						<linearGradient id="SVGID_00000139980480911509394750000002115620998446910613_" gradientUnits="userSpaceOnUse" x1="4513.9517" y1="4271.5513" x2="799.8589" y2="2320.0288">
						<stop  offset="0" style="stop-color:#FF928E"/>
						<stop  offset="1" style="stop-color:#FE7062"/>
					</linearGradient>
					<path style="fill:url(#SVGID_00000139980480911509394750000002115620998446910613_);" d="M1688.871,2671.583v40.518h-48.622
						v138.743h-50.094v-138.743h-48.622v-40.518H1688.871z"/>
				</g>
			</g>
			
				<linearGradient id="SVGID_00000153679539860547438270000006251104231721180067_" gradientUnits="userSpaceOnUse" x1="1617.4584" y1="2024.9495" x2="1617.4584" y2="2989.1699">
				<stop  offset="0" style="stop-color:#FF928E"/>
				<stop  offset="1" style="stop-color:#FE7062"/>
			</linearGradient>
			<path style="fill:url(#SVGID_00000153679539860547438270000006251104231721180067_);" d="M1630.948,2379.836h-26.98
				c-1.787,0-3.25-1.462-3.25-3.25v-207.771c0-1.788,1.463-3.25,3.25-3.25h26.98c1.788,0,3.25,1.462,3.25,3.25v207.771
				C1634.198,2378.374,1632.736,2379.836,1630.948,2379.836z"/>
			
				<linearGradient id="SVGID_00000137812296518750509880000011041497603922163896_" gradientUnits="userSpaceOnUse" x1="907.6849" y1="2024.9493" x2="907.6849" y2="2989.1697">
				<stop  offset="0" style="stop-color:#FF928E"/>
				<stop  offset="1" style="stop-color:#FE7062"/>
			</linearGradient>
			<path style="fill:url(#SVGID_00000137812296518750509880000011041497603922163896_);" d="M921.175,2376.488h-26.98
				c-1.787,0-3.25-1.462-3.25-3.25v-207.771c0-1.787,1.463-3.25,3.25-3.25h26.98c1.787,0,3.25,1.463,3.25,3.25v207.771
				C924.425,2375.026,922.962,2376.488,921.175,2376.488z"/>
			<g>
				
					<linearGradient id="SVGID_00000103264089392615512680000004539454859017554072_" gradientUnits="userSpaceOnUse" x1="1273.2346" y1="2256.6494" x2="1263.1903" y2="1920.7314">
					<stop  offset="0" style="stop-color:#E1473D"/>
					<stop  offset="1" style="stop-color:#E9605A"/>
				</linearGradient>
				<polygon style="fill:url(#SVGID_00000103264089392615512680000004539454859017554072_);" points="2007.499,2086.329 
					1963.975,2153.446 1963.975,2107.475 565.615,2106.45 527.688,2088.561 526.571,2106.417 566.747,2187.327 1963.975,2192.349 
					2010.847,2104.185 				"/>
				
					<linearGradient id="SVGID_00000098900116541855873720000006977333012920905661_" gradientUnits="userSpaceOnUse" x1="1168.4187" y1="2675.8811" x2="1303.8179" y2="1872.5143">
					<stop  offset="0" style="stop-color:#FF928E"/>
					<stop  offset="1" style="stop-color:#FE7062"/>
				</linearGradient>
				<polygon style="fill:url(#SVGID_00000098900116541855873720000006977333012920905661_);" points="1957.279,2178.957 
					573.444,2174.493 527.688,2088.561 2007.499,2086.329 				"/>
			</g>
			<g>
				
					<linearGradient id="SVGID_00000098197388239946576400000009748495336489843111_" gradientUnits="userSpaceOnUse" x1="477.4843" y1="2569.8191" x2="1372.5145" y2="2409.1147">
					<stop  offset="0" style="stop-color:#E1473D"/>
					<stop  offset="1" style="stop-color:#E9605A"/>
				</linearGradient>
				<polygon style="fill:url(#SVGID_00000098197388239946576400000009748495336489843111_);" points="717.572,3126.888 
					617.137,3126.888 616.968,1944.598 717.572,2014.906 				"/>
				
					<linearGradient id="SVGID_00000062914403559263999220000017412765543487322029_" gradientUnits="userSpaceOnUse" x1="951.9024" y1="2709.6423" x2="389.9237" y2="2414.3579">
					<stop  offset="0" style="stop-color:#FF928E"/>
					<stop  offset="1" style="stop-color:#FE7062"/>
				</linearGradient>
				<polygon style="fill:url(#SVGID_00000062914403559263999220000017412765543487322029_);" points="732.08,3128.004 
					631.645,3128.004 631.476,1954.642 732.08,2016.021 				"/>
			</g>
			<g>
				
					<linearGradient id="SVGID_00000068666436924533320900000000788510862963417771_" gradientUnits="userSpaceOnUse" x1="682.8913" y1="2012.3025" x2="663.9193" y2="2233.2698">
					<stop  offset="0" style="stop-color:#FF928E"/>
					<stop  offset="1" style="stop-color:#FE7062"/>
				</linearGradient>
				<circle style="fill:url(#SVGID_00000068666436924533320900000000788510862963417771_);" cx="673.326" cy="2123.715" r="19.53"/>
				
					<linearGradient id="SVGID_00000043450031345350094770000008774562909710566562_" gradientUnits="userSpaceOnUse" x1="677.2922" y1="2080.863" x2="664.2829" y2="2232.3831">
					<stop  offset="0" style="stop-color:#FF928E"/>
					<stop  offset="1" style="stop-color:#FE7062"/>
				</linearGradient>
				
					<circle style="fill:url(#SVGID_00000043450031345350094770000008774562909710566562_);" cx="673.326" cy="2127.063" r="13.392"/>
			</g>
		</g>
		<g>
			<g>
				<path style="fill:#BDD0FB;" d="M807.391,3173.13c0,0-166.348,103.633-255.352,14.55
					c-71.531-71.595,45.726-24.869,154.548-18.157c8.54,0.527,9.851-12.089,1.385-13.326
					c-83.179-12.158-207.96-38.239-217.323-86.074c-14.135-72.213,11.149-42.909,106.165-6.05
					c95.016,36.86,120.674,18.104,61.228-15.018c-59.445-33.121-170.237-28.73-185.072-66.315
					c-14.834-37.585-10.32-102.538-12.239-131.57c-1.919-29.031,140.233-31.366,165.789,13.294
					c25.557,44.66,32.344,130.058,70.337,156.097c37.993,26.039,12.232-55.118-5.601-98.297
					c-17.832-43.179-21.426-72.524,31.836-48.294c53.261,24.229,63.373,100.514,54.828,152.882
					c-8.545,52.368,2.995,86.298,9.238,60.962c6.242-25.336,19.006-104.845,7.792-133.029
					C783.736,2926.603,902.692,2990.921,807.391,3173.13z"/>
				<path style="opacity:0.53;fill:#FFFFFF;" d="M796.703,3171.532c-0.617,0.053-1.243-0.225-1.603-0.785
					c-81.678-126.01-244.362-246.968-245.996-248.174c-0.769-0.568-0.932-1.65-0.364-2.422c0.566-0.765,1.651-0.93,2.42-0.362
					c1.639,1.209,164.821,122.531,246.845,249.078c0.52,0.8,0.291,1.872-0.511,2.392
					C797.248,3171.421,796.976,3171.509,796.703,3171.532z"/>
			</g>
			<g>
				<path style="fill:#91B3FA;" d="M909.755,3213.701c0,0-214.446,7.075-249.991-126.124
					c-28.568-107.05,56.965,1.484,156.427,67.472c7.806,5.178,15.961-6.061,8.614-11.872
					c-72.175-57.099-176.149-150.189-158.813-200.657c26.17-76.187,34.078-34.56,103.936,52.437s104.453,83.279,66.26,19.315
					c-38.193-63.964-145.607-120.508-139.072-164.259c6.534-43.751,46.403-102.839,60.491-131.406
					c14.088-28.567,150.097,47.109,149.849,103.44c-0.249,56.332-40.607,140.99-18.866,186.486
					c21.742,45.496,41.794-45.539,48.551-96.234c6.758-50.695,19.43-80.477,56.635-28.328c37.205,52.148,4.99,129.99-31.803,174.941
					c-36.793,44.952-44.445,83.434-24.647,62.841c19.799-20.592,75.461-88.957,80.275-121.813
					C1022.414,2967.084,1099.918,3093.223,909.755,3213.701z"/>
				<path style="opacity:0.53;fill:#FFFFFF;" d="M900.502,3206.33c-0.615-0.288-1.055-0.894-1.09-1.622
					c-8.369-164.184-96.283-367.966-97.171-370.004c-0.418-0.96,0.021-2.075,0.982-2.495c0.956-0.415,2.075,0.023,2.493,0.983
					c0.891,2.044,89.077,206.442,97.48,371.325c0.054,1.043-0.75,1.933-1.795,1.988
					C901.079,3206.523,900.773,3206.458,900.502,3206.33z"/>
			</g>
		</g>
	</g>
</g>
</svg>
