<?xml version="1.0" encoding="utf-8"?>
<!-- Generator: Adobe Illustrator 27.5.0, SVG Export Plug-In . SVG Version: 6.00 Build 0)  -->
<svg version="1.1" xmlns="http://www.w3.org/2000/svg" xmlns:xlink="http://www.w3.org/1999/xlink" x="0px" y="0px"
	 viewBox="0 0 500 500" style="enable-background:new 0 0 500 500;" xml:space="preserve">
<g id="Background_Simple">
	<g>
		<path style="fill:#92E3A9;" d="M433.623,110.345c-1.536-2.558-3.134-5.069-4.803-7.523c-22.227-32.659-59.23-55.019-95.192-65.145
			c-15.754-4.443-31.929-6.767-48.077-7.361c-105.91-3.848-144.818,83.477-178.942,105.992
			c-34.123,22.516-86.487,60.973-79.917,141.761c4.986,61.425,39.929,120.158,103.748,146.885
			c7.029,2.953,14.415,5.516,22.148,7.643c14.385,3.957,29.976,6.442,46.775,7.189c48.25,2.15,87.428-9.481,125.75-38.77
			c8.908-6.808,17.768-14.487,29.328-15.329c8.403-0.612,16.369,2.407,7.586,10.527c-10.323,9.545,1.588,28.317,27.793,15.275
			c43.766-21.783,61.77-68.78,70.252-116.568C470.484,236.264,465.438,163.316,433.623,110.345z"/>
		<path style="opacity:0.7;fill:#FFFFFF;" d="M433.623,110.345c-1.536-2.558-3.134-5.069-4.803-7.523
			c-22.227-32.659-59.23-55.019-95.192-65.145c-15.754-4.443-31.929-6.767-48.077-7.361
			c-105.91-3.848-144.818,83.477-178.942,105.992c-34.123,22.516-86.487,60.973-79.917,141.761
			c4.986,61.425,39.929,120.158,103.748,146.885c7.029,2.953,14.415,5.516,22.148,7.643c14.385,3.957,29.976,6.442,46.775,7.189
			c48.25,2.15,87.428-9.481,125.75-38.77c8.908-6.808,17.768-14.487,29.328-15.329c8.403-0.612,16.369,2.407,7.586,10.527
			c-10.323,9.545,1.588,28.317,27.793,15.275c43.766-21.783,61.77-68.78,70.252-116.568
			C470.484,236.264,465.438,163.316,433.623,110.345z"/>
	</g>
</g>
<g id="Plant">
	<g>
		<path style="fill:#263238;" d="M149.938,384.084c-2.639,0.823-8.784,0.006-8.789,0.005c-0.064-0.009,1.768-3.887,1.911-4.118
			c1.664-2.678,6.452-6.876,9.878-6.023c2.468,0.615,3.585,3.276,2.76,5.572C154.855,381.866,152.186,383.383,149.938,384.084z"/>
		<path style="fill:#263238;" d="M92.657,382.362c-0.058,0.028-0.669-4.217-0.677-4.489c-0.09-3.151,1.588-9.294,4.916-10.473
			c2.397-0.849,4.797,0.754,5.375,3.125c0.591,2.422-0.798,5.16-2.286,6.985C98.238,379.652,92.661,382.36,92.657,382.362z"/>
		<path style="fill:#263238;" d="M93.729,427.75c2.062,0.264,6.139-0.896,7.282-1.24c0.187,1.755,0.412,3.493,0.715,5.192
			c0.146,0.73,0.248,1.485,0.429,2.178c0.166,0.702,0.332,1.397,0.495,2.085c0.388,1.412,0.744,2.725,1.14,4.03
			c0.195,0.661,0.394,1.28,0.592,1.919c-0.491-1.014-1.294-2.607-1.383-2.744c-1.515-2.32-5.806-5.913-8.799-5.095
			c-2.157,0.589-3.085,2.949-2.314,4.951c0.788,2.044,3.163,3.325,5.152,3.896c2.193,0.63,7.017-0.065,7.607-0.154
			c0.492,1.563,0.985,3.081,1.474,4.491c0.318,0.927,0.629,1.799,0.936,2.649h2.037c-0.404-1.035-0.816-2.108-1.242-3.266
			c-0.469-1.266-0.944-2.614-1.419-4.006c0.541-0.225,4.719-2.002,6.403-3.628c1.762,1.122,3.768,2.071,4.122,2.235
			c-0.452,1.575-0.877,3.113-1.248,4.559c-0.377,1.455-0.706,2.81-1.01,4.105h1.975c0.249-1.163,0.514-2.368,0.82-3.664
			c0.307-1.314,0.654-2.702,1.026-4.124c0.597,0.114,5.378,0.999,7.592,0.458c2.011-0.491,4.435-1.674,5.304-3.685
			c0.851-1.969,0.018-4.364-2.113-5.04c-2.958-0.938-7.39,2.48-8.996,4.738c-0.103,0.145-1.126,1.99-1.629,2.943
			c0.227-0.859,0.45-1.712,0.702-2.603c0.352-1.283,0.766-2.628,1.16-3.933c0.229-0.669,0.46-1.345,0.694-2.028
			c0.221-0.694,0.517-1.328,0.775-2.005c0.4-0.982,0.862-1.975,1.32-2.968c1.285,0.437,5.078,1.655,7.075,1.48
			c2.062-0.181,4.638-0.983,5.801-2.839c1.139-1.818,0.679-4.312-1.325-5.302c-2.782-1.375-7.68,1.332-9.61,3.32
			c-0.063,0.065-0.427,0.527-0.854,1.08c0.477-0.955,0.95-1.911,1.466-2.862c1.463-2.7,3.037-5.405,4.603-8.123
			c0.327-0.566,0.644-1.137,0.968-1.704c1.08,0.373,5.177,1.728,7.269,1.546c2.062-0.181,4.638-0.983,5.801-2.84
			c1.14-1.817,0.679-4.311-1.325-5.302c-2.782-1.374-7.68,1.332-9.61,3.32c-0.069,0.071-0.502,0.625-0.983,1.247
			c0.83-1.488,1.639-2.982,2.395-4.49c1.326-2.635,2.489-5.302,3.411-7.974c0.379,0.135,5.151,1.822,7.476,1.618
			c2.062-0.181,4.638-0.983,5.802-2.839c1.139-1.818,0.679-4.312-1.326-5.302c-2.782-1.375-7.68,1.332-9.611,3.32
			c-0.137,0.141-1.691,2.154-2.222,2.892c0.01-0.032,0.026-0.063,0.037-0.095c0.942-2.815,1.494-5.618,1.889-8.302
			c0.397-2.677,0.543-5.232,0.617-7.585c0.08-2.355,0.008-4.514-0.072-6.424c-0.051-1.034-0.117-1.979-0.188-2.859
			c0.01,0.008,0.052,0.04,0.052,0.04c0.046,0.034,1.292-3.523,1.345-3.757c0.612-2.703,0.206-8.284-2.464-9.865
			c-1.924-1.139-4.265-0.163-5.166,1.784c-0.92,1.988-0.186,4.585,0.788,6.411c0.998,1.871,4.436,4.606,5.297,5.274
			c0.055,0.917,0.104,1.896,0.134,2.981c0.038,1.907,0.063,4.06-0.068,6.403c-0.033,0.625-0.094,1.295-0.141,1.945
			c-0.148-1.113-0.372-2.638-0.41-2.783c-0.702-2.68-3.634-7.447-6.733-7.619c-2.232-0.124-3.86,1.821-3.763,3.964
			c0.1,2.188,1.947,4.155,3.653,5.327c1.78,1.222,6.2,2.071,7.169,2.246c-0.127,1.439-0.291,2.915-0.552,4.444
			c-0.446,2.64-1.06,5.431-2.051,8.183c-0.096-0.016-0.079-0.013-0.174-0.029c-0.011-1.043-0.085-3.237-0.111-3.417
			c-0.403-2.741-2.794-7.801-5.855-8.313c-2.205-0.368-4.037,1.386-4.175,3.526c-0.142,2.186,1.479,4.344,3.046,5.696
			c1.806,1.558,6.86,3.016,7.05,3.07c-0.956,2.557-2.132,5.109-3.472,7.635c-0.969,1.832-2.026,3.647-3.103,5.459
			c0.012-0.733-0.082-3.61-0.113-3.817c-0.404-2.741-2.794-7.801-5.855-8.313c-2.205-0.369-4.037,1.386-4.175,3.526
			c-0.141,2.186,1.479,4.344,3.047,5.696c1.763,1.521,6.599,2.94,7.007,3.058c-0.49,0.823-0.975,1.646-1.473,2.466
			c-1.623,2.679-3.261,5.357-4.797,8.051c-0.532,0.933-1.022,1.872-1.518,2.81c-0.016-1.099-0.084-3.099-0.109-3.27
			c-0.403-2.742-2.794-7.801-5.855-8.313c-2.205-0.369-4.037,1.386-4.175,3.526c-0.141,2.186,1.479,4.344,3.046,5.696
			c1.574,1.358,5.615,2.639,6.757,2.983c-0.812,1.567-1.583,3.14-2.269,4.725c-0.281,0.69-0.612,1.375-0.843,2.053
			c-0.248,0.678-0.494,1.348-0.738,2.012c-0.455,1.392-0.882,2.684-1.272,3.99c-0.202,0.659-0.377,1.285-0.565,1.927
			c0.15-1.116,0.359-2.888,0.36-3.052c0.017-2.771-1.58-8.135-4.528-9.104c-2.124-0.699-4.2,0.758-4.662,2.853
			c-0.058,0.266-0.09,0.536-0.097,0.808c-1.419,2.025-2.244,4.975-2.306,6.816c-0.006,0.177,0.158,2.281,0.265,3.352
			c-0.284-0.842-0.569-1.676-0.85-2.558c-0.414-1.264-0.811-2.614-1.203-3.92c-0.178-0.685-0.358-1.376-0.54-2.074
			c-0.198-0.701-0.301-1.393-0.46-2.1c-0.208-1.04-0.371-2.123-0.536-3.204c1.313-0.344,5.148-1.421,6.717-2.668
			c1.62-1.288,3.326-3.379,3.272-5.569c-0.052-2.145-1.812-3.971-4.03-3.691c-3.079,0.388-5.671,5.348-6.184,8.071
			c-0.016,0.089-0.065,0.675-0.116,1.371c-0.129-1.059-0.261-2.117-0.356-3.196c-0.27-3.059-0.448-6.184-0.642-9.314
			c-0.04-0.652-0.09-1.303-0.132-1.956c1.106-0.284,5.272-1.414,6.915-2.72c1.62-1.288,3.326-3.379,3.272-5.569
			c-0.052-2.144-1.812-3.97-4.03-3.691c-3.078,0.388-5.67,5.348-6.184,8.071c-0.018,0.098-0.075,0.798-0.132,1.583
			c-0.129-1.699-0.279-3.392-0.479-5.066c-0.348-2.929-0.849-5.796-1.555-8.533c0.391-0.096,5.302-1.322,7.129-2.775
			c1.62-1.288,3.326-3.379,3.272-5.569c-0.052-2.144-1.812-3.97-4.03-3.691c-3.079,0.388-5.671,5.348-6.184,8.071
			c-0.037,0.193-0.222,2.73-0.259,3.638c-0.009-0.032-0.013-0.067-0.022-0.099c-0.767-2.868-1.853-5.51-3.005-7.966
			c-1.146-2.452-2.433-4.664-3.67-6.668c-1.233-2.008-2.484-3.769-3.603-5.319c-0.613-0.834-1.189-1.586-1.735-2.281
			c0.013,0.001,0.066,0.005,0.066,0.005c0.057,0.004-0.866-3.651-0.95-3.875c-0.981-2.592-4.398-7.023-7.497-6.868
			c-2.233,0.111-3.647,2.217-3.325,4.337c0.329,2.166,2.374,3.927,4.193,4.913c1.865,1.009,6.241,1.395,7.328,1.476
			c0.551,0.734,1.132,1.524,1.756,2.412c1.084,1.57,2.292,3.352,3.476,5.378c0.317,0.539,0.635,1.132,0.955,1.7
			c-0.737-0.847-1.765-1.995-1.877-2.096c-2.064-1.848-7.139-4.207-9.818-2.641c-1.93,1.128-2.215,3.648-0.952,5.382
			c1.29,1.77,3.916,2.391,5.986,2.427c2.159,0.038,6.314-1.693,7.219-2.081c0.688,1.271,1.365,2.592,1.99,4.011
			c1.085,2.447,2.112,5.113,2.803,7.955c-0.089,0.04-0.073,0.032-0.162,0.073c-0.585-0.865-1.855-2.652-1.977-2.787
			c-1.849-2.064-6.634-4.965-9.469-3.703c-2.042,0.909-2.602,3.383-1.537,5.244c1.088,1.902,3.63,2.807,5.683,3.07
			c2.365,0.303,7.385-1.269,7.573-1.328c0.613,2.66,1.04,5.438,1.316,8.284c0.202,2.062,0.322,4.16,0.424,6.265
			c-0.395-0.618-2.06-2.966-2.2-3.121c-1.849-2.064-6.634-4.965-9.469-3.703c-2.043,0.909-2.603,3.383-1.537,5.244
			c1.088,1.901,3.63,2.807,5.683,3.07c2.309,0.296,7.126-1.189,7.531-1.315c0.046,0.956,0.095,1.911,0.132,2.87
			c0.125,3.13,0.236,6.268,0.441,9.361c0.07,1.072,0.18,2.125,0.285,3.181c-0.62-0.908-1.78-2.538-1.895-2.667
			c-1.849-2.064-6.634-4.965-9.469-3.704c-2.042,0.91-2.603,3.383-1.537,5.245C89.134,426.581,91.676,427.487,93.729,427.75z"/>
	</g>
</g>
<g id="Question_Mark">
	<g>
		<path style="fill:#263238;stroke:#263238;stroke-linecap:round;stroke-linejoin:round;stroke-miterlimit:10;" d="M299.658,130.783
			c-2.652-1.403-5.144-3.935-7.482-7.599c-2.339-3.661-3.508-7.986-3.508-12.977c0-4.83,1.286-8.454,3.858-10.872
			c2.571-2.415,6.35-4.245,11.34-5.495l18.237-4.442c7.792-2.024,11.69-5.765,11.69-11.223c0-2.959-1.443-5.531-4.326-7.715
			c-2.886-2.181-7.832-3.273-14.847-3.273c-6.393,0-12.392,0.818-18.003,2.455c-5.611,1.637-10.135,3.547-13.561,5.728
			c-2.652-2.024-4.91-4.479-6.78-7.365c-1.87-2.882-2.806-6.35-2.806-10.405c0-4.051,1.169-7.599,3.507-10.638
			c2.338-3.04,5.571-5.531,9.703-7.482c4.129-1.947,9.038-3.39,14.73-4.326c5.689-0.935,11.961-1.403,18.821-1.403
			c18.391,0,32.303,4.092,41.735,12.275c9.43,8.184,14.146,18.902,14.146,32.149c0,24.941-17.616,40.917-52.841,47.932
			L299.658,130.783z M291.942,161.413c0-6.39,1.987-11.65,5.962-15.782c3.975-4.129,9.47-6.196,16.484-6.196
			c7.014,0,12.509,2.067,16.483,6.196c3.975,4.132,5.962,9.393,5.962,15.782c0,6.393-1.987,11.653-5.962,15.781
			c-3.975,4.129-9.47,6.196-16.483,6.196c-7.015,0-12.509-2.067-16.484-6.196C293.929,173.066,291.942,167.805,291.942,161.413z"/>
	</g>
</g>
<g id="Character">
	<g>
		<polygon style="fill:#263238;stroke:#263238;stroke-linecap:round;stroke-linejoin:round;stroke-miterlimit:10;" points="
			217.085,289.919 219.068,450.056 297.401,450.056 290.956,291.902 		"/>
		<polygon style="fill:#FFFFFF;stroke:#263238;stroke-linecap:round;stroke-linejoin:round;stroke-miterlimit:10;" points="
			217.085,232.712 219.068,392.849 297.401,392.849 290.956,234.695 		"/>
		<polygon style="fill:#263238;stroke:#263238;stroke-linecap:round;stroke-linejoin:round;stroke-miterlimit:10;" points="
			244.344,249.983 252.502,263.579 238.226,366.224 259.752,387.75 273.801,360.786 257.713,264.259 265.87,253.156 
			256.807,238.654 		"/>
		<g>
			<polygon style="fill:#92E3A9;stroke:#263238;stroke-linecap:round;stroke-linejoin:round;stroke-miterlimit:10;" points="
				252.502,263.579 252.189,265.826 261.292,259.387 265.87,253.156 261.5,246.164 247.847,255.821 			"/>
			<polygon style="fill:#92E3A9;stroke:#263238;stroke-linecap:round;stroke-linejoin:round;stroke-miterlimit:10;" points="
				247.778,297.545 261.628,287.748 259.679,276.051 249.795,283.042 			"/>
			<polygon style="fill:#92E3A9;stroke:#263238;stroke-linecap:round;stroke-linejoin:round;stroke-miterlimit:10;" points="
				260.153,386.981 270.941,366.274 251.809,379.807 259.468,387.466 			"/>
			<polygon style="fill:#92E3A9;stroke:#263238;stroke-linecap:round;stroke-linejoin:round;stroke-miterlimit:10;" points="
				263.942,301.634 245.383,314.761 243.367,329.264 265.892,313.331 			"/>
			<polygon style="fill:#92E3A9;stroke:#263238;stroke-linecap:round;stroke-linejoin:round;stroke-miterlimit:10;" points="
				269.13,332.76 240.016,353.353 238.227,366.224 239.088,367.085 271.079,344.457 			"/>
		</g>
		<polygon style="fill:#FFFFFF;stroke:#263238;stroke-linecap:round;stroke-linejoin:round;stroke-miterlimit:10;" points="
			255.9,243.412 235.96,264.938 229.163,237.068 231.295,228.531 		"/>
		<polygon style="fill:#FFFFFF;stroke:#263238;stroke-linecap:round;stroke-linejoin:round;stroke-miterlimit:10;" points="
			255.9,243.412 271.082,263.352 278.333,235.935 275.84,229.59 		"/>
		<g>
			<g>
				<path style="fill:#FFFFFF;stroke:#263238;stroke-linecap:round;stroke-linejoin:round;stroke-miterlimit:10;" d="
					M113.603,228.269c0,0-6.804-13.836-10.207-18.372c-3.402-4.536-6.804-7.258-10.66-7.938c-3.856-0.68-6.577-0.454-9.526-1.588
					c-2.949-1.134-8.846-2.722-10.433-4.763c-1.588-2.041-4.536-0.68-3.175,2.722c1.361,3.402,6.124,5.67,6.124,5.67l3.856,1.814
					c0,0-12.475,1.814-13.382,2.495c-0.907,0.681-11.794,1.588-11.794,1.588s4.763,8.392,11.567,12.248
					c6.804,3.856,28.125,0.68,28.125,0.68l6.351,13.382L113.603,228.269z"/>
				<path style="fill:#FFFFFF;stroke:#263238;stroke-linecap:round;stroke-linejoin:round;stroke-miterlimit:10;" d="
					M50.114,207.655c0,0-3.506-7.449-3.213-9.056c0.292-1.607,3.36-0.584,4.382,1.607c1.022,2.191,4.528,7.449,4.528,7.449H50.114z"
					/>
				<path style="fill:#FFFFFF;stroke:#263238;stroke-linecap:round;stroke-linejoin:round;stroke-miterlimit:10;" d="
					M43.899,204.112c0,0,5.444,11.567,9.073,14.743c3.629,3.175,10.887,3.402,10.887,3.402s-8.619-9.073-10.433-12.475
					C51.611,206.38,45.033,198.215,43.899,204.112z"/>
				<path style="fill:#FFFFFF;stroke:#263238;stroke-linecap:round;stroke-linejoin:round;stroke-miterlimit:10;" d="
					M48.281,205.134c0,0,5.443,11.567,9.072,14.743c3.629,3.175,10.887,3.402,10.887,3.402s-8.619-9.072-10.433-12.475
					C55.993,207.402,49.415,199.237,48.281,205.134z"/>
				<path style="fill:#FFFFFF;stroke:#263238;stroke-linecap:round;stroke-linejoin:round;stroke-miterlimit:10;" d="
					M97.499,216.928c0,0-1.134-1.814-4.99-4.31c-3.856-2.495-24.269,3.856-24.269,3.856s-9.299-11.567-10.66-12.701
					c-1.361-1.134-3.856-1.814-4.309,0.454c-0.454,2.268,5.67,12.021,7.258,13.609c1.588,1.588,7.712,5.443,7.712,5.443
					s5.443,2.041,11.567,1.814c6.124-0.227,14.289-2.268,14.289-2.268"/>
			</g>
			<polygon style="fill:#FFFFFF;stroke:#263238;stroke-linecap:round;stroke-linejoin:round;stroke-miterlimit:10;" points="
				121.523,240.144 113.353,225.689 93.556,237.63 98.584,249.885 			"/>
			<g>
				<g>
					<path style="fill:#92E3A9;stroke:#263238;stroke-linecap:round;stroke-linejoin:round;stroke-miterlimit:10;" d="
						M229.163,237.068l-7.712,212.988h-55.935l11.313-151.777c0,0-30.481,33.309-33.938,35.195
						c-3.457,1.885-7.856-4.085-7.856-4.085L93.87,248.628l24.511-13.512l27.025,43.994l4.085-2.828l3.142,1.571
						c0,0,27.967-49.335,30.167-50.592c2.2-1.257,12.57-0.628,12.57-0.628l27.024,2.2l9.142-1.987L229.163,237.068z"/>
					<polygon style="fill:#263238;stroke:#263238;stroke-linecap:round;stroke-linejoin:round;stroke-miterlimit:10;" points="
						177.143,293.565 179.094,274.161 164.537,311.159 176.829,298.278 					"/>
					<path style="fill:none;stroke:#263238;stroke-linecap:round;stroke-linejoin:round;stroke-miterlimit:10;" d="M173.058,246.743
						c0,0,2.2,30.795,2.514,32.995"/>
					
						<line style="fill:none;stroke:#263238;stroke-linecap:round;stroke-linejoin:round;stroke-miterlimit:10;" x1="169.602" y1="269.054" x2="173.058" y2="291.051"/>
					
						<line style="fill:none;stroke:#263238;stroke-linecap:round;stroke-linejoin:round;stroke-miterlimit:10;" x1="145.091" y1="281.624" x2="136.921" y2="298.592"/>
					
						<line style="fill:none;stroke:#263238;stroke-linecap:round;stroke-linejoin:round;stroke-miterlimit:10;" x1="152.318" y1="280.052" x2="145.719" y2="293.25"/>
				</g>
				<path style="fill:none;stroke:#263238;stroke-linecap:round;stroke-linejoin:round;stroke-miterlimit:10;" d="M208.286,285.512
					c2.074,14.27,5.751,35.813,10.651,49.532"/>
				<path style="fill:none;stroke:#263238;stroke-linecap:round;stroke-linejoin:round;stroke-miterlimit:10;" d="M223.022,231.66
					c0,0-10.056,15.398-13.198,20.111c-3.142,4.714-6.285,8.484-6.285,8.484l15.398,2.514l-12.57,8.17c0,0,0.319,2.853,0.931,7.463"
					/>
			</g>
		</g>
		<g>
			<g>
				<path style="fill:#FFFFFF;stroke:#263238;stroke-linecap:round;stroke-linejoin:round;stroke-miterlimit:10;" d="
					M393.73,228.269c0,0,6.804-13.836,10.206-18.372c3.402-4.536,6.804-7.258,10.66-7.938c3.856-0.68,6.577-0.454,9.526-1.588
					c2.948-1.134,8.846-2.722,10.433-4.763c1.588-2.041,4.536-0.68,3.175,2.722c-1.361,3.402-6.124,5.67-6.124,5.67l-3.856,1.814
					c0,0,12.475,1.814,13.382,2.495c0.907,0.681,11.794,1.588,11.794,1.588s-4.763,8.392-11.567,12.248
					c-6.804,3.856-28.125,0.68-28.125,0.68l-6.351,13.382L393.73,228.269z"/>
				<path style="fill:#FFFFFF;stroke:#263238;stroke-linecap:round;stroke-linejoin:round;stroke-miterlimit:10;" d="
					M457.218,207.655c0,0,3.506-7.449,3.214-9.056c-0.292-1.607-3.36-0.584-4.382,1.607c-1.022,2.191-4.528,7.449-4.528,7.449
					H457.218z"/>
				<path style="fill:#FFFFFF;stroke:#263238;stroke-linecap:round;stroke-linejoin:round;stroke-miterlimit:10;" d="
					M463.434,204.112c0,0-5.443,11.567-9.072,14.743c-3.629,3.175-10.887,3.402-10.887,3.402s8.619-9.073,10.433-12.475
					C455.722,206.38,462.3,198.215,463.434,204.112z"/>
				<path style="fill:#FFFFFF;stroke:#263238;stroke-linecap:round;stroke-linejoin:round;stroke-miterlimit:10;" d="
					M459.052,205.134c0,0-5.444,11.567-9.073,14.743c-3.629,3.175-10.887,3.402-10.887,3.402s8.619-9.072,10.433-12.475
					C451.34,207.402,457.918,199.237,459.052,205.134z"/>
				<path style="fill:#FFFFFF;stroke:#263238;stroke-linecap:round;stroke-linejoin:round;stroke-miterlimit:10;" d="
					M409.834,216.928c0,0,1.134-1.814,4.99-4.31c3.856-2.495,24.269,3.856,24.269,3.856s9.299-11.567,10.66-12.701
					c1.361-1.134,3.856-1.814,4.31,0.454c0.454,2.268-5.67,12.021-7.258,13.609c-1.588,1.588-7.712,5.443-7.712,5.443
					s-5.443,2.041-11.567,1.814c-6.124-0.227-14.289-2.268-14.289-2.268"/>
			</g>
			<polygon style="fill:#FFFFFF;stroke:#263238;stroke-linecap:round;stroke-linejoin:round;stroke-miterlimit:10;" points="
				385.81,240.144 393.98,225.689 413.777,237.63 408.749,249.885 			"/>
			<g>
				<g>
					<path style="fill:#92E3A9;stroke:#263238;stroke-linecap:round;stroke-linejoin:round;stroke-miterlimit:10;" d="
						M278.17,237.068l7.712,212.988h55.934l-11.313-151.777c0,0,30.481,33.309,33.938,35.195s7.856-4.085,7.856-4.085l41.165-80.759
						l-24.511-13.512l-27.025,43.994l-4.085-2.828l-3.142,1.571c0,0-27.967-49.335-30.167-50.592
						c-2.2-1.257-12.57-0.628-12.57-0.628l-27.025,2.2l-10.03-1.987L278.17,237.068z"/>
					<polygon style="fill:#263238;stroke:#263238;stroke-linecap:round;stroke-linejoin:round;stroke-miterlimit:10;" points="
						330.504,298.278 330.122,282.955 342.253,310.25 					"/>
					
						<line style="fill:none;stroke:#263238;stroke-linecap:round;stroke-linejoin:round;stroke-miterlimit:10;" x1="330.189" y1="293.565" x2="327.361" y2="252.085"/>
					<path style="fill:none;stroke:#263238;stroke-linecap:round;stroke-linejoin:round;stroke-miterlimit:10;" d="M333.593,259.98
						c0,0-1.518,17.559-1.832,19.758"/>
					
						<line style="fill:none;stroke:#263238;stroke-linecap:round;stroke-linejoin:round;stroke-miterlimit:10;" x1="337.731" y1="269.054" x2="334.275" y2="291.051"/>
					
						<line style="fill:none;stroke:#263238;stroke-linecap:round;stroke-linejoin:round;stroke-miterlimit:10;" x1="362.242" y1="281.624" x2="363.836" y2="290.718"/>
					
						<line style="fill:none;stroke:#263238;stroke-linecap:round;stroke-linejoin:round;stroke-miterlimit:10;" x1="355.014" y1="280.052" x2="354.911" y2="286.256"/>
				</g>
				<path style="fill:none;stroke:#263238;stroke-linecap:round;stroke-linejoin:round;stroke-miterlimit:10;" d="M290.664,327.878
					c-0.723,2.549-1.48,4.959-2.268,7.166"/>
				<path style="fill:none;stroke:#263238;stroke-linecap:round;stroke-linejoin:round;stroke-miterlimit:10;" d="M284.311,231.66
					c0,0,10.056,15.398,13.198,20.111c3.142,4.714,6.285,8.484,6.285,8.484l-15.398,2.514l12.569,8.17
					c0,0-3.315,29.617-9.019,52.149"/>
			</g>
		</g>
		<g>
			<path style="fill:#FFFFFF;stroke:#263238;stroke-linecap:round;stroke-linejoin:round;stroke-miterlimit:10;" d="
				M231.202,207.158l0.093,21.373l24.606,14.881l19.94-13.822l-1.813-24.245c0,0-15.408,9.97-17.447,10.423
				S231.202,207.158,231.202,207.158z"/>
			<polygon style="fill:#263238;stroke:#263238;stroke-linecap:round;stroke-linejoin:round;stroke-miterlimit:10;" points="
				231.536,224.435 254.909,218.652 231.295,209.013 			"/>
		</g>
		<g>
			<path style="fill:#263238;stroke:#263238;stroke-linecap:round;stroke-linejoin:round;stroke-miterlimit:10;" d="M274.028,180.42
				c0,0-0.227-9.743,2.492-15.181c3.001-6.002,0-11.33,0-11.33l2.492-0.906c0,0-3.625-2.946-4.305-3.172
				c-0.68-0.227,0.453-6.344-1.586-9.517c-2.039-3.172-4.079-3.852-4.079-3.852l-1.133,4.079c0,0-6.118-7.251-9.517-8.61
				c-3.399-1.36-13.142-7.931-13.369-4.532s1.133,4.758,1.133,4.758s-6.798-3.852-12.009-2.492
				c-5.212,1.359-10.197,4.532-9.064,5.665c1.133,1.133,6.118,5.891,6.118,5.891s-11.556,0.453-12.916,1.813
				c-1.359,1.359-2.039,3.625-2.039,3.625l6.571,3.399c0,0-5.891-0.453-8.157,3.172c-2.266,3.625-2.719,4.985-1.133,5.665
				c1.586,0.68,4.532,2.719,4.532,2.719s-1.586,2.719,0.227,7.251c1.813,4.532,6.118,14.502,6.118,14.502s1.586-16.314,2.719-19.487
				c1.133-3.172,15.182-10.65,17.221-11.329c2.039-0.68,16.314,3.172,17.221,3.172c0.906,0,6.798,22.885,8.157,23.792
				C271.082,180.42,274.028,180.42,274.028,180.42z"/>
			<path style="fill:#FFFFFF;stroke:#263238;stroke-linecap:round;stroke-linejoin:round;stroke-miterlimit:10;" d="M236.64,146.885
				c0,0-15.181,14.955-15.408,17.447c-0.227,2.492,6.571,41.239,7.024,42.599c0.453,1.36,16.541,11.556,21.526,12.689
				c4.985,1.133,10.197-0.227,11.556-1.359c1.359-1.133,14.502-8.61,15.861-14.728c1.36-6.118-7.251-47.81-8.157-49.396
				C268.136,152.55,246.837,142.353,236.64,146.885z"/>
			<path style="fill:#263238;stroke:#263238;stroke-linecap:round;stroke-linejoin:round;stroke-miterlimit:10;" d="M236.64,146.885
				c0,0,5.257,2.609,7.426,3.573c2.169,0.964,4.578-2.41,4.578-2.41s18.628,6.391,20.398,6.087c1.77-0.304-4.977-7.292-11.965-9.943
				C250.09,141.543,236.685,141.866,236.64,146.885z"/>
			<path style="fill:none;stroke:#263238;stroke-linecap:round;stroke-linejoin:round;stroke-miterlimit:10;" d="M254.314,163.199
				c0,0-3.172,3.399-3.172,4.758c0,1.36,3.852,18.354,3.625,19.26c-0.227,0.906-3.172,2.266-4.532,2.039
				c-1.36-0.227-1.36-0.227-1.36-0.227s-1.133,0.227-2.719,0.227c-1.586,0-2.039-1.813-2.039-1.813"/>
			<path style="fill:none;stroke:#263238;stroke-linecap:round;stroke-linejoin:round;stroke-miterlimit:10;" d="M254.767,187.218
				c0,0,2.266,0.453,2.492-0.906c0.227-1.36,0.227-1.36,0.227-1.36"/>
			<path style="fill:none;stroke:#263238;stroke-linecap:round;stroke-linejoin:round;stroke-miterlimit:10;" d="M248.876,189.031
				c0,0-1.586-1.133-0.906-3.172"/>
			<path style="fill:none;stroke:#263238;stroke-linecap:round;stroke-linejoin:round;stroke-miterlimit:10;" d="M244.798,202.853
				c0,0,7.477-8.384,16.088-4.985"/>
			<path style="fill:none;stroke:#263238;stroke-width:2;stroke-linecap:round;stroke-linejoin:round;stroke-miterlimit:10;" d="
				M243.665,165.919c0,0-6.344-2.946-9.743-0.68c-3.399,2.266-4.758,5.891-4.758,5.891"/>
			<path style="fill:none;stroke:#263238;stroke-width:2;stroke-linecap:round;stroke-linejoin:round;stroke-miterlimit:10;" d="
				M257.033,163.199c0,0,2.719-2.492,6.345-1.133c3.625,1.359,5.438,4.758,5.438,4.758"/>
			<ellipse style="fill:#263238;" cx="239.246" cy="175.549" rx="1.699" ry="2.379"/>
			<path style="fill:#263238;" d="M261.225,172.15c0,1.314-0.761,2.379-1.699,2.379c-0.939,0-1.699-1.065-1.699-2.379
				c0-1.314,0.761-2.379,1.699-2.379C260.464,169.771,261.225,170.836,261.225,172.15z"/>
			<path style="fill:#FFFFFF;stroke:#263238;stroke-linecap:round;stroke-linejoin:round;stroke-miterlimit:10;" d="
				M223.951,180.874c0,0-4.305-6.118-6.344-1.359c-2.039,4.758,0,8.61,2.039,11.783c2.039,3.172,6.345,4.758,6.345,4.758
				L223.951,180.874z"/>
			<path style="fill:#FFFFFF;stroke:#263238;stroke-linecap:round;stroke-linejoin:round;stroke-miterlimit:10;" d="
				M274.481,173.396c0,0,0.453-4.305,2.266-3.852c1.813,0.453,5.212,3.852,3.172,8.61c-2.039,4.758-4.079,9.743-4.079,9.743
				l-1.813-9.29L274.481,173.396z"/>
		</g>
	</g>
</g>
<g id="Line">
	
		<line style="fill:none;stroke:#263238;stroke-linecap:round;stroke-linejoin:round;stroke-miterlimit:10;" x1="50.435" y1="450.056" x2="469.588" y2="450.056"/>
</g>
</svg>
